<svg width="494" height="495" viewBox="0 0 494 495" fill="none" xmlns="http://www.w3.org/2000/svg">
<path d="M249.547 426.573C279.897 426.573 304.502 422.311 304.502 417.055C304.502 411.798 279.897 407.537 249.547 407.537C219.196 407.537 194.592 411.798 194.592 417.055C194.592 422.311 219.196 426.573 249.547 426.573Z" fill="#E6F2F7"/>
<path d="M320.123 421.544C346.06 421.544 367.086 417.903 367.086 413.41C367.086 408.917 346.06 405.275 320.123 405.275C294.186 405.275 273.16 408.917 273.16 413.41C273.16 417.903 294.186 421.544 320.123 421.544Z" fill="#E6F2F7"/>
<path d="M159.891 421.544C185.828 421.544 206.854 417.903 206.854 413.41C206.854 408.917 185.828 405.275 159.891 405.275C133.954 405.275 112.928 408.917 112.928 413.41C112.928 417.903 133.954 421.544 159.891 421.544Z" fill="#E6F2F7"/>
<path d="M393.927 419.349C419.863 419.349 440.889 415.707 440.889 411.215C440.889 406.722 419.863 403.08 393.927 403.08C367.99 403.08 346.964 406.722 346.964 411.215C346.964 415.707 367.99 419.349 393.927 419.349Z" fill="#E6F2F7"/>
<path d="M146.674 410.534C146.674 414.19 127.375 417.121 103.564 417.121C79.7535 417.121 60.4656 414.168 60.4656 410.534C60.4656 406.9 79.7645 403.947 103.564 403.947C127.364 403.947 146.674 406.878 146.674 410.534Z" fill="#E6F2F7"/>
<path d="M119.427 137.736C123.519 142.604 126.293 148.44 127.485 154.686C125.078 157.35 122.292 159.647 119.219 161.503C113.281 165.035 106.499 166.893 99.5905 166.882C96.0069 167.01 92.4492 166.228 89.2494 164.61C85.0275 162.305 81.6853 158.669 79.7427 154.269C80.0281 152.589 80.3684 150.866 80.7746 149.109C82.767 140.667 86.0436 132.581 90.4899 125.134L119.427 137.736Z" fill="#231F20"/>
<path d="M94.8919 400.533C94.7368 401.469 94.5055 402.39 94.2003 403.289C93.4801 405.369 92.3615 407.289 90.907 408.942H99.1074C100.044 408.042 100.617 406.829 100.718 405.534C100.819 404.239 100.441 402.951 99.6563 401.916C99.0508 401.292 98.293 400.836 97.4575 400.593C96.622 400.35 95.7378 400.33 94.8919 400.533Z" fill="#275694"/>
<path d="M84.4301 171.712C81.2356 184.699 77.3385 198.531 72.4534 213.164C67.5683 227.798 62.3209 241.059 57.0845 253.189C57.824 254.653 58.9735 255.869 60.3927 256.69C61.8118 257.51 63.4393 257.9 65.0763 257.811C72.365 248.42 78.1668 237.964 82.2785 226.81C86.4219 215.556 88.7956 203.728 89.3152 191.747L84.4301 171.712Z" fill="#275694"/>
<path d="M97.8011 320.681C98.2475 324.867 98.6647 329.09 99.0526 333.349C101.16 356.929 101.973 379.609 101.786 401.269C101.438 401.876 100.941 402.384 100.342 402.746C99.7423 403.107 99.0605 403.309 98.361 403.332C97.7254 403.291 97.1079 403.104 96.5559 402.786C96.004 402.468 95.5323 402.028 95.1774 401.499C93.7137 394.671 92.25 387.799 90.7863 380.883C86.9075 362.286 83.3287 343.943 80.05 325.851L97.8011 320.681Z" fill="#F7A592"/>
<path d="M111.348 325.379C111.531 327.816 111.673 330.308 111.776 332.855C111.776 332.855 111.962 337.433 111.941 342.011C111.941 347.983 109.13 372.408 102.324 405.254C102.044 405.917 101.536 406.459 100.892 406.781C100.248 407.103 99.5099 407.185 98.8111 407.01C98.3096 406.843 97.8625 406.544 97.5167 406.144C97.1709 405.744 96.9392 405.258 96.8461 404.738C96.5314 397.624 96.2386 390.47 95.9678 383.276C95.236 364.19 94.7457 345.355 94.4968 326.774L111.348 325.379Z" fill="#FCC3AB"/>
<path d="M75.4282 238.995C74.302 243.769 73.4262 248.599 72.8046 253.464C70.6968 270.018 72.08 282.742 73.6059 295.904C75.0417 308.345 77.297 320.678 80.3573 332.822C87.6421 335.598 95.5816 336.175 103.191 334.48C107.313 333.51 111.245 331.863 114.827 329.606C115.925 323.129 117.352 313.951 118.681 302.886C122.117 274.344 120.942 265.704 120.338 262.103C118.777 252.941 115.69 244.106 111.205 235.965L75.4282 238.995Z" fill="#275694"/>
<path d="M84.4301 171.712C89.2328 169.895 94.3237 168.958 99.4587 168.946C107.098 168.958 114.599 170.984 121.206 174.819C119.603 179.115 118.051 183.605 116.551 188.289C113.796 196.917 111.589 205.172 109.811 212.978C109.558 222.257 111.766 231.438 116.211 239.588C113.381 242.106 110.228 244.236 106.836 245.922C101.505 248.547 95.6899 250.042 89.7543 250.313L86.1756 245.626C85.495 247.141 84.8143 248.655 84.1447 250.17C80.1606 249.253 76.4881 247.303 73.4962 244.517C74.2281 240.74 74.8795 236.734 75.4503 232.496C76.4115 224.993 76.8772 217.435 76.8445 209.871C75.7028 208.932 74.7139 207.821 73.9134 206.578C72.1976 203.788 71.4276 200.52 71.7179 197.258C73.2218 194.425 74.7148 191.538 76.2078 188.618C79.0839 182.902 81.8247 177.267 84.4301 171.712Z" fill="#F75284"/>
<path d="M119.438 173.831L121.634 175.017C125.042 189.263 127.39 203.742 128.659 218.335C129.799 231.476 130.06 244.679 129.439 257.855C127.812 258.404 126.084 258.59 124.377 258.4C122.67 258.211 121.026 257.65 119.559 256.757C118.784 243.99 117.318 231.273 115.168 218.664C113.477 208.718 111.446 199.42 109.262 190.814C110.48 188.41 111.82 185.929 113.313 183.382C115.365 179.924 117.462 176.74 119.438 173.831Z" fill="#275694"/>
<path d="M92.2134 157.463C92.6278 159.27 92.914 161.104 93.0696 162.952C93.3154 165.845 93.2455 168.757 92.8611 171.635C93.9362 172.013 95.0367 172.314 96.1544 172.536C99.7642 173.25 103.488 173.153 107.055 172.25L108.504 151.996L92.2134 157.463Z" fill="#F7A592"/>
<path d="M57.7321 252.761C57.174 253.817 56.7075 254.919 56.3379 256.055C55.755 257.534 55.5039 259.122 55.6024 260.709C55.7277 261.678 55.9902 262.624 56.3819 263.519C56.9088 264.914 57.776 267.23 58.6872 267.164C59.3019 267.164 59.6862 266.066 59.7191 265.924C59.876 265.278 59.876 264.604 59.7191 263.959C59.6093 263.135 59.5105 262.378 59.4117 261.686L60.9157 260.029C60.8648 260.517 60.8428 261.008 60.8498 261.5C60.8498 262.927 60.8498 264.793 61.6841 265.1C61.8598 265.155 62.0464 265.164 62.2267 265.128C62.407 265.091 62.5753 265.01 62.716 264.892C63.0673 264.562 63.0124 264.013 63.0234 263.552C63.1938 262.638 63.4361 261.739 63.7479 260.863C64.1967 259.407 64.7357 257.981 65.3617 256.592C64.7692 255.733 64.0252 254.989 63.1661 254.397C61.5537 253.332 59.6644 252.763 57.7321 252.761Z" fill="#FCC3AB"/>
<path d="M87.2515 127.417C86.7758 131.647 86.3147 135.907 85.8683 140.195C85.4731 144.016 85.1072 147.814 84.7705 151.59C87.4492 155.861 91.2817 159.286 95.8251 161.47C101.848 159.981 107.271 156.687 111.37 152.029C111.611 150.514 111.82 148.901 111.941 147.199C112.264 142.734 112.032 138.247 111.249 133.839C107.711 129.727 102.807 127.029 97.4389 126.243C93.998 125.811 90.5039 126.214 87.2515 127.417Z" fill="#FCC3AB"/>
<path d="M93.1683 165.642L89.4907 170.033C89.2951 170.881 89.2922 171.762 89.4821 172.611C89.6721 173.46 90.0502 174.256 90.5885 174.94C91.1117 175.545 91.7751 176.012 92.5206 176.301L96.0555 172.448L98.6901 177.322C101.161 177.198 103.567 176.492 105.713 175.261C107.859 174.031 109.684 172.311 111.04 170.242L107.637 165.082C106.107 166.356 104.421 167.429 102.62 168.277C100.621 169.207 98.4991 169.846 96.3189 170.176C95.5055 169.679 94.8082 169.013 94.2741 168.223C93.7401 167.433 93.3817 166.538 93.2232 165.598L93.1683 165.642Z" fill="#C23961"/>
<path d="M90.3581 127.988C90.9476 129.001 91.6002 129.976 92.3122 130.908C94.3274 133.471 96.7849 135.654 99.5685 137.352C100.974 138.219 102.862 139.218 107.966 140.799C112.537 142.223 117.194 143.352 121.908 144.18C122.435 142.061 123.829 135.398 120.251 129.097C115.728 121.171 105.123 117.131 94.2113 119.798C91.9865 119.898 89.8663 120.771 88.2175 122.268C87.4161 123.048 86.3842 124.354 85.5279 127.856C84.5956 131.785 84.4575 135.861 85.1217 139.844C85.7673 137.805 86.526 135.804 87.3941 133.85C88.2738 131.843 89.2633 129.886 90.3581 127.988Z" fill="#231F20"/>
<path d="M96.6045 403.08C96.6588 404.138 96.6331 405.199 96.5277 406.253C96.3588 407.993 95.9677 409.705 95.364 411.346H102.258C102.423 410.545 102.565 409.667 102.664 408.734C102.862 406.91 102.885 405.072 102.73 403.245L99.8978 402.531C99.5465 403.519 99.2062 404.507 98.8659 405.495C98.7671 404.485 98.6793 403.475 98.5805 402.465L96.6045 403.08Z" fill="#275694"/>
<path d="M110.953 170.187C107.273 173.876 104.015 177.963 101.237 182.372C83.8154 210.091 91.0388 242.223 94.0028 253.058C103.127 257.277 113.445 258.152 123.149 255.528L114.048 231.377C113.067 228.279 112.376 225.096 111.984 221.87C110.283 207.72 114.839 196.116 117.978 189.837C119.091 184.846 120.188 179.851 121.272 174.852C120.085 174.086 118.857 173.386 117.594 172.755C115.468 171.688 113.243 170.828 110.953 170.187Z" fill="#275694"/>
<path d="M118.801 256.362C118.801 256.483 116.606 256.966 112.215 257.054C105.837 257.16 99.478 256.324 93.344 254.573C93.2342 253.069 93.1354 251.565 93.0366 250.061C94.1636 251.024 95.3721 251.887 96.6483 252.641C106.814 258.602 118.79 256.055 118.801 256.362Z" fill="#275694"/>
<path d="M89.7983 169.704C86.2488 175.678 83.1659 181.917 80.5769 188.366C79.0071 192.263 77.7227 195.995 76.6469 199.53C76.9762 203.79 77.2506 208.129 77.4702 212.55C78.1069 225.295 78.2057 237.513 77.8874 249.128C77.1512 250.057 76.3196 250.907 75.4064 251.664C74.1503 252.681 72.7571 253.516 71.2678 254.145C71.8386 250.851 72.5412 246.23 73.134 240.708C73.639 236.009 74.089 231.926 74.1659 226.656C74.2476 221.058 73.9026 215.461 73.134 209.915C72.7296 208.763 72.3851 207.59 72.1021 206.402C71.3867 203.426 71.0401 200.373 71.0702 197.313C72.2887 194.7 73.5292 192.087 74.7916 189.453C77.719 183.342 80.6794 177.351 83.6727 171.482L89.7983 169.704Z" fill="#275694"/>
<path d="M77.9422 247.613C78.3998 248.545 78.7003 249.547 78.8314 250.577C78.9086 251.122 78.9343 251.673 78.9083 252.223C77.0628 253.036 75.0623 253.437 73.0461 253.398L77.4373 250.105C77.5141 249.314 77.7007 248.458 77.9422 247.613Z" fill="#275694"/>
<path d="M110.952 233.21L97.1093 234.659C97.0037 235.61 97.2119 236.57 97.7021 237.392C100.007 240.894 108.812 240.433 110.722 236.569C111.206 235.515 111.288 234.32 110.952 233.21Z" fill="#275694"/>
<path d="M97.9108 176.016L96.4068 176.729L97.1533 181.965L94.2772 182.514V177.366L90.7643 181.691L89.3372 178.859L92.7622 176.016L96.0007 172.492L97.9108 176.016Z" fill="#A9E7FC"/>
<path d="M120.064 256.055C119.812 256.703 119.504 257.327 119.142 257.921C118.559 258.68 118.038 259.484 117.583 260.325C117.232 261.192 117.506 261.258 117.232 262.521C116.727 264.804 115.519 265.814 116.046 266.429C116.176 266.567 116.338 266.673 116.518 266.736C116.697 266.799 116.89 266.818 117.078 266.791C117.825 266.681 117.978 265.693 118.867 264.595C119.325 264.034 119.865 263.545 120.47 263.146C120.719 263.85 120.805 264.6 120.723 265.342C120.673 265.803 120.555 266.255 120.371 266.681C120.001 266.716 119.648 266.853 119.35 267.076C119.112 267.277 118.925 267.533 118.806 267.822C118.688 268.11 118.641 268.423 118.67 268.734C118.836 269.009 119.019 269.273 119.219 269.524C119.592 269.986 119.779 270.216 119.987 270.282C120.459 270.425 121.085 269.909 121.678 269.107C122.183 268.954 122.776 268.767 123.28 268.547C124.158 268.19 125.003 267.757 125.805 267.252C126.525 266.284 127.132 265.238 127.617 264.134C128.578 261.932 129.04 259.544 128.967 257.142C126.257 255.627 123.061 255.233 120.064 256.044V256.055Z" fill="#FCC3AB"/>
<path d="M119.175 255.923C118.813 254.408 118.406 252.86 117.945 251.268C117.155 248.524 116.299 245.955 115.409 243.584L117.418 241.136L118.648 243.145L119.175 255.923Z" fill="#275694"/>
<path d="M364.868 407.449C364.817 408.67 365.019 409.889 365.461 411.028C365.922 412.181 366.318 412.411 366.263 413.015C366.12 414.53 363.386 415.99 360.894 415.792C359.215 415.661 357.008 414.695 356.503 413.015C356.405 412.675 356.328 412.137 357.096 409.831C357.55 408.477 358.081 407.15 358.688 405.857L364.868 407.449Z" fill="#275694"/>
<path d="M419.351 403.783L420.24 406.758C421.338 407.109 422.809 407.57 424.631 408.053C430.724 409.678 434.094 409.875 434.072 410.249C434.05 410.622 427.65 411.138 420.767 410.545C417.766 410.292 414.782 409.863 411.831 409.261L411.7 402.235L419.351 403.783Z" fill="#275694"/>
<path d="M407.781 171.899C410.371 185.764 413.566 200.441 417.507 215.711C421.086 229.609 424.939 242.728 428.924 255.045C427.367 257.041 425.254 258.531 422.85 259.327C420.447 260.122 417.861 260.187 415.421 259.513C411.03 246.442 406.639 233.364 402.248 220.278L407.781 171.899Z" fill="#C23961"/>
<path d="M413.544 256.472C414.927 273.531 416.131 290.957 417.155 308.748C419.044 342.464 420.105 375.079 420.339 406.593C418.972 407.302 417.46 407.688 415.92 407.72C414.38 407.752 412.854 407.431 411.458 406.779C403.832 361.456 396.217 316.154 388.613 270.875C390.077 266.352 391.5 261.825 392.884 257.295L413.544 256.472Z" fill="#275694"/>
<path d="M368.656 255.638C367.368 267.12 366.175 278.728 365.077 290.459C361.301 330.521 358.717 369.433 357.327 407.197C358.594 408.283 360.142 408.989 361.793 409.234C363.444 409.478 365.13 409.252 366.658 408.58L397.253 257.295L368.656 255.638Z" fill="#275694"/>
<path d="M344.384 256.274C344.23 258.81 344.033 260.852 343.868 262.29C343.571 264.991 343.286 266.604 344.296 267.779C344.722 268.262 345.279 268.613 345.899 268.789C346.81 269.913 348.014 270.764 349.379 271.248C349.456 271.933 349.686 272.592 350.051 273.177C350.415 273.762 350.906 274.258 351.486 274.629C353.836 275.869 357.162 273.992 357.25 272.686C357.212 272.359 357.091 272.047 356.899 271.78C356.707 271.513 356.45 271.3 356.152 271.16C355.416 270.787 354.89 271.16 354.538 270.908C354.187 270.655 353.978 269.228 355.68 264.837C355.858 265.715 356.204 266.55 356.701 267.296C357.272 268.163 357.799 269.041 358.896 269.239C359.373 269.345 359.87 269.304 360.323 269.122C360.775 268.94 361.162 268.624 361.432 268.218C361.784 267.471 361.169 266.835 360.51 265.089C359.852 263.344 360.104 262.894 359.412 260.182C359.039 258.736 358.558 257.32 357.974 255.945L344.384 256.274Z" fill="#FCC3AB"/>
<path d="M356.778 166.805C358.351 179.247 359.863 191.776 361.312 204.393C363.441 222.887 365.384 241.161 367.141 259.216C374.353 259.92 381.598 260.239 388.844 260.171C397.175 260.092 405.493 259.505 413.752 258.415C413.873 248.535 413.752 238.183 413.226 227.435C412.365 208.84 410.533 190.303 407.737 171.899C402.333 169.449 396.674 167.609 390.864 166.41C379.6 164.148 367.986 164.282 356.778 166.805Z" fill="#F75284"/>
<path d="M356.778 166.805C346.418 195.625 342.051 226.256 343.945 256.823C346.354 257.968 348.966 258.625 351.63 258.755C354.295 258.885 356.958 258.486 359.467 257.58C358.124 233.842 361.264 210.063 368.722 187.487C367.247 179.421 363.027 172.114 356.778 166.805Z" fill="#F75284"/>
<path d="M376.285 140.634C375.989 139.46 375.714 138.252 375.451 137.012C374.508 132.544 373.899 128.012 373.629 123.454L379.765 116.692C382.755 114.103 386.602 112.721 390.556 112.817C396.605 113.102 402.094 117.208 404.619 123.388C405.073 127.404 404.802 131.468 403.818 135.387C403.307 137.391 402.608 139.343 401.732 141.216L376.285 140.634Z" fill="#231F20"/>
<path d="M378.953 148.615C378.865 149.966 378.722 151.371 378.514 152.831C377.907 157.147 376.828 161.385 375.297 165.466L389.107 173.008L395.123 169.791C394.781 167.462 394.634 165.108 394.684 162.755C394.749 159.645 395.162 156.552 395.914 153.533L378.953 148.615Z" fill="#F7A592"/>
<path d="M376.417 148.89C379.27 153.401 383.506 156.867 388.493 158.77C393.545 157.536 398.025 154.616 401.194 150.492C401.691 141.776 402.189 133.056 402.687 124.332C400.751 122.488 398.446 121.074 395.925 120.183C386.692 116.966 378.184 122.378 376.878 123.268L376.417 148.89Z" fill="#FCC3AB"/>
<path d="M377.35 140.865C377.285 140.215 377.048 139.594 376.661 139.067C376.275 138.54 375.755 138.126 375.155 137.868C374.4 137.589 373.575 137.57 372.809 137.815C372.043 138.06 371.381 138.554 370.928 139.218C369.633 141.271 371.367 144.872 373.958 145.805C375.06 146.144 376.246 146.082 377.306 145.629L377.35 140.865Z" fill="#FCC3AB"/>
<path d="M399.525 141.886C399.61 141.159 399.922 140.478 400.418 139.941C400.914 139.403 401.568 139.037 402.285 138.894C403.002 138.751 403.747 138.84 404.41 139.147C405.074 139.453 405.624 139.963 405.98 140.601C407.155 142.72 405.223 146.222 402.577 146.979C401.469 147.244 400.304 147.112 399.284 146.606C399.339 145.014 399.426 143.434 399.525 141.886Z" fill="#FCC3AB"/>
<path d="M403.422 129.426C402.742 128.745 402.028 127.966 401.315 127.099C400.194 125.727 399.198 124.257 398.34 122.708C396.078 123.937 393.773 125.163 391.424 126.385C385.847 129.313 380.376 131.988 375.012 134.41C375.155 130.524 375.308 126.638 375.451 122.752C378.675 120.087 382.588 118.389 386.736 117.855C392.815 117.246 398.888 119.074 403.62 122.938L403.422 129.426Z" fill="#231F20"/>
<path d="M391.182 173.59L394.069 170.823L392.576 168.046L388.8 168.836L383.64 167.947L381.873 170.362L386.209 173.195L387.801 219.301L397.604 229.324L402.731 218.346C398.881 203.446 395.032 188.527 391.182 173.59Z" fill="#A9E7FC"/>
<path d="M362.684 210.947C366.502 204.557 368.107 197.088 367.251 189.694C365.721 196.778 364.199 203.862 362.684 210.947Z" fill="#C23961"/>
<path d="M428.397 254.957C428.915 256.667 429.283 258.419 429.495 260.194C429.936 262.482 429.868 264.839 429.297 267.099C428.88 268.472 428.238 269.766 427.398 270.93C426.3 272.434 425.038 274.278 423.512 274.113C423.03 274.038 422.582 273.818 422.227 273.483C421.872 273.148 421.628 272.713 421.525 272.236C421.382 271.303 422.183 270.787 422.919 269.437C423.534 268.286 423.876 267.009 423.918 265.704L421.821 264.672C421.744 265.156 421.635 265.902 421.525 266.868C421.239 269.184 421.327 269.733 420.822 270.161C420.364 270.441 419.83 270.573 419.294 270.539C418.758 270.506 418.246 270.309 417.825 269.975C417.123 269.349 417.474 268.613 417.232 266.143C417.046 264.233 416.793 264.135 416.53 261.84C416.376 260.457 416.343 259.315 416.332 258.547C417.412 257.507 418.659 256.658 420.021 256.033C422.645 254.853 425.56 254.479 428.397 254.957Z" fill="#FCC3AB"/>
<path d="M394.86 161.755C393.345 163.457 391.819 165.148 390.293 166.849L393.411 174.995L398.307 167.716L394.86 161.755Z" fill="#C23961"/>
<path d="M386.418 166.849C385.573 169.703 384.716 172.547 383.871 175.39L372.75 164.533C374.156 162.897 375.572 161.239 376.988 159.637L386.418 166.849Z" fill="#C23961"/>
<path d="M170.441 408.02C170.2 409.043 169.831 410.031 169.343 410.962C168.619 412.311 167.668 413.525 166.533 414.552C168.95 416.14 171.851 416.82 174.722 416.473C176.274 416.258 177.767 415.736 179.113 414.936C178.63 412.675 178.155 410.413 177.686 408.152L170.441 408.02Z" fill="#275694"/>
<path d="M136.959 405.836L136.004 409.03C134.906 409.403 133.248 409.897 131.305 410.413C124.719 412.17 121.162 412.378 121.184 412.763C121.206 413.147 128.078 413.718 135.455 413.081C138.677 412.809 141.881 412.347 145.049 411.698C145.093 409.187 145.141 406.677 145.192 404.167L136.959 405.836Z" fill="#275694"/>
<path d="M143.205 247.657C141.741 265.953 140.461 284.648 139.363 303.742C137.343 339.94 136.205 374.959 135.949 408.8C137.414 409.566 139.037 409.982 140.69 410.016C142.343 410.05 143.982 409.702 145.478 408.997C152.855 359.597 160.228 310.197 167.598 260.797C166.866 256.713 166.134 252.626 165.402 248.535L143.205 247.657Z" fill="#275694"/>
<path d="M192.627 247.207C192.02 259.604 191.306 272.111 190.486 284.729C187.676 327.835 183.797 369.525 178.85 409.798C177.412 410.675 175.769 411.156 174.086 411.193C172.184 411.228 170.314 410.705 168.706 409.689L162.021 244.089L192.627 247.207Z" fill="#275694"/>
<path d="M156.894 205.359C154.258 206.984 151.435 208.281 148.485 209.224C141.676 211.357 134.422 211.648 127.463 210.069C129.022 203.087 130.756 197.368 132.085 193.251C138.605 173.414 144.16 168.595 146.048 162.722C146.466 161.247 147.352 159.949 148.573 159.022C149.351 158.489 150.241 158.143 151.175 158.012C151.362 161.141 151.581 164.302 151.856 167.508C152.964 180.846 154.71 193.481 156.894 205.359Z" fill="#69C3E0"/>
<path d="M197.94 152.457C199.045 166.157 199.411 179.907 199.038 193.646C198.472 213.399 196.38 233.078 192.781 252.509C176.113 254.139 159.314 253.855 142.711 251.663C142.579 241.048 142.711 229.938 143.282 218.401C144.201 198.434 146.169 178.53 149.177 158.77C154.827 155.361 160.992 152.891 167.433 151.458C177.528 149.257 188.011 149.601 197.94 152.457Z" fill="#A9E7FC"/>
<path d="M182.956 125.188C183.688 124.515 184.445 123.834 185.228 123.147C187.105 121.434 188.895 119.721 190.596 118.031L185.393 108.568L185.821 106.746L179.234 99.4785C175.601 98.3807 171.725 96.9975 167.653 95.3179C164.689 94.0993 161.922 92.8369 159.342 91.5635C158.169 92.558 157.093 93.6607 156.126 94.8568C153.866 97.6731 152.228 100.935 151.318 104.429L152.558 106.625C152.422 108.376 152.139 110.113 151.713 111.817C151.136 114.096 150.312 116.305 149.254 118.404C150.378 121.568 152.667 124.183 155.654 125.715L182.956 125.188Z" fill="#231F20"/>
<path d="M180.09 133.751C180.189 135.212 180.343 136.715 180.562 138.285C181.219 142.918 182.382 147.464 184.031 151.843L169.2 159.955L162.735 156.486C163.592 150.672 163.304 144.747 161.889 139.043L180.09 133.751Z" fill="#F7A592"/>
<path d="M182.824 134.048C179.758 138.874 175.208 142.576 169.859 144.597C166.754 143.84 163.826 142.482 161.242 140.601C159.342 139.224 157.652 137.579 156.225 135.716C155.683 126.349 155.149 116.985 154.622 107.624C156.704 105.649 159.175 104.131 161.878 103.167C171.758 99.7202 180.936 105.56 182.33 106.461L182.824 134.048Z" fill="#FCC3AB"/>
<path d="M181.825 125.419C181.89 124.728 182.138 124.067 182.543 123.504C182.948 122.941 183.496 122.495 184.13 122.214C184.94 121.91 185.829 121.887 186.654 122.15C187.478 122.413 188.19 122.946 188.675 123.663C190.069 125.858 188.203 129.733 185.382 130.688C184.201 131.054 182.929 130.988 181.792 130.502L181.825 125.419Z" fill="#FCC3AB"/>
<path d="M158.014 126.517C157.919 125.739 157.58 125.01 157.047 124.436C156.513 123.861 155.811 123.47 155.042 123.318C154.273 123.166 153.475 123.26 152.763 123.588C152.051 123.917 151.46 124.461 151.076 125.145C149.814 127.417 151.899 131.183 154.732 131.984C155.934 132.278 157.202 132.138 158.311 131.589L158.014 126.517Z" fill="#FCC3AB"/>
<path d="M153.832 113.157C154.567 112.422 155.325 111.587 156.093 110.654C157.288 109.184 158.357 107.616 159.288 105.967C161.896 106.272 164.47 106.827 166.972 107.624C173.568 109.783 179.532 113.531 184.339 118.536C184.174 114.365 184.021 110.193 183.856 106.032C180.411 103.17 176.223 101.346 171.78 100.774C165.25 100.128 158.731 102.102 153.656 106.263L153.832 113.157Z" fill="#231F20"/>
<path d="M166.972 160.548L163.876 157.584L165.468 154.598L169.519 155.454L175.074 154.488L176.962 157.079L172.351 160.153L170.628 209.696L160.111 220.465L154.622 208.664C158.72 192.629 162.837 176.59 166.972 160.548Z" fill="#F75284"/>
<path d="M163.02 147.869L167.927 153.358L164.579 162.14L159.321 154.313L163.02 147.869Z" fill="#69C3E0"/>
<path d="M172.088 153.336L174.821 162.513L186.765 150.855L182.209 145.585L172.088 153.336Z" fill="#69C3E0"/>
<path d="M164.129 204.174C166.722 207.809 169.923 210.97 173.592 213.516C179.315 217.439 185.972 219.787 192.891 220.322C195.086 214.101 197.282 207.88 199.477 201.66L164.129 204.174Z" fill="#69C3E0"/>
<path d="M140.164 191.56C142.074 191.889 144.105 192.296 146.213 192.822C147.486 193.141 148.705 193.481 149.88 193.832C151.482 195.296 153.206 196.811 155.05 198.377C157.246 200.189 159.375 201.846 161.439 203.339C158.426 205.765 155.012 207.645 151.351 208.894C146.251 210.607 140.814 211.066 135.499 210.233C134.393 205.776 134.778 201.079 136.597 196.862C137.496 194.916 138.7 193.126 140.164 191.56Z" fill="#69C3E0"/>
<path d="M139.154 191.055C139.619 189.327 140.545 187.757 141.833 186.514C143.12 185.27 144.722 184.4 146.465 183.996C148.619 183.592 150.845 183.904 152.806 184.883C154.766 185.862 156.352 187.455 157.323 189.419L149.375 194.842L139.154 191.055Z" fill="#FCC3AB"/>
<path d="M196.041 151.996C194.329 159.249 192.477 166.651 190.486 174.204C188.606 181.347 186.673 188.325 184.69 195.139C174.135 193.884 163.91 190.66 154.545 185.632C152.678 186.007 151.007 187.039 149.836 188.541C149.14 189.498 148.659 190.593 148.426 191.753C148.193 192.912 148.213 194.108 148.485 195.259C152.937 199.568 157.913 203.3 163.294 206.369C172.436 211.553 182.556 214.775 193.011 215.832C198.371 208.524 202.385 200.32 204.867 191.604C206.854 184.578 212.705 163.874 202.858 155.278C200.899 153.627 198.554 152.498 196.041 151.996Z" fill="#A9E7FC"/>
<path d="M172.208 193.075C171.901 190.66 176.984 188.102 179.015 187.279C181.737 186.191 184.699 185.843 187.599 186.269C189.312 189.925 189.487 193.866 187.599 196.149C183.724 200.672 172.626 196.467 172.208 193.075Z" fill="#FCC3AB"/>
<path d="M186.842 185.797C186.593 183.44 186.678 181.06 187.094 178.727C187.933 174.263 189.932 170.098 192.891 166.652C190.907 172.997 188.891 179.379 186.842 185.797Z" fill="#69C3E0"/>
<path d="M333.165 121.522C334.591 122.688 335.834 124.061 336.853 125.595C338.408 127.954 339.409 130.633 339.784 133.433C339.027 135.98 338.149 138.637 337.139 141.381C335.164 146.657 332.831 151.792 330.157 156.75C331.252 158.311 332.218 159.96 333.044 161.679C334.896 165.556 336.03 169.736 336.392 174.018C337.778 174.228 339.106 174.719 340.296 175.461C341.485 176.203 342.51 177.18 343.308 178.332C344.523 180.473 344.895 182.99 344.351 185.391C342.617 194.47 328.982 200.343 318.004 201.627C314.306 202.073 310.558 201.872 306.928 201.034C295.302 198.334 288.716 189.749 286.718 186.895C286.027 184.622 285.582 182.281 285.389 179.913C285.052 175.695 285.502 171.451 286.718 167.398C286.213 164.917 285.73 162.392 285.269 159.824C284.346 154.701 283.545 149.684 282.865 144.773C285.228 138.553 288.563 132.747 292.744 127.571C298.881 118.02 309.112 112.718 318.97 114.09C324.389 114.942 329.377 117.554 333.165 121.522Z" fill="#231F20"/>
<path d="M323.976 212.726C326.638 214.473 329.546 215.813 332.605 216.7C344.999 220.245 355.911 214.987 359.314 213.165C357.737 207.39 355.582 201.788 352.881 196.446C345.778 182.427 336.853 174.27 335.108 169.001C334.677 167.488 333.768 166.156 332.517 165.203C331.716 164.655 330.799 164.302 329.838 164.171C329.655 167.376 329.428 170.622 329.158 173.908C328.016 187.597 326.216 200.551 323.976 212.726Z" fill="#69C3E0"/>
<path d="M321.089 404.255C321.247 405.236 321.49 406.202 321.814 407.142C322.568 409.313 323.739 411.315 325.261 413.037H316.698C315.707 412.103 315.099 410.834 314.992 409.477C314.884 408.12 315.285 406.771 316.116 405.693C316.749 405.043 317.541 404.569 318.412 404.316C319.284 404.064 320.207 404.043 321.089 404.255Z" fill="#275694"/>
<path d="M318.048 320.824C317.58 325.215 317.144 329.632 316.742 334.074C314.546 358.73 313.679 382.442 313.877 405.078C314.197 405.708 314.681 406.24 315.277 406.619C315.873 406.999 316.56 407.211 317.267 407.235C317.973 407.258 318.672 407.092 319.293 406.753C319.913 406.414 320.431 405.916 320.793 405.309C322.351 398.18 323.885 391.001 325.392 383.77C329.454 364.325 333.198 345.147 336.623 326.236L318.048 320.824Z" fill="#F7A592"/>
<path d="M303.876 325.698C303.689 328.245 303.536 330.857 303.437 333.514C303.437 333.514 303.25 338.3 303.261 343.087C303.261 349.322 306.203 374.922 313.317 409.195C313.609 409.888 314.138 410.455 314.81 410.793C315.482 411.131 316.253 411.218 316.983 411.039C317.508 410.864 317.976 410.55 318.337 410.13C318.699 409.711 318.94 409.202 319.036 408.657C319.38 401.229 319.688 393.749 319.958 386.218C320.69 366.261 321.206 346.574 321.506 327.158L303.876 325.698Z" fill="#FCC3AB"/>
<path d="M341.409 235.405C342.587 240.393 343.504 245.438 344.153 250.522C346.349 267.823 344.9 281.128 343.319 294.883C341.815 307.89 339.457 320.783 336.26 333.481C328.632 336.386 320.317 336.985 312.351 335.204C308.057 334.207 303.957 332.504 300.22 330.165C299.122 323.392 297.575 313.798 296.191 302.227C292.602 272.334 293.831 263.355 294.457 259.6C296.098 250.021 299.326 240.782 304.008 232.266L341.409 235.405Z" fill="#275694"/>
<path d="M332.023 165.06C327.001 163.165 321.681 162.183 316.314 162.162C308.324 162.182 300.48 164.302 293.568 168.309C295.247 172.799 296.861 177.487 298.442 182.383C301.329 191.406 303.634 200.046 305.49 208.191C305.754 217.881 303.447 227.467 298.804 235.976C306.455 242.79 316.222 246.756 326.457 247.206C327.709 245.582 328.949 243.913 330.201 242.31C330.903 243.902 331.617 245.483 332.319 247.064C336.487 246.115 340.328 244.077 343.451 241.158C342.66 237.206 341.969 233.012 341.409 228.588C340.415 220.746 339.931 212.847 339.96 204.942C341.159 203.97 342.196 202.814 343.034 201.517C344.849 198.607 345.669 195.186 345.372 191.769C343.806 188.841 342.243 185.833 340.684 182.745C337.633 176.729 334.745 170.834 332.023 165.06Z" fill="#A9E7FC"/>
<path d="M337.83 199.607C335.447 200.534 332.964 201.179 330.431 201.528C324.485 202.33 318.432 201.573 312.867 199.332C310.517 193.368 308.161 187.403 305.797 181.438L311.286 204.426C314.627 205.377 318.106 205.749 321.572 205.524C327.44 205.118 333.074 203.067 337.83 199.607Z" fill="#69C3E0"/>
<path d="M323.899 150.163C323.468 152.054 323.168 153.972 322.999 155.904C322.74 158.926 322.813 161.967 323.219 164.972C322.104 165.37 320.964 165.689 319.805 165.927C316.034 166.67 312.146 166.565 308.421 165.62L306.906 144.455L323.899 150.163Z" fill="#F7A592"/>
<path d="M329.07 118.755C329.56 123.147 330.043 127.596 330.519 132.104C330.936 136.1 331.335 140.074 331.716 144.026C330.84 145.439 329.833 146.766 328.708 147.989C326.29 150.637 323.392 152.802 320.167 154.367C317.165 153.631 314.288 152.458 311.626 150.887C308.748 149.175 306.155 147.023 303.942 144.509C303.678 142.929 303.47 141.216 303.338 139.449C303.002 134.786 303.245 130.099 304.062 125.496C307.762 121.19 312.892 118.368 318.509 117.548C322.075 117.1 325.697 117.514 329.07 118.755Z" fill="#FCC3AB"/>
<path d="M322.889 158.704L326.732 163.348C326.943 164.232 326.954 165.152 326.764 166.04C326.574 166.929 326.188 167.765 325.634 168.485C325.083 169.111 324.39 169.597 323.614 169.901L319.914 165.872C318.992 167.574 318.07 169.265 317.159 170.966C314.469 170.824 311.854 170.029 309.54 168.65C307.415 167.378 305.605 165.64 304.249 163.567C305.435 161.767 306.624 159.966 307.817 158.166C309.411 159.488 311.171 160.595 313.053 161.459C315.142 162.431 317.361 163.097 319.64 163.435C320.493 162.918 321.223 162.222 321.782 161.396C322.341 160.57 322.715 159.633 322.878 158.649L322.889 158.704Z" fill="#69C3E0"/>
<path d="M325.82 119.359C325.202 120.403 324.52 121.407 323.779 122.367C321.674 125.047 319.105 127.327 316.193 129.097C313.466 130.739 310.504 131.956 307.411 132.708C301.81 134.047 295.955 133.881 290.439 132.225C290.203 128.426 290.996 124.634 292.733 121.248C297.465 112.235 309.2 107.339 322.45 108.733C327.939 108.733 330.135 110.193 331.002 111.62C331.869 113.047 331.584 114.046 332.319 117.109C332.804 119.136 333.488 121.111 334.361 123.004C333.189 123.094 332.01 122.971 330.881 122.642C328.907 122.072 327.145 120.93 325.82 119.359Z" fill="#231F20"/>
<path d="M319.289 406.933C319.133 409.871 319.574 412.81 320.584 415.573H313.383C313.192 414.67 313.049 413.757 312.954 412.839C312.75 410.95 312.725 409.047 312.878 407.153L315.831 406.352C316.193 407.383 316.555 408.415 316.928 409.447L317.225 406.286L319.289 406.933Z" fill="#275694"/>
<path d="M317.258 170.296L318.553 170.801C315.809 171.065 314.513 171.68 314.272 172.536C313.657 174.731 319.607 179.002 321.396 177.827C322.637 177.015 321.836 173.656 322.231 173.612C322.626 173.568 322.747 176.159 324.745 178.299C325.381 178.969 325.93 179.54 326.545 179.452C327.643 179.287 328.433 177.092 328.28 175.412C327.983 172.207 324.251 170.527 323.888 170.373C323.99 169.698 323.941 169.008 323.746 168.353C323.208 166.685 321.484 164.884 319.783 165.192C318.081 165.499 316.665 167.706 317.258 170.296Z" fill="#F75284"/>
<path d="M338.741 208.664C333.36 215.951 326.102 221.642 317.741 225.13C313.755 226.748 309.573 227.829 305.303 228.347L301.658 210.124L338.741 208.664Z" fill="#69C3E0"/>
<path d="M353.485 203.273C351.519 203.603 349.445 204.02 347.271 204.569C345.965 204.898 344.713 205.238 343.517 205.601C341.848 207.138 340.081 208.696 338.214 210.255C335.47 212.572 332.726 214.646 330.146 216.589C333.887 217.745 337.813 218.181 341.716 217.874C347.622 217.371 353.267 215.218 358.007 211.66L353.485 203.273Z" fill="#69C3E0"/>
<path d="M350.74 203.361C350.685 202.955 350.114 199.31 347.095 197.785C344.076 196.259 339.641 197.499 337.215 201.21L341.288 207.214L350.74 203.361Z" fill="#FCC3AB"/>
<path d="M302.515 164.939C303.364 178.69 306.63 192.183 312.164 204.799C321.243 204.461 330.179 202.429 338.511 198.805C339.918 199.457 341.11 200.497 341.947 201.802C343.054 203.595 343.446 205.739 343.045 207.807C332.092 216.636 318.533 221.606 304.469 221.947C300.655 215.941 297.494 209.545 295.039 202.867C291.273 192.636 285.159 175.873 292.404 168.452C294.204 166.63 297.179 164.994 302.515 164.939Z" fill="#A9E7FC"/>
<path d="M323.735 203.515C323.735 202.626 322 201.978 319.234 200.946C316.556 199.941 313.737 199.363 310.88 199.234C310.111 200.672 308.355 204.36 309.782 206.304C312.384 209.762 323.779 205.832 323.735 203.515Z" fill="#FCC3AB"/>
<path d="M259.482 199.893C262.424 201.698 265.571 203.146 268.857 204.207C275.816 206.399 283.205 206.862 290.384 205.557C290.118 199.051 289.033 192.604 287.157 186.368C285.268 180.122 282.974 175.687 278.66 166.981C276.201 162.019 272.776 155.542 268.264 148.121L261.403 145.333C262.221 149.298 262.829 153.303 263.225 157.332C264.58 171.628 263.311 186.052 259.482 199.893Z" fill="#275694"/>
<path d="M219.665 410.446C219.608 411.806 219.832 413.162 220.324 414.431C220.84 415.716 221.279 415.968 221.213 416.627C221.048 418.306 218.008 419.92 215.23 419.723C213.364 419.569 210.905 418.515 210.367 416.627C210.257 416.243 210.17 415.65 211.026 413.081C211.53 411.583 212.124 410.117 212.804 408.69L219.665 410.446Z" fill="#275694"/>
<path d="M280.383 406.362L281.371 409.656C282.568 410.04 284.237 410.556 286.246 411.094C293.03 412.916 296.784 413.136 296.762 413.531C296.762 414.102 289.605 414.519 281.931 413.86C278.587 413.576 275.262 413.096 271.975 412.422L271.832 404.606L280.383 406.362Z" fill="#275694"/>
<path d="M273.906 242.19C275.443 261.218 276.772 280.612 277.891 300.372C279.992 337.938 281.17 374.282 281.426 409.403C280.064 410.116 278.569 410.538 277.035 410.644C275.148 410.766 273.26 410.411 271.546 409.612L246.638 258.986L250.886 243.112L273.906 242.19Z" fill="#275694"/>
<path d="M223.881 241.268C222.417 254.068 221.089 267.003 219.896 280.074C215.68 324.71 212.881 368.116 211.245 410.161C212.658 411.373 214.384 412.161 216.226 412.435C218.067 412.709 219.948 412.457 221.652 411.709C233.025 355.51 244.402 299.311 255.782 243.112L223.881 241.268Z" fill="#275694"/>
<path d="M211.871 142.237C213.071 156.091 214.356 170.062 215.724 184.15C217.759 204.803 219.925 225.171 222.223 245.253C239.225 250.254 257.349 249.944 274.17 244.364C274.584 232.849 274.386 221.321 273.577 209.827C272.787 198.674 271.755 192.537 269.746 172.723C268.648 162.14 267.924 153.5 267.452 147.935C255.246 142.578 242.073 139.772 228.744 139.69L211.871 142.237Z" fill="#F75284"/>
<path d="M235.364 121.994C235.265 123.498 235.1 125.068 234.87 126.693C234.196 131.509 232.992 136.236 231.28 140.788L246.649 149.197L253.356 145.607C252.475 139.57 252.774 133.418 254.234 127.494L235.364 121.994Z" fill="#F7A592"/>
<path d="M232.531 122.29C234.287 125.043 236.517 127.463 239.118 129.437C241.216 131.033 243.535 132.316 246.001 133.246C251.63 131.873 256.622 128.62 260.151 124.025C260.708 114.306 261.26 104.587 261.809 94.8678C259.646 92.8277 257.075 91.2678 254.267 90.29C243.981 86.7003 234.507 92.76 233.047 93.7261C232.872 103.226 232.7 112.747 232.531 122.29Z" fill="#FCC3AB"/>
<path d="M235.342 113.344C235.267 112.633 235.006 111.955 234.586 111.376C234.166 110.798 233.601 110.341 232.948 110.05C232.106 109.739 231.185 109.718 230.33 109.991C229.475 110.263 228.735 110.814 228.228 111.554C226.79 113.838 228.722 117.855 231.609 118.854C232.837 119.235 234.161 119.165 235.342 118.657V113.344Z" fill="#FCC3AB"/>
<path d="M259.438 110.895C260.028 110.731 260.653 110.741 261.237 110.924C261.821 111.108 262.34 111.456 262.731 111.927C264.553 114.002 263.181 118.514 260.536 119.612C259.738 119.912 258.868 119.958 258.044 119.744C256.792 115.122 257.648 111.598 259.438 110.895Z" fill="#FCC3AB"/>
<path d="M248.921 149.877L252.215 146.738L250.557 143.642L246.352 144.531L240.589 143.532C239.941 144.432 239.283 145.322 238.624 146.222L243.454 149.383L245.233 200.814L256.21 211.99L260.536 200.024C256.635 183.316 252.763 166.6 248.921 149.877Z" fill="#A9E7FC"/>
<path d="M270.141 238.918C259.607 240.599 248.888 240.773 238.306 239.434C238.13 242.508 237.965 245.582 237.79 248.656C248.818 250.718 260.169 250.264 270.997 247.327L270.141 238.918Z" fill="#275694"/>
<path d="M244.98 249.171L245.123 254.035C244.191 255.344 243.104 256.535 241.884 257.58C234.365 264.024 224.243 262.905 221.224 262.455L241.807 248.37L244.98 249.171Z" fill="#275694"/>
<path d="M228.448 139.69C235.093 160.463 239.642 181.848 242.027 203.526C243.834 220 244.388 236.588 243.685 253.146C240.661 256.392 236.967 258.941 232.859 260.617C228.751 262.293 224.328 263.055 219.896 262.85L214.758 175.577C213.485 164.599 212.208 153.651 210.927 142.731C213.462 141.905 216.052 141.255 218.677 140.788C221.897 140.149 225.166 139.781 228.448 139.69Z" fill="#275694"/>
<path d="M265.344 246.076C265.498 247.349 265.64 248.634 265.783 249.907L274.642 257.438L265.344 246.076Z" fill="#275694"/>
<path d="M256.54 143.851C258.962 166.333 261.271 188.995 263.467 211.836C264.682 224.482 265.86 237.081 267.002 249.632L277.057 259.644C276.662 244.692 275.905 229.126 274.686 213.011C272.951 190.089 270.481 168.364 267.517 147.934C265.551 146.794 263.477 145.849 261.326 145.113C259.763 144.577 258.163 144.155 256.54 143.851Z" fill="#275694"/>
<path d="M263.939 194.426C264.466 192.472 265.036 190.561 265.662 188.629C266.288 186.697 266.914 184.809 267.539 182.899V183.239L265.552 173.721C264.872 170.549 264.18 167.387 263.434 164.237L261.238 154.763L260.064 150.031L258.9 145.289C259.548 146.782 260.129 148.308 260.711 149.834C261.293 151.36 261.809 152.897 262.325 154.445C263.423 157.54 264.301 160.669 265.124 163.831C265.948 166.992 266.672 170.165 267.32 173.37C267.968 176.576 268.484 179.792 268.868 183.042V183.239L268.813 183.371C268.033 185.226 267.276 187.081 266.486 188.926C265.695 190.77 264.817 192.603 263.939 194.426Z" fill="#275694"/>
<path d="M240.26 196.193C238.738 195.349 237.272 194.411 235.869 193.383C234.452 192.378 233.106 191.277 231.84 190.089C231.203 189.508 230.577 188.893 229.973 188.278L229.073 187.334L228.601 186.818L228.195 186.324C227.097 184.996 226 183.634 224.979 182.284L224.825 182.087V181.834C224.715 178.475 224.682 175.094 224.616 171.724V166.674C224.616 164.983 224.616 163.304 224.715 161.613C224.847 158.243 225.143 154.884 225.451 151.535C225.758 148.187 226.219 144.839 226.779 141.513L226.483 151.601C226.362 154.949 226.373 158.309 226.307 161.657C226.241 165.005 226.384 168.364 226.428 171.713C226.472 175.061 226.494 178.409 226.428 181.768L226.263 181.318C227.284 182.701 228.305 184.085 229.293 185.49L229.677 186.017L230.05 186.478L230.874 187.455C231.423 188.102 231.971 188.728 232.586 189.354C233.772 190.572 234.99 191.769 236.264 192.911C237.537 194.052 238.898 195.128 240.26 196.193Z" fill="#275694"/>
<path d="M260.92 110.742C263.651 104.325 264.617 97.2943 263.719 90.3782C262.647 88.6701 261.224 87.2087 259.546 86.0904C257.868 84.9721 255.971 84.2223 253.982 83.8903C250.011 81.5576 245.302 80.82 240.808 81.8265C237.18 82.6942 233.916 84.6794 231.477 87.502C229.774 93.4347 229.582 99.6991 230.918 105.725C231.32 107.489 231.863 109.218 232.542 110.896C233.128 107.858 233.717 104.807 234.31 101.74C234.807 99.2226 235.298 96.716 235.781 94.2204C237.728 95.3261 239.766 96.2626 241.873 97.0197C247.122 98.8795 252.699 99.6272 258.252 99.2153C258.675 100.125 259.041 101.06 259.35 102.015C260.339 104.82 260.87 107.767 260.92 110.742Z" fill="#231F20"/>
<path d="M253.093 136.639L247.999 142.314C249.152 145.344 250.304 148.363 251.468 151.393C253.283 148.678 255.113 145.973 256.957 143.28L253.093 136.639Z" fill="#C23961"/>
<path d="M243.707 142.314C242.755 145.49 241.807 148.663 240.863 151.831L228.448 139.69C230.021 137.868 231.594 136.038 233.168 134.201L243.707 142.314Z" fill="#C23961"/>
<path d="M246.188 200.584C243.413 205.223 239.604 209.159 235.059 212.085C230.514 215.012 225.355 216.85 219.984 217.457C218.132 212.07 216.281 206.677 214.429 201.276L246.188 200.584Z" fill="#275694"/>
<path d="M278.144 184.501C276.014 184.864 273.753 185.325 271.393 185.907C269.977 186.269 268.615 186.642 267.309 187.004C265.52 188.662 263.598 190.364 261.546 192.065C259.109 194.096 256.715 195.929 254.41 197.554C257.813 200.215 261.609 202.33 265.662 203.822C271.772 206.012 278.305 206.764 284.753 206.018C285.348 200.675 284.439 195.272 282.129 190.418C281.069 188.278 279.729 186.289 278.144 184.501Z" fill="#275694"/>
<path d="M279.275 183.942C278.753 182.012 277.718 180.26 276.28 178.872C274.842 177.484 273.054 176.512 271.107 176.06C268.71 175.616 266.234 175.967 264.055 177.058C261.875 178.15 260.112 179.923 259.032 182.108L267.902 188.157L279.275 183.942Z" fill="#FCC3AB"/>
<path d="M219.984 141.107C220.95 148.846 222.179 156.948 223.683 165.378C225.143 173.469 226.768 181.186 228.481 188.498C240.253 187.093 251.658 183.496 262.105 177.893C264.189 178.31 266.054 179.459 267.364 181.132C268.14 182.199 268.676 183.422 268.934 184.717C269.191 186.011 269.165 187.346 268.857 188.629C263.902 193.423 258.371 197.583 252.39 201.012C242.191 206.793 230.901 210.39 219.237 211.573C213.261 203.423 208.782 194.275 206.009 184.557C204.022 177.52 197.04 152.721 208.259 144.027C212.146 141.008 217.075 140.909 219.984 141.107Z" fill="#275694"/>
<path d="M242.411 186.192C242.752 183.492 237.076 180.637 234.815 179.715C231.775 178.518 228.474 178.139 225.242 178.618C223.332 182.701 223.134 187.092 225.242 189.595C229.556 194.667 241.939 189.969 242.411 186.192Z" fill="#FCC3AB"/>
<path d="M262.907 202.67C263.909 203.772 265.011 204.779 266.2 205.678C268.617 207.474 271.339 208.817 274.236 209.641L273.808 205.678L262.907 202.67Z" fill="#275694"/>
<path d="M268.956 188.53C267.572 189.946 266.014 191.439 264.246 192.921C261.652 195.098 258.892 197.069 255.991 198.816C256.812 199.472 257.67 200.08 258.56 200.639C260.088 201.583 261.706 202.374 263.39 202.999C262.962 201.704 262.534 200.419 262.094 199.135C264.349 195.6 266.636 192.065 268.956 188.53Z" fill="#275694"/>
<path d="M225.934 168.386C224.01 162.993 221.263 157.931 217.788 153.379C220.533 161.13 223.284 168.88 226.043 176.63C225.999 173.886 225.967 171.13 225.934 168.386Z" fill="#275694"/>
</svg>
