<svg width="530" height="386" viewBox="0 0 530 386" fill="none" xmlns="http://www.w3.org/2000/svg">
<path d="M503.855 382H36.8546C31.132 381.987 25.5715 380.099 21.0253 376.623C16.4791 373.148 13.198 368.277 11.6851 362.758C-15.2017 266.314 40.2889 83.1168 155.175 95.6075C238.258 104.64 272.366 161.025 359.166 194.733C447.753 229.124 517.169 262.809 529.754 352.337C530.265 356.035 529.978 359.799 528.91 363.376C527.842 366.953 526.019 370.259 523.564 373.07C521.109 375.882 518.079 378.134 514.679 379.675C511.279 381.215 507.588 382.008 503.855 382Z" fill="#CBDBEC"/>
<path d="M264.292 17.9538C264.292 18.9074 264.674 19.8219 265.354 20.4962C266.034 21.1705 266.956 21.5493 267.917 21.5493C274.627 21.5555 281.06 24.2017 285.805 28.9072C290.55 33.6126 293.218 39.9928 293.224 46.6474C293.298 47.5479 293.71 48.388 294.38 49.0006C295.049 49.6132 295.927 49.9533 296.838 49.9533C297.749 49.9533 298.626 49.6132 299.296 49.0006C299.966 48.388 300.378 47.5479 300.451 46.6474C300.439 38.0938 297.007 29.8941 290.909 23.8458C284.81 17.7975 276.542 14.3941 267.917 14.3817C267.442 14.3787 266.971 14.4688 266.532 14.6469C266.092 14.8251 265.692 15.0877 265.355 15.4197C265.018 15.7517 264.751 16.1465 264.568 16.5815C264.386 17.0164 264.292 17.4828 264.292 17.9538ZM267.917 28.6935C272.71 28.6997 277.306 30.5908 280.695 33.9521C284.084 37.3133 285.991 41.8704 285.997 46.624C285.924 47.5245 285.511 48.3646 284.842 48.9772C284.172 49.5898 283.294 49.93 282.383 49.93C281.473 49.93 280.595 49.5898 279.925 48.9772C279.256 48.3646 278.843 47.5245 278.77 46.624C278.764 43.7714 277.618 41.0374 275.584 39.0202C273.55 37.0031 270.794 35.8672 267.917 35.861C267.418 35.901 266.916 35.838 266.443 35.6761C265.97 35.5141 265.535 35.2567 265.167 34.92C264.799 34.5833 264.506 34.1747 264.305 33.7198C264.104 33.265 264 32.7738 264 32.2773C264 31.7807 264.104 31.2895 264.305 30.8347C264.506 30.3798 264.799 29.9712 265.167 29.6345C265.535 29.2978 265.97 29.0404 266.443 28.8784C266.916 28.7165 267.418 28.6535 267.917 28.6935ZM267.917 0C280.404 0 292.38 4.91954 301.21 13.6764C310.04 22.4332 315 34.31 315 46.694C314.927 47.5945 314.514 48.4347 313.845 49.0473C313.175 49.6598 312.297 50 311.386 50C310.475 50 309.598 49.6598 308.928 49.0473C308.259 48.4347 307.846 47.5945 307.773 46.694C307.76 36.2373 303.568 26.2122 296.115 18.816C288.661 11.4198 278.555 7.25609 268.011 7.23756C267.512 7.27754 267.01 7.21455 266.537 7.05259C266.064 6.89063 265.629 6.63322 265.261 6.29653C264.893 5.95984 264.6 5.55121 264.399 5.09637C264.198 4.64153 264.094 4.15034 264.094 3.65378C264.094 3.15722 264.198 2.66606 264.399 2.21123C264.6 1.75639 264.893 1.34775 265.261 1.01107C265.629 0.674379 266.064 0.416927 266.537 0.254966C267.01 0.0930056 267.512 0.030057 268.011 0.0700382L267.917 0Z" fill="#CBDBEC"/>
<path d="M32.9956 120C33.2229 119.999 33.4412 119.91 33.6044 119.752L41.7658 111.591C41.9163 111.428 42 111.215 42 110.993C42 110.772 41.9163 110.558 41.7658 110.396L33.6044 102.234C33.4418 102.084 33.2284 102 33.0069 102C32.7853 102 32.5719 102.084 32.4094 102.234L24.248 110.396C24.0897 110.559 24.0009 110.777 24 111.004C23.9997 111.114 24.0215 111.222 24.0641 111.323C24.1067 111.423 24.1693 111.515 24.248 111.591L32.4094 119.752C32.4854 119.831 32.5764 119.893 32.6772 119.936C32.7779 119.978 32.8862 120 32.9956 120ZM39.9622 110.982L32.9956 117.926L26.0291 110.982L32.9956 104.015L39.9622 110.982Z" fill="#CBDBEC"/>
<path d="M298.5 145C296.015 145 294 143.209 294 141C294 138.791 296.015 137 298.5 137C300.985 137 303 138.791 303 141C303 143.209 300.985 145 298.5 145Z" fill="#CBDBEC"/>
<path d="M479.317 231.692C480.197 232.535 481.332 233 482.506 233C483.681 233 484.815 232.535 485.695 231.692C486.106 231.29 486.434 230.799 486.659 230.25C486.884 229.702 487 229.109 487 228.509C487 227.909 486.884 227.316 486.659 226.768C486.434 226.22 486.106 225.729 485.695 225.327C484.82 224.473 483.684 224 482.506 224C481.328 224 480.192 224.473 479.317 225.327C478.903 225.727 478.571 226.217 478.344 226.765C478.117 227.314 478 227.908 478 228.509C478 229.11 478.117 229.705 478.344 230.253C478.571 230.802 478.903 231.292 479.317 231.692Z" fill="#CBDBEC"/>
<path d="M31.5 304C29.567 304 28 302.433 28 300.5C28 298.567 29.567 297 31.5 297C33.433 297 35 298.567 35 300.5C35 302.433 33.433 304 31.5 304Z" fill="white"/>
<path d="M325.498 113C325.624 113.002 325.749 112.982 325.865 112.939C325.982 112.896 326.089 112.833 326.179 112.751L335.705 104.603C335.798 104.529 335.872 104.437 335.923 104.334C335.974 104.231 336 104.119 336 104.005C336 103.892 335.974 103.78 335.923 103.676C335.872 103.573 335.798 103.481 335.705 103.407L326.179 95.2365C325.986 95.0839 325.74 95 325.486 95C325.232 95 324.987 95.0839 324.794 95.2365L315.267 103.407C315.183 103.483 315.115 103.574 315.069 103.675C315.023 103.776 315 103.885 315 103.994C315.001 104.222 315.097 104.44 315.267 104.603L324.794 112.774C324.992 112.925 325.242 113.005 325.498 113ZM333.615 103.971L325.498 110.946L317.357 103.971L325.498 96.9971L333.615 103.971Z" fill="#CBDBEC"/>
<g style="mix-blend-mode:multiply">
<path d="M315.267 112.33L324.794 103.262C324.987 103.093 325.232 103 325.486 103C325.74 103 325.986 103.093 326.179 103.262L335.705 112.33C335.798 112.412 335.872 112.514 335.923 112.628C335.974 112.743 336 112.867 336 112.993C336 113.119 335.974 113.244 335.923 113.358C335.872 113.473 335.798 113.575 335.705 113.657L326.179 122.724C326.089 122.814 325.982 122.885 325.865 122.932C325.749 122.98 325.624 123.003 325.498 123C325.239 122.999 324.988 122.901 324.794 122.724L315.267 113.657C315.183 113.573 315.115 113.472 315.069 113.36C315.023 113.248 315 113.127 315 113.006C315.001 112.753 315.097 112.511 315.267 112.33Z" fill="#CBDBEC"/>
</g>
<g style="mix-blend-mode:multiply">
<path d="M41.2479 255.396L49.4012 247.234C49.5636 247.084 49.7766 247 49.9979 247C50.2193 247 50.4325 247.084 50.5948 247.234L58.7482 255.396C58.8278 255.473 58.8912 255.566 58.9344 255.669C58.9777 255.771 59 255.882 59 255.993C59 256.104 58.9777 256.215 58.9344 256.317C58.8912 256.42 58.8278 256.513 58.7482 256.591L50.5948 264.752C50.519 264.831 50.4279 264.893 50.3273 264.936C50.2267 264.978 50.1185 265 50.0092 265C49.7821 264.999 49.5642 264.91 49.4012 264.752L41.2479 256.591C41.0898 256.427 41.0009 256.209 41 255.982C40.9997 255.872 41.0216 255.764 41.0642 255.663C41.1068 255.563 41.1692 255.472 41.2479 255.396Z" fill="#CBDBEC"/>
</g>
<path d="M50.0092 256C50.1185 256 50.2267 255.977 50.3273 255.932C50.4279 255.887 50.519 255.821 50.5948 255.738L58.7482 247.121C58.8278 247.039 58.8912 246.941 58.9344 246.833C58.9777 246.724 59 246.608 59 246.49C59 246.373 58.9777 246.256 58.9344 246.148C58.8912 246.04 58.8278 245.941 58.7482 245.859L50.5948 237.266C50.5172 237.182 50.4245 237.115 50.322 237.069C50.2194 237.024 50.1092 237 49.9979 237C49.8867 237 49.7766 237.024 49.6741 237.069C49.5716 237.115 49.4788 237.182 49.4012 237.266L41.2479 245.859C41.0898 246.032 41.0009 246.262 41 246.502C40.9997 246.618 41.0216 246.732 41.0642 246.838C41.1068 246.945 41.1692 247.041 41.2479 247.121L49.4012 255.738C49.5642 255.905 49.7821 255.999 50.0092 256ZM56.9689 246.478L50.0092 253.834L43.0497 246.478L50.0092 239.123L56.9689 246.478Z" fill="white"/>
<path d="M247 45H251.395C256.066 45.0064 260.544 46.9056 263.845 50.2806C267.146 53.6556 269 58.2303 269 63H259.312C259.293 59.0778 258.106 55.2543 255.906 52.0387C253.707 48.823 250.6 46.3678 247 45Z" fill="#2064BE"/>
<path d="M98 351.492V62.4849C98.021 58.6766 99.2033 54.9648 101.39 51.8419C103.576 48.719 106.664 46.3329 110.243 45H240.437C245.091 45 249.554 46.8414 252.847 50.1198C256.141 53.3982 257.994 57.8455 258 62.4849V351.492C257.994 356.133 256.141 360.583 252.849 363.865C249.557 367.147 245.093 368.994 240.437 369H110.243C106.66 367.666 103.57 365.276 101.383 362.148C99.1963 359.021 98.0163 355.304 98 351.492Z" fill="#321288"/>
<path d="M105.597 45H240.403C250.122 45 258 52.8382 258 62.5072V351.493C258 361.162 250.122 369 240.403 369H105.597C95.8784 369 88 361.162 88 351.493V62.5072C88 52.8382 95.8784 45 105.597 45Z" fill="url(#paint0_linear)"/>
<path d="M105.942 43H252.176C257.159 43.0309 261.929 45.016 265.452 48.5252C268.976 52.0344 270.969 56.7849 271 61.7475V352.134C271 357.118 269.021 361.898 265.494 365.433C261.967 368.967 257.179 370.969 252.176 371H105.942C100.918 371 96.1004 369.012 92.548 365.474C88.9957 361.936 87 357.138 87 352.134V61.7475C87.0313 56.7646 89.0407 51.9963 92.5897 48.4838C96.1386 44.9713 100.939 42.9999 105.942 43ZM260.108 61.8655H269.816C269.816 57.2039 267.958 52.7328 264.651 49.4343C261.343 46.1359 256.857 44.2796 252.176 44.2734H247.772C251.364 45.6045 254.467 47.9897 256.669 51.1138C258.872 54.2379 260.071 57.954 260.108 61.7711V61.8655ZM88.2785 352.134C88.2785 356.8 90.1396 361.275 93.4521 364.574C96.7647 367.873 101.258 369.727 105.942 369.727H241.261C245.943 369.72 250.433 367.865 253.744 364.567C257.055 361.269 258.918 356.798 258.924 352.134V61.7475C258.918 57.0859 257.054 52.6174 253.742 49.3233C250.431 46.0292 245.941 44.1791 241.261 44.1791H105.942C101.262 44.1791 96.7724 46.0292 93.4605 49.3233C90.1486 52.6174 88.2848 57.0859 88.2785 61.7475V352.134Z" fill="#90B4FF"/>
<path d="M102.835 65H244.165C249.045 65 253 68.9881 253 73.9077V341.092C253 346.012 249.045 350 244.165 350H102.835C97.9553 350 94 346.012 94 341.092V73.9077C94 68.9881 97.9553 65 102.835 65Z" fill="white"/>
<path d="M98.5855 65.7776C99.7887 65.2684 101.098 65.0031 102.424 65H105C103.722 65 102.457 65.2306 101.277 65.6785C100.098 66.1264 99.0257 66.7829 98.1235 67.6103C97.2214 68.4377 96.5065 69.4197 96.0199 70.5002C95.5334 71.5808 95.2848 72.7384 95.2881 73.907V341.093C95.2848 342.262 95.5334 343.419 96.0199 344.5C96.5065 345.58 97.2214 346.562 98.1235 347.39C99.0257 348.217 100.098 348.874 101.277 349.321C102.457 349.769 103.722 350 105 350H102.424C101.1 350.005 99.7905 349.748 98.5855 349.246C97.162 348.323 96.0023 347.101 95.2042 345.682C94.4061 344.263 93.9931 342.689 94.0001 341.093V73.9306C93.9931 72.3348 94.4061 70.7609 95.2042 69.3418C96.0023 67.9228 97.162 66.7003 98.5855 65.7776Z" fill="#CBDBEC"/>
<path d="M130.313 277H216.687C219.953 277 223.085 275.788 225.394 273.632C227.703 271.475 229 268.55 229 265.5C229 262.45 227.703 259.525 225.394 257.368C223.085 255.212 219.953 254 216.687 254H130.313C127.047 254 123.915 255.212 121.606 257.368C119.297 259.525 118 262.45 118 265.5C118 268.55 119.297 271.475 121.606 273.632C123.915 275.788 127.047 277 130.313 277Z" fill="url(#paint1_linear)"/>
<path d="M212 268C210.343 268 209 266.881 209 265.5C209 264.119 210.343 263 212 263C213.657 263 215 264.119 215 265.5C215 266.881 213.657 268 212 268Z" fill="white"/>
<path d="M194 265.522C194.005 266.015 194.186 266.496 194.518 266.905C194.851 267.313 195.321 267.63 195.87 267.816C196.419 268.002 197.021 268.048 197.601 267.949C198.181 267.85 198.713 267.611 199.13 267.26C199.547 266.91 199.831 266.464 199.944 265.98C200.058 265.495 199.997 264.994 199.769 264.538C199.541 264.083 199.157 263.694 198.664 263.42C198.171 263.146 197.592 263 197 263C196.604 263 196.212 263.065 195.846 263.192C195.48 263.319 195.148 263.505 194.869 263.74C194.591 263.974 194.37 264.253 194.221 264.558C194.072 264.864 193.997 265.192 194 265.522Z" fill="white"/>
<path d="M179 265.522C179.004 266.015 179.155 266.496 179.432 266.905C179.709 267.313 180.101 267.63 180.558 267.816C181.015 268.002 181.517 268.048 182.001 267.949C182.484 267.85 182.928 267.611 183.275 267.26C183.623 266.91 183.859 266.464 183.954 265.98C184.048 265.495 183.997 264.994 183.808 264.538C183.618 264.083 183.297 263.694 182.887 263.42C182.476 263.146 181.994 263 181.5 263C180.835 263.006 180.199 263.274 179.731 263.746C179.263 264.219 179 264.857 179 265.522Z" fill="white"/>
<path d="M162 265.5C162 265.995 162.177 266.48 162.507 266.891C162.838 267.303 163.308 267.623 163.858 267.812C164.408 268 165.012 268.049 165.595 267.95C166.178 267.852 166.712 267.612 167.13 267.26C167.549 266.908 167.833 266.461 167.945 265.974C168.058 265.488 167.995 264.985 167.764 264.528C167.533 264.072 167.145 263.683 166.648 263.411C166.151 263.139 165.569 262.996 164.974 263C164.183 263.006 163.426 263.272 162.869 263.74C162.312 264.208 162 264.841 162 265.5Z" fill="white"/>
<path d="M147 265.522C147.004 266.015 147.155 266.496 147.432 266.905C147.709 267.313 148.101 267.63 148.558 267.816C149.016 268.002 149.518 268.048 150.001 267.949C150.485 267.85 150.928 267.611 151.275 267.26C151.623 266.91 151.859 266.464 151.954 265.98C152.048 265.495 151.998 264.994 151.808 264.538C151.618 264.083 151.297 263.694 150.887 263.42C150.476 263.146 149.994 263 149.5 263C149.17 263 148.843 263.065 148.538 263.192C148.234 263.319 147.957 263.505 147.725 263.74C147.492 263.974 147.308 264.253 147.184 264.558C147.06 264.864 146.997 265.192 147 265.522Z" fill="white"/>
<path d="M134 268C132.343 268 131 266.881 131 265.5C131 264.119 132.343 263 134 263C135.657 263 137 264.119 137 265.5C137 266.881 135.657 268 134 268Z" fill="white"/>
<path d="M327 277H329.322V221.227C329.322 205.579 335.707 192.334 343.253 192.311H442V190H343.253C334.128 190 327 203.753 327 221.227V277Z" fill="#CBDBEC"/>
<path d="M380.772 358.237C383.572 352.337 384.954 345.907 384.815 339.425V322.781C384.815 321.799 385.219 321 385.718 321H494C493.477 321 493.096 321.799 493.096 322.781V339.448C493.226 345.924 491.837 352.346 489.03 358.237C486.51 363.032 483.062 366 479.234 366H371C374.804 366 378.252 363.032 380.772 358.237Z" fill="white"/>
<path d="M449.154 194C452.869 194 456.207 196.997 458.558 201.93C461.296 207.92 462.646 214.456 462.508 221.046V339.895C462.508 357.076 469.443 370.976 478 371H370.987C362.406 371 355.471 357.076 355.471 339.872V221.046C355.621 214.455 354.27 207.917 351.521 201.93C349.17 196.997 345.738 194 342 194H449.154Z" fill="#C5D6FF"/>
<path d="M434.207 277H328C328 278.658 328.397 280 328.91 280H435C434.51 280 434.207 278.658 434.207 277Z" fill="#5D7AFF"/>
<path d="M449.372 191C440.858 191 434 204.709 434 221.568V278.308C434 279.295 434.402 280.095 434.899 280.095C435.395 280.095 435.797 279.295 435.797 278.308V221.592C435.67 215.027 437.028 208.518 439.771 202.545C442.254 197.631 445.636 194.645 449.372 194.645C453.109 194.645 456.467 197.631 458.832 202.545C461.587 208.514 462.945 215.026 462.806 221.592V340.008C462.806 357.127 469.782 370.976 478.391 371C487 371.023 494 357.127 494 340.008V322.843C494 321.832 493.574 321.009 493.078 321.009C492.581 321.009 492.179 321.832 492.179 322.843V340.008C492.308 346.679 490.926 353.293 488.135 359.361C485.628 364.299 482.199 367.355 478.391 367.355C474.583 367.355 471.154 364.299 468.647 359.361C465.864 353.291 464.49 346.677 464.627 340.008V221.592C464.839 204.709 457.745 191 449.372 191Z" fill="#A4C2FF"/>
<path d="M343.116 191H449C440.628 191 433.884 204.503 433.884 221.11V277H328V221.134C328 204.503 334.767 191.023 343.116 191Z" fill="white"/>
<path d="M143 355.252C143 367.516 146.575 377.777 151.719 382H159C159 381.449 158.8 380.921 158.445 380.532C158.089 380.143 157.607 379.924 157.104 379.924C152.221 379.924 146.771 369.783 146.771 355.252C146.771 343.608 150.455 333.18 155.36 330.961C155.785 330.719 156.111 330.311 156.275 329.818C156.439 329.325 156.428 328.782 156.245 328.297C156.062 327.812 155.719 327.42 155.285 327.198C154.851 326.975 154.357 326.939 153.899 327.096C147.49 330.007 143 341.603 143 355.252Z" fill="white"/>
<path d="M154.895 329H283L280.253 330.119C274.383 332.449 270.11 343.077 270.11 355.197C270.11 369.181 275.745 380.835 282.695 380.835V382H157.783C150.175 382 144 370.02 144 355.29C144 342.355 148.485 331.634 154.895 329Z" fill="url(#paint2_linear)"/>
<path d="M154.358 327.927L306.264 265.63C307.215 265.223 308.239 265.009 309.275 265H434.412C434.568 265 434.717 265.061 434.828 265.171C434.938 265.28 435 265.428 435 265.583C435 265.738 434.938 265.886 434.828 265.995C434.717 266.105 434.568 266.166 434.412 266.166C433.535 266.176 432.67 266.366 431.872 266.726L279.943 329H279.731H154.57C154.436 328.996 154.307 328.947 154.206 328.86C154.104 328.774 154.035 328.655 154.01 328.525C153.985 328.394 154.006 328.259 154.07 328.142C154.133 328.025 154.235 327.932 154.358 327.88V327.927Z" fill="#5D7AFF"/>
<path d="M295.874 276.001H396.341C399.79 276.001 401.033 276.627 399.063 277.387L357.872 293.613C354.714 294.555 351.422 295.023 348.113 294.999H247.646C244.222 294.999 242.955 294.373 244.949 293.591L286.116 277.387C289.274 276.446 292.566 275.979 295.874 276.001Z" fill="url(#paint3_linear)"/>
<path d="M317.648 287.585L310.201 283.439C309.757 283.279 309.288 283.213 308.819 283.244C308.035 283.249 307.253 283.315 306.478 283.439C304.932 283.683 304.136 284.073 304.44 284.317L312.637 288.927C313.092 289.066 313.567 289.124 314.042 289.098C314.778 289.085 315.513 289.028 316.243 288.927L334.018 286.171C335.587 285.927 336.5 285.537 336.055 285.293C335.609 285.144 335.14 285.086 334.673 285.122C333.89 285.119 333.107 285.176 332.332 285.293L317.648 287.585ZM335.236 279C351.113 279 356.687 282.146 347.718 286C338.748 289.854 318.632 293 302.754 293C286.876 293 281.326 289.854 290.272 286C299.218 282.146 319.381 279 335.236 279Z" fill="url(#paint4_linear)"/>
<path d="M308.31 283.006C308.783 282.98 309.256 283.036 309.704 283.173L317.219 286.706L332.129 284.752C332.912 284.653 333.702 284.604 334.492 284.607C334.963 284.576 335.437 284.626 335.886 284.752C336.335 284.96 335.414 285.293 333.831 285.501L316.013 287.849C315.277 287.935 314.535 287.984 313.792 287.995C313.314 288.017 312.834 287.968 312.374 287.849L304.104 283.921C303.678 283.713 304.6 283.381 306.16 283.173C306.871 283.075 307.59 283.02 308.31 283.006Z" fill="white"/>
<path opacity="0.7" d="M244.537 196.918V294.872C244.537 295.295 245.879 295.601 248.185 295.601H348.986C352.306 295.628 355.609 295.136 358.777 294.142L400.105 277.056C400.717 276.797 400.999 276.538 400.999 276.326V197.013L244.537 196.918Z" fill="white"/>
<path d="M226 298.069V301.65C226 301.859 226.691 301.998 227.955 301.998H255.653C257.266 302.021 258.872 301.809 260.421 301.371L266.619 298.86C266.857 298.86 267 298.65 267 298.581V295C267 295 266.857 295.186 266.619 295.302L260.421 297.79C258.874 298.238 257.267 298.457 255.653 298.441H227.955C226.691 298.441 226 298.302 226 298.069Z" fill="#321288"/>
<path d="M226 299.509C226 299.815 226.691 299.999 227.955 299.999H255.653C257.267 300.02 258.874 299.731 260.421 299.141L266.619 295.861C266.857 295.708 267 295.555 267 295.463C267 295.371 266.309 295.003 265.069 295.003H237.227C235.613 294.965 234.004 295.255 232.46 295.861L226.238 299.141C226.119 299.294 226 299.417 226 299.509Z" fill="#90B4FF"/>
<path d="M214 304.069V307.627C214 307.86 214.674 307.999 215.884 307.999H242.907C244.481 308.016 246.049 307.797 247.558 307.348L253.605 304.86C253.861 304.744 254 304.627 254 304.558V301C254 301 253.861 301.163 253.605 301.279L247.558 303.767C246.052 304.227 244.482 304.447 242.907 304.418H215.86C214.651 304.465 214 304.279 214 304.069Z" fill="#321288"/>
<path d="M214 303.722C214 303.888 214.674 303.998 215.884 303.998H242.907C244.482 304.021 246.052 303.847 247.558 303.483L253.605 301.516C253.861 301.424 254 301.35 254 301.295C254 301.24 253.326 301.001 252.093 301.001H225.07C223.496 300.988 221.928 301.161 220.419 301.516L214.349 303.483C214 303.575 214 303.667 214 303.722Z" fill="#90B4FF"/>
<path d="M184 315.069V318.626C184 318.858 184.691 318.998 185.955 318.998H213.653C215.268 319.024 216.876 318.804 218.421 318.347L224.595 315.859C224.857 315.743 225 315.627 225 315.557V312C225 312 224.857 312.163 224.595 312.279L218.421 314.79C216.872 315.227 215.266 315.438 213.653 315.418H185.955C184.691 315.441 184 315.278 184 315.069Z" fill="#321288"/>
<path d="M184 315.631C184 315.851 184.691 315.999 185.955 315.999H213.653C215.266 316.02 216.872 315.797 218.421 315.336L224.595 312.688C224.857 312.565 225 312.467 225 312.394C225 312.32 224.309 312.001 223.069 312.001H195.347C193.733 311.981 192.125 312.213 190.579 312.688L184.334 315.336C184.119 315.435 184 315.557 184 315.631Z" fill="#90B4FF"/>
<path d="M201 310.043V313.647C201 313.857 201.691 313.998 202.931 313.998H230.653C232.268 314.024 233.876 313.803 235.421 313.343L241.595 310.838C241.857 310.721 242 310.628 242 310.557V307C242 307 241.857 307.187 241.595 307.281L235.421 309.808C233.874 310.257 232.267 310.478 230.653 310.464H202.931C201.763 310.464 201 310.3 201 310.043Z" fill="#321288"/>
<path d="M201 308.607C201 308.828 201.691 308.999 202.931 308.999H230.653C232.267 309.014 233.874 308.783 235.421 308.313L241.595 305.664C241.857 305.664 242 305.443 242 305.369C242 305.296 241.309 305.001 240.069 305.001H212.347C210.734 304.98 209.128 305.203 207.579 305.664L201.358 308.313C201.119 308.46 201 308.607 201 308.607Z" fill="#90B4FF"/>
<path d="M306 298.03V301.646C306 301.858 306.674 301.999 307.884 301.999H334.93C336.503 302.019 338.07 301.806 339.581 301.364L345.605 298.899C345.861 298.899 346 298.687 346 298.617V295C346 295 345.861 295.188 345.605 295.305L339.581 297.818C338.072 298.269 336.504 298.49 334.93 298.476H307.954C306.674 298.405 306 298.264 306 298.03Z" fill="#321288"/>
<path d="M306 299.509C306 299.815 306.674 299.999 307.884 299.999H334.93C336.504 300.018 338.072 299.729 339.581 299.141L345.605 295.861C345.861 295.708 346 295.554 346 295.463C346 295.371 345.326 295.003 344.116 295.003H317.07C315.495 294.968 313.926 295.258 312.419 295.861L306.349 299.141C306.116 299.304 306 299.427 306 299.509Z" fill="#90B4FF"/>
<path d="M265 298.069V301.65C265 301.859 265.691 301.998 266.955 301.998H294.653C296.266 302.021 297.872 301.809 299.421 301.371L305.619 298.86C305.857 298.86 306 298.65 306 298.581V295C306 295 305.857 295.186 305.619 295.302L299.421 297.79C297.874 298.238 296.267 298.457 294.653 298.441H266.859C265.691 298.441 265 298.302 265 298.069Z" fill="#321288"/>
<path d="M265 299.509C265 299.815 265.691 299.999 266.955 299.999H294.653C296.267 300.02 297.874 299.731 299.421 299.141L305.619 295.861C305.857 295.708 306 295.555 306 295.463C306 295.371 305.309 295.003 304.069 295.003H276.394C274.78 294.965 273.171 295.255 271.627 295.861L265.405 299.141C265.119 299.294 265 299.417 265 299.509Z" fill="#90B4FF"/>
<path d="M253 304.069V307.627C253 307.859 253.674 307.999 254.883 307.999H281.913C283.487 308.018 285.054 307.798 286.562 307.348L292.605 304.86C292.861 304.744 293 304.627 293 304.558V301C293 301 292.861 301.163 292.605 301.279L286.562 303.767C285.057 304.229 283.488 304.449 281.913 304.418H254.883C253.674 304.465 253 304.279 253 304.069Z" fill="#321288"/>
<path d="M253 303.722C253 303.887 253.674 303.998 254.883 303.998H281.913C283.488 304.022 285.057 303.848 286.562 303.483L292.605 301.515C292.861 301.423 293 301.35 293 301.295C293 301.24 292.326 301.001 291.094 301.001H264.087C262.513 300.989 260.947 301.163 259.438 301.515L253.372 303.483C253.186 303.575 253 303.667 253 303.722Z" fill="#90B4FF"/>
<path d="M293 304.069V307.627C293 307.86 293.691 307.999 294.955 307.999H322.653C324.267 308.016 325.874 307.796 327.421 307.348L333.619 304.86C333.857 304.744 334 304.627 334 304.558V301C334 301 333.857 301.163 333.619 301.279L327.421 303.767C325.877 304.227 324.268 304.446 322.653 304.418H294.955C293.691 304.465 293 304.279 293 304.069Z" fill="#321288"/>
<path d="M293 303.722C293 303.888 293.691 303.998 294.955 303.998H322.653C324.268 304.02 325.877 303.847 327.421 303.483L333.619 301.516C333.857 301.424 334 301.35 334 301.295C334 301.24 333.309 301.001 332.069 301.001H304.347C302.733 300.987 301.126 301.161 299.579 301.516L293.358 303.483C293.119 303.575 293 303.667 293 303.722Z" fill="#90B4FF"/>
<path d="M184 315.069V318.626C184 318.858 184.691 318.998 185.955 318.998H213.653C215.268 319.024 216.876 318.804 218.421 318.347L224.595 315.859C224.857 315.743 225 315.627 225 315.557V312C225 312 224.857 312.163 224.595 312.279L218.421 314.79C216.872 315.227 215.266 315.438 213.653 315.418H185.955C184.691 315.441 184 315.278 184 315.069Z" fill="#321288"/>
<path d="M184 315.631C184 315.851 184.691 315.999 185.955 315.999H213.653C215.266 316.02 216.872 315.797 218.421 315.336L224.595 312.688C224.857 312.565 225 312.467 225 312.394C225 312.32 224.309 312.001 223.069 312.001H195.347C193.733 311.981 192.125 312.213 190.579 312.688L184.334 315.336C184.119 315.435 184 315.557 184 315.631Z" fill="url(#paint5_linear)"/>
<path d="M293 304.069V307.627C293 307.86 293.691 307.999 294.955 307.999H322.653C324.267 308.016 325.874 307.796 327.421 307.348L333.619 304.86C333.857 304.744 334 304.627 334 304.558V301C334 301 333.857 301.163 333.619 301.279L327.421 303.767C325.877 304.227 324.268 304.446 322.653 304.418H294.955C293.691 304.465 293 304.279 293 304.069Z" fill="#321288"/>
<path d="M293 303.722C293 303.888 293.691 303.998 294.955 303.998H322.653C324.268 304.02 325.877 303.847 327.421 303.483L333.619 301.516C333.857 301.424 334 301.35 334 301.295C334 301.24 333.309 301.001 332.069 301.001H304.347C302.733 300.987 301.126 301.161 299.579 301.516L293.358 303.483C293.119 303.575 293 303.667 293 303.722Z" fill="#90B4FF"/>
<path d="M240 310.043V313.647C240 313.857 240.693 313.998 241.936 313.998H269.62C271.239 314.024 272.852 313.803 274.402 313.343L280.594 310.838C280.857 310.721 281 310.628 281 310.557V307C281 307 280.857 307.187 280.594 307.281L274.402 309.808C272.85 310.257 271.239 310.478 269.62 310.464H241.817C240.693 310.464 240 310.3 240 310.043Z" fill="#321288"/>
<path d="M240 308.607C240 308.828 240.693 308.999 241.936 308.999H269.62C271.239 309.014 272.85 308.783 274.402 308.313L280.594 305.664C280.857 305.664 281 305.443 281 305.369C281 305.296 280.307 305.001 279.064 305.001H251.26C249.643 304.98 248.032 305.203 246.479 305.664L240.239 308.313C240.12 308.46 240 308.607 240 308.607Z" fill="#90B4FF"/>
<path d="M281 310.042V313.646C281 313.857 281.674 313.997 282.882 313.997H309.92C311.493 314.028 313.061 313.807 314.566 313.342L320.605 310.838C320.861 310.721 321 310.627 321 310.557V307C321 307 320.861 307.187 320.605 307.281L314.566 309.808C313.059 310.261 311.492 310.482 309.92 310.463H282.905C281.674 310.463 281 310.3 281 310.042Z" fill="#321288"/>
<path d="M281 308.606C281 308.827 281.674 308.999 282.882 308.999H309.92C311.492 309.019 313.059 308.787 314.566 308.312L320.605 305.664C320.861 305.664 321 305.443 321 305.369C321 305.296 320.326 305.001 319.095 305.001H292.103C290.532 304.98 288.967 305.203 287.458 305.664L281.395 308.312C281.093 308.459 281 308.606 281 308.606Z" fill="#90B4FF"/>
<path d="M225 315.069V318.627C225 318.86 225.674 318.999 226.884 318.999H253.93C255.504 319.014 257.072 318.794 258.581 318.348L264.605 315.837C264.861 315.837 265 315.628 265 315.558V312C265 312 264.861 312.163 264.605 312.279L258.581 314.767C257.074 315.225 255.505 315.444 253.93 315.418H226.884C225.674 315.442 225 315.279 225 315.069Z" fill="#321288"/>
<path d="M225 315.63C225 315.851 225.674 315.998 226.884 315.998H253.93C255.505 316.025 257.074 315.794 258.581 315.311L264.605 312.688C264.861 312.565 265 312.467 265 312.393C265 312.32 264.326 312.001 263.116 312.001H236.07C234.495 311.981 232.927 312.213 231.419 312.688L225.326 315.311C225.116 315.434 225 315.556 225 315.63Z" fill="#FDD23D"/>
<path d="M264 315.069V318.627C264 318.859 264.708 318.999 265.977 318.999H294.359C296.011 319.018 297.657 318.798 299.24 318.348L305.585 315.837C305.854 315.837 306 315.627 306 315.558V312C306 312 305.854 312.163 305.585 312.279L299.24 314.767C297.659 315.229 296.012 315.449 294.359 315.418H265.977C264.635 315.441 264 315.279 264 315.069Z" fill="#321288"/>
<path d="M264 315.629C264 315.85 264.708 315.997 265.977 315.997H294.359C296.012 316.03 297.659 315.798 299.24 315.311L305.585 312.687C305.854 312.565 306 312.467 306 312.393C306 312.319 305.292 312.001 304.023 312.001H275.617C273.965 311.986 272.32 312.217 270.736 312.687L264.366 315.311C264.098 315.433 264 315.556 264 315.629Z" fill="#FF6991"/>
<path d="M279.612 329.592C273.429 332.141 269 342.972 269 355.548C269 370.155 274.945 382 282.289 382H435.356C442.889 382 449 369.824 449 354.841V293.183C449 277.893 442.723 266 435.38 266C434.428 266.006 433.486 266.198 432.608 266.566L279.612 329.592Z" fill="#1A59AF"/>
<path d="M282.814 382H434.881C442.693 382 449 369.573 449 354.321V292.726C449 277.451 442.67 265 434.881 265C433.853 265.018 432.838 265.234 431.892 265.635L279.896 328.501C273.471 331.161 269 342.011 269 354.909C269.024 369.785 275.213 382 282.814 382ZM434.904 266.294C441.964 266.294 447.847 278.204 447.847 292.844V354.321C447.847 368.937 442.034 380.823 434.881 380.823H282.814C275.754 380.823 270.2 369.243 270.2 354.933C270.2 342.694 274.483 332.055 280.366 329.608L432.363 266.671C433.166 266.332 434.032 266.164 434.904 266.177V266.294Z" fill="#5D7AFF"/>
<path d="M437 382V317.559C437 308.227 433.243 301 428.848 301C428.278 301.004 427.715 301.126 427.194 301.359L310.939 350.007C306.214 351.969 303 360.224 303 369.82V382H437Z" fill="#1A59AF"/>
<path d="M307.878 350.007L423.24 301.359C423.757 301.126 424.316 301.004 424.881 301H428C427.435 301.004 426.876 301.126 426.359 301.359L310.997 350.007C306.307 351.969 303.119 360.224 303.119 369.82V382H300V369.82C300 360.224 303.283 351.969 307.878 350.007Z" fill="#5D7AFF"/>
<path d="M158.156 348C158.053 350.325 158.001 352.661 158 355H158.856C158.853 352.971 158.901 350.944 159 348.93L158.156 348Z" fill="#0E0B3F"/>
<path d="M159.001 355H252.76C252.76 353.348 252.76 351.629 253 350H159.313C159.09 351.658 158.986 353.329 159.001 355Z" fill="#321288"/>
<path d="M158 348L159.811 350H253C252.977 349.335 252.977 348.665 253 348H158Z" fill="#0E0B3F"/>
<path d="M299.59 382H436.41C436.567 382 436.717 381.895 436.827 381.707C436.938 381.52 437 381.265 437 381C437 380.735 436.938 380.48 436.827 380.293C436.717 380.105 436.567 380 436.41 380H299.59C299.433 380 299.283 380.105 299.173 380.293C299.062 380.48 299 380.735 299 381C299 381.265 299.062 381.52 299.173 381.707C299.283 381.895 299.433 382 299.59 382Z" fill="#5D7AFF"/>
<path d="M67 361H0V350H67V361Z" fill="url(#paint6_linear)"/>
<path style="mix-blend-mode:color-dodge" opacity="0.31" d="M48.1409 361V350H38V361H48.1409ZM51.3905 361V350H56V361H51.3905Z" fill="url(#paint7_linear)"/>
<path d="M0 361H67V362H0V361Z" fill="url(#paint8_linear)"/>
<path d="M76 373H9V362H76V373Z" fill="url(#paint9_linear)"/>
<path style="mix-blend-mode:color-dodge" opacity="0.31" d="M56.7041 373V362H46V373H56.7041ZM60.1344 373V362H65V373H60.1344Z" fill="url(#paint10_linear)"/>
<path d="M9 372H76V373H9V372Z" fill="url(#paint11_linear)"/>
<path d="M73 386H6V373H73V386Z" fill="url(#paint12_linear)"/>
<path style="mix-blend-mode:color-dodge" opacity="0.31" d="M54.7043 386V373H44V386H54.7043ZM58.1344 386V373H63V386H58.1344Z" fill="url(#paint13_linear)"/>
<path d="M6 385H73V386H6V385Z" fill="url(#paint14_linear)"/>
<path d="M428 373H361V361H428V373Z" fill="url(#paint15_linear)"/>
<path style="mix-blend-mode:color-dodge" opacity="0.31" d="M410.268 373V361H399V373H410.268ZM413.878 373V361H419V373H413.878Z" fill="url(#paint16_linear)"/>
<path d="M361 372H428V373H361V372Z" fill="url(#paint17_linear)"/>
<path d="M424 386H357V373H424V386Z" fill="url(#paint18_linear)"/>
<path style="mix-blend-mode:color-dodge" opacity="0.31" d="M405.141 386V373H395V386H405.141ZM408.391 386V373H413V386H408.391Z" fill="url(#paint19_linear)"/>
<path d="M357 385H424V386H357V385Z" fill="url(#paint20_linear)"/>
<path d="M382 350.396L326.299 386L320 375.604L375.701 340L382 350.396Z" fill="url(#paint21_linear)"/>
<path style="mix-blend-mode:color-dodge" opacity="0.31" d="M367.207 360.509L360.791 350.142L352 355.633L358.417 366L367.207 360.509ZM370.004 358.734L363.588 348.367L367.583 346L374 356.154L370.004 358.734Z" fill="url(#paint22_linear)"/>
<path d="M382.129 349.443L382.813 350.542L325.988 385.913L325.304 384.814L382.129 349.443Z" fill="url(#paint23_linear)"/>
<defs>
<linearGradient id="paint0_linear" x1="-145825" y1="85120.9" x2="-174218" y2="110924" gradientUnits="userSpaceOnUse">
<stop stop-color="#2D7AE1"/>
<stop offset="1" stop-color="#2F80ED"/>
</linearGradient>
<linearGradient id="paint1_linear" x1="-98524.4" y1="8070.55" x2="-98615.8" y2="8834.98" gradientUnits="userSpaceOnUse">
<stop stop-color="#46C2AA"/>
<stop offset="1" stop-color="#5BF0A9"/>
</linearGradient>
<linearGradient id="paint2_linear" x1="213.5" y1="381.86" x2="213.5" y2="328.953" gradientUnits="userSpaceOnUse">
<stop stop-color="#2B3DD3"/>
<stop offset="0.87" stop-color="#5D7AFF"/>
</linearGradient>
<linearGradient id="paint3_linear" x1="249.265" y1="294.373" x2="394.344" y2="274.859" gradientUnits="userSpaceOnUse">
<stop stop-color="#D8DEE7"/>
<stop offset="1" stop-color="white"/>
</linearGradient>
<linearGradient id="paint4_linear" x1="-54481.5" y1="5228.42" x2="-54514.8" y2="5500.53" gradientUnits="userSpaceOnUse">
<stop stop-color="#46C2AA"/>
<stop offset="1" stop-color="#5BF0A9"/>
</linearGradient>
<linearGradient id="paint5_linear" x1="-35899.3" y1="1787.72" x2="-35901.8" y2="1832.85" gradientUnits="userSpaceOnUse">
<stop stop-color="#46C2AA"/>
<stop offset="1" stop-color="#5BF0A9"/>
</linearGradient>
<linearGradient id="paint6_linear" x1="66.5749" y1="356.4" x2="-0.625964" y2="354.946" gradientUnits="userSpaceOnUse">
<stop stop-color="#FF9A0A"/>
<stop offset="0.23" stop-color="#FFCB0E"/>
<stop offset="0.24" stop-color="#FFD01F"/>
<stop offset="0.25" stop-color="#FFD32B"/>
<stop offset="0.26" stop-color="#FFD432"/>
<stop offset="0.3" stop-color="#FFD534"/>
<stop offset="0.46" stop-color="#FFCB0E"/>
<stop offset="0.74" stop-color="#FF9A0A"/>
<stop offset="0.83" stop-color="#FFA80B"/>
<stop offset="1" stop-color="#EC9407"/>
</linearGradient>
<linearGradient id="paint7_linear" x1="-22688.4" y1="16898.9" x2="-22653.4" y2="17009.2" gradientUnits="userSpaceOnUse">
<stop stop-color="white"/>
<stop offset="0.13" stop-color="#CECECE"/>
<stop offset="0.31" stop-color="#909090"/>
<stop offset="0.48" stop-color="#5D5D5D"/>
<stop offset="0.64" stop-color="#353535"/>
<stop offset="0.78" stop-color="#181818"/>
<stop offset="0.91" stop-color="#060606"/>
<stop offset="1"/>
</linearGradient>
<linearGradient id="paint8_linear" x1="-63047.7" y1="754.08" x2="-64953.1" y2="754.08" gradientUnits="userSpaceOnUse">
<stop stop-color="#FF9E11"/>
<stop offset="1" stop-color="#FF760A"/>
</linearGradient>
<linearGradient id="paint9_linear" x1="23811.4" y1="15884.8" x2="23887.6" y2="16326.7" gradientUnits="userSpaceOnUse">
<stop stop-color="#FF9A0A"/>
<stop offset="0.23" stop-color="#FFCB0E"/>
<stop offset="0.24" stop-color="#FFD01F"/>
<stop offset="0.25" stop-color="#FFD32B"/>
<stop offset="0.26" stop-color="#FFD432"/>
<stop offset="0.3" stop-color="#FFD534"/>
<stop offset="0.46" stop-color="#FFCB0E"/>
<stop offset="0.74" stop-color="#FF9A0A"/>
<stop offset="0.83" stop-color="#FFA80B"/>
<stop offset="1" stop-color="#EC9407"/>
</linearGradient>
<linearGradient id="paint10_linear" x1="-23888.1" y1="16962.3" x2="-23854.6" y2="17073.6" gradientUnits="userSpaceOnUse">
<stop stop-color="white"/>
<stop offset="0.13" stop-color="#CECECE"/>
<stop offset="0.31" stop-color="#909090"/>
<stop offset="0.48" stop-color="#5D5D5D"/>
<stop offset="0.64" stop-color="#353535"/>
<stop offset="0.78" stop-color="#181818"/>
<stop offset="0.91" stop-color="#060606"/>
<stop offset="1"/>
</linearGradient>
<linearGradient id="paint11_linear" x1="-62814.2" y1="770.26" x2="-64719.7" y2="770.26" gradientUnits="userSpaceOnUse">
<stop stop-color="#FF9E11"/>
<stop offset="1" stop-color="#FF760A"/>
</linearGradient>
<linearGradient id="paint12_linear" x1="24087.1" y1="18676.3" x2="24192.3" y2="19192.7" gradientUnits="userSpaceOnUse">
<stop stop-color="#FF9A0A"/>
<stop offset="0.23" stop-color="#FFCB0E"/>
<stop offset="0.24" stop-color="#FFD01F"/>
<stop offset="0.25" stop-color="#FFD32B"/>
<stop offset="0.26" stop-color="#FFD432"/>
<stop offset="0.3" stop-color="#FFD534"/>
<stop offset="0.46" stop-color="#FFCB0E"/>
<stop offset="0.74" stop-color="#FF9A0A"/>
<stop offset="0.83" stop-color="#FFA80B"/>
<stop offset="1" stop-color="#EC9407"/>
</linearGradient>
<linearGradient id="paint13_linear" x1="-23912.5" y1="20064.2" x2="-23867.4" y2="20191.5" gradientUnits="userSpaceOnUse">
<stop stop-color="white"/>
<stop offset="0.13" stop-color="#CECECE"/>
<stop offset="0.31" stop-color="#909090"/>
<stop offset="0.48" stop-color="#5D5D5D"/>
<stop offset="0.64" stop-color="#353535"/>
<stop offset="0.78" stop-color="#181818"/>
<stop offset="0.91" stop-color="#060606"/>
<stop offset="1"/>
</linearGradient>
<linearGradient id="paint14_linear" x1="-62878.2" y1="788.44" x2="-64783.7" y2="788.44" gradientUnits="userSpaceOnUse">
<stop stop-color="#FF9E11"/>
<stop offset="1" stop-color="#FF760A"/>
</linearGradient>
<linearGradient id="paint15_linear" x1="16742.5" y1="16078.8" x2="16832.7" y2="16558.5" gradientUnits="userSpaceOnUse">
<stop stop-color="#FF9A0A"/>
<stop offset="0.23" stop-color="#FFCB0E"/>
<stop offset="0.24" stop-color="#FFD01F"/>
<stop offset="0.25" stop-color="#FFD32B"/>
<stop offset="0.26" stop-color="#FFD432"/>
<stop offset="0.3" stop-color="#FFD534"/>
<stop offset="0.46" stop-color="#FFCB0E"/>
<stop offset="0.74" stop-color="#FF9A0A"/>
<stop offset="0.83" stop-color="#FFA80B"/>
<stop offset="1" stop-color="#EC9407"/>
</linearGradient>
<linearGradient id="paint16_linear" x1="-21889.3" y1="18040.8" x2="-21851.8" y2="18162" gradientUnits="userSpaceOnUse">
<stop stop-color="white"/>
<stop offset="0.13" stop-color="#CECECE"/>
<stop offset="0.31" stop-color="#909090"/>
<stop offset="0.48" stop-color="#5D5D5D"/>
<stop offset="0.64" stop-color="#353535"/>
<stop offset="0.78" stop-color="#181818"/>
<stop offset="0.91" stop-color="#060606"/>
<stop offset="1"/>
</linearGradient>
<linearGradient id="paint17_linear" x1="-52404.2" y1="770.23" x2="-54309.7" y2="770.23" gradientUnits="userSpaceOnUse">
<stop stop-color="#FF9E11"/>
<stop offset="1" stop-color="#FF760A"/>
</linearGradient>
<linearGradient id="paint18_linear" x1="17068.1" y1="17367.2" x2="17173.3" y2="17883.6" gradientUnits="userSpaceOnUse">
<stop stop-color="#FF9A0A"/>
<stop offset="0.23" stop-color="#FFCB0E"/>
<stop offset="0.24" stop-color="#FFD01F"/>
<stop offset="0.25" stop-color="#FFD32B"/>
<stop offset="0.26" stop-color="#FFD432"/>
<stop offset="0.3" stop-color="#FFD534"/>
<stop offset="0.46" stop-color="#FFCB0E"/>
<stop offset="0.74" stop-color="#FF9A0A"/>
<stop offset="0.83" stop-color="#FFA80B"/>
<stop offset="1" stop-color="#EC9407"/>
</linearGradient>
<linearGradient id="paint19_linear" x1="-19702.9" y1="19601.9" x2="-19655.8" y2="19728.2" gradientUnits="userSpaceOnUse">
<stop stop-color="white"/>
<stop offset="0.13" stop-color="#CECECE"/>
<stop offset="0.31" stop-color="#909090"/>
<stop offset="0.48" stop-color="#5D5D5D"/>
<stop offset="0.64" stop-color="#353535"/>
<stop offset="0.78" stop-color="#181818"/>
<stop offset="0.91" stop-color="#060606"/>
<stop offset="1"/>
</linearGradient>
<linearGradient id="paint20_linear" x1="-52534.8" y1="788.44" x2="-54440.3" y2="788.44" gradientUnits="userSpaceOnUse">
<stop stop-color="#FF9E11"/>
<stop offset="1" stop-color="#FF760A"/>
</linearGradient>
<linearGradient id="paint21_linear" x1="-63115.7" y1="3032.28" x2="-64498" y2="3561.93" gradientUnits="userSpaceOnUse">
<stop stop-color="#FF9A0A"/>
<stop offset="0.23" stop-color="#FFCB0E"/>
<stop offset="0.24" stop-color="#FFD01F"/>
<stop offset="0.25" stop-color="#FFD32B"/>
<stop offset="0.26" stop-color="#FFD432"/>
<stop offset="0.3" stop-color="#FFD534"/>
<stop offset="0.46" stop-color="#FFCB0E"/>
<stop offset="0.74" stop-color="#FF9A0A"/>
<stop offset="0.83" stop-color="#FFA80B"/>
<stop offset="1" stop-color="#EC9407"/>
</linearGradient>
<linearGradient id="paint22_linear" x1="-12875.7" y1="18103.4" x2="-12795.2" y2="18228.3" gradientUnits="userSpaceOnUse">
<stop stop-color="white"/>
<stop offset="0.13" stop-color="#CECECE"/>
<stop offset="0.31" stop-color="#909090"/>
<stop offset="0.48" stop-color="#5D5D5D"/>
<stop offset="0.64" stop-color="#353535"/>
<stop offset="0.78" stop-color="#181818"/>
<stop offset="0.91" stop-color="#060606"/>
<stop offset="1"/>
</linearGradient>
<linearGradient id="paint23_linear" x1="13946.8" y1="23912.3" x2="13915.6" y2="23931.8" gradientUnits="userSpaceOnUse">
<stop stop-color="#FF9E11"/>
<stop offset="1" stop-color="#FF760A"/>
</linearGradient>
</defs>
</svg>
