<svg width="467" height="372" viewBox="0 0 467 372" fill="none" xmlns="http://www.w3.org/2000/svg">
<path d="M236.719 103.451C227.616 98.2315 212.857 98.2315 203.754 103.451L74.969 177.298C70.0846 180.099 67.821 183.834 68.1782 187.5C68.4867 190.666 70.7503 193.782 74.969 196.201L203.754 270.048C212.857 275.268 227.616 275.268 236.719 270.048L365.504 196.201C369.889 193.687 372.162 190.42 372.323 187.125C372.335 186.862 372.335 186.598 372.321 186.335C372.144 183.054 369.872 179.803 365.504 177.298L236.719 103.451Z" fill="#E4F0FF"/>
<path d="M230.88 132.332C225.261 129.109 216.151 129.109 210.532 132.332L127.645 179.86C124.63 181.589 123.233 183.893 123.453 186.157C123.644 188.112 125.041 190.035 127.645 191.528L210.532 239.056C216.151 242.278 225.261 242.278 230.88 239.056L313.767 191.528C316.474 189.976 317.876 187.96 317.976 185.926C317.983 185.763 317.983 185.6 317.974 185.438C317.865 183.412 316.463 181.406 313.767 179.86L230.88 132.332Z" stroke="#5396F1"/>
<path d="M74.969 200.201L203.754 274.048C212.857 279.268 227.616 279.268 236.719 274.048L365.504 200.201C369.889 197.687 372.162 194.42 372.323 191.125L372.469 248.499C372.48 252.981 369.383 257.282 363.86 260.454L238.176 332.629C228.659 338.094 213.238 338.139 203.626 332.729L78.4675 262.291C71.8861 258.587 68.1782 253.521 68.1782 248.233V191.5C68.4867 194.666 70.7503 197.782 74.969 200.201Z" fill="url(#paint0_linear)"/>
<path fill-rule="evenodd" clip-rule="evenodd" d="M372.323 191.125C372.335 190.862 372.335 190.598 372.321 190.335L372.323 191.125Z" fill="url(#paint1_linear)"/>
<path d="M358.809 226.156C358.809 223.855 356.326 222.411 354.326 223.548L245.35 285.487C243.161 286.731 241.809 289.055 241.809 291.573V307.325C241.809 309.63 244.3 311.074 246.3 309.928L355.287 247.517C357.465 246.269 358.809 243.952 358.809 241.442V226.156Z" fill="#CCE1FD" stroke="#3080ED"/>
<path d="M337.809 233L357.809 244.5L358.809 242V229.5L358.309 224.5L355.809 223L337.809 233Z" fill="#3080ED"/>
<path d="M224.035 184.983C225.604 185.892 227.309 186.562 229.152 186.994C230.944 187.427 232.811 187.614 234.753 187.557C236.671 187.513 238.625 187.218 240.617 186.67C242.559 186.122 244.451 185.315 246.293 184.248L246.854 183.924L248.87 185.091L251.485 183.578L249.468 182.41L250.028 182.085C251.92 180.99 253.364 179.879 254.36 178.755C255.331 177.616 255.854 176.491 255.929 175.381C256.003 174.271 255.667 173.197 254.92 172.159C254.124 171.121 252.916 170.133 251.298 169.196L249.655 168.245C248.086 167.336 246.405 166.666 244.613 166.233C242.77 165.801 240.891 165.606 238.974 165.65C237.032 165.707 235.09 166.01 233.148 166.558C231.156 167.106 229.239 167.913 227.396 168.98L226.836 169.304L224.819 168.137L222.205 169.65L224.222 170.818L223.662 171.143C221.769 172.238 220.338 173.356 219.367 174.495C218.396 175.634 217.873 176.758 217.798 177.868C217.699 178.964 218.047 180.031 218.844 181.069C219.616 182.121 220.798 183.109 222.392 184.032L224.035 184.983ZM248.609 170.753C251.074 172.181 252.244 173.767 252.119 175.511C251.995 177.256 250.476 178.971 247.563 180.658L247.003 180.982L229.301 170.732L229.861 170.407C232.799 168.706 235.774 167.819 238.787 167.747C241.75 167.675 244.476 168.36 246.966 169.802L248.609 170.753ZM226.687 172.246L244.389 182.496L243.829 182.821C240.891 184.522 237.94 185.409 234.978 185.481C231.965 185.553 229.214 184.868 226.724 183.426L225.081 182.475C222.616 181.047 221.446 179.461 221.57 177.717C221.695 175.972 223.213 174.257 226.126 172.57L226.687 172.246Z" fill="#2F80ED"/>
<path d="M201.446 198.064L216.011 189.629L228.261 196.723L230.875 195.209L204.733 180.071L202.119 181.585L213.621 188.245L199.056 196.68L187.554 190.019L184.939 191.533L211.082 206.671L213.696 205.157L201.446 198.064Z" fill="#2F80ED"/>
<g style="mix-blend-mode:multiply">
<path d="M369.676 107H343.324C342.041 107 341 108.031 341 109.302V128.698C341 129.969 342.041 131 343.324 131H369.676C370.959 131 372 129.969 372 128.698V109.302C372 108.031 370.959 107 369.676 107Z" fill="white"/>
</g>
<g style="mix-blend-mode:multiply">
<path d="M38.8346 179H3.16543C1.41724 179 0 180.38 0 182.083V207.917C0 209.62 1.41724 211 3.16543 211H38.8346C40.5828 211 42 209.62 42 207.917V182.083C42 180.38 40.5828 179 38.8346 179Z" fill="white"/>
</g>
<path d="M259.165 36.0328C258.755 36.4498 258.267 36.7808 257.73 37.0066C257.194 37.2325 256.618 37.3488 256.037 37.3488C255.455 37.3488 254.88 37.2325 254.343 37.0066C253.806 36.7808 253.319 36.4498 252.909 36.0328C247.098 30.156 239.217 26.8546 231 26.8546C222.783 26.8546 214.902 30.156 209.091 36.0328C208.678 36.4502 208.189 36.7813 207.649 37.0072C207.11 37.2331 206.532 37.3494 205.949 37.3494C205.365 37.3494 204.787 37.2331 204.248 37.0072C203.709 36.7813 203.219 36.4502 202.807 36.0328C202.394 35.6153 202.067 35.1197 201.843 34.5743C201.62 34.0289 201.505 33.4444 201.505 32.854C201.505 32.2637 201.62 31.6791 201.843 31.1337C202.067 30.5883 202.394 30.0927 202.807 29.6753C210.29 22.1334 220.423 17.8989 230.986 17.8989C241.549 17.8989 251.681 22.1334 259.165 29.6753C259.992 30.5215 260.456 31.6637 260.456 32.854C260.456 34.0443 259.992 35.1865 259.165 36.0328ZM246.653 42.3611C242.501 38.1618 236.871 35.8028 231 35.8028C225.129 35.8028 219.498 38.1618 215.347 42.3611C214.936 42.7766 214.61 43.2699 214.388 43.8128C214.165 44.3557 214.051 44.9376 214.051 45.5252C214.051 46.1129 214.165 46.6947 214.388 47.2376C214.61 47.7805 214.936 48.2738 215.347 48.6894C215.757 49.1049 216.245 49.4345 216.782 49.6594C217.318 49.8843 217.894 50 218.475 50C219.055 50 219.63 49.8843 220.167 49.6594C220.704 49.4345 221.191 49.1049 221.602 48.6894C222.836 47.4408 224.301 46.4503 225.914 45.7746C227.526 45.0988 229.255 44.751 231 44.751C232.745 44.751 234.474 45.0988 236.086 45.7746C237.699 46.4503 239.164 47.4408 240.398 48.6894C240.809 49.1049 241.296 49.4345 241.833 49.6594C242.37 49.8843 242.945 50 243.525 50C244.106 50 244.682 49.8843 245.218 49.6594C245.755 49.4345 246.243 49.1049 246.653 48.6894C247.064 48.2738 247.39 47.7805 247.612 47.2376C247.835 46.6947 247.949 46.1129 247.949 45.5252C247.949 44.9376 247.835 44.3557 247.612 43.8128C247.39 43.2699 247.064 42.7766 246.653 42.3611ZM271.704 17.0187C260.897 6.11996 246.26 0 231 0C215.74 0 201.103 6.11996 190.296 17.0187C189.885 17.4342 189.559 17.9275 189.337 18.4704C189.114 19.0133 189 19.5952 189 20.1828C189 20.7705 189.114 21.3523 189.337 21.8953C189.559 22.4382 189.885 22.9315 190.296 23.347C190.706 23.7625 191.194 24.0921 191.731 24.317C192.267 24.5419 192.842 24.6576 193.423 24.6576C194.004 24.6576 194.579 24.5419 195.116 24.317C195.653 24.0921 196.14 23.7625 196.551 23.347C205.702 14.1329 218.089 8.96016 231 8.96016C243.911 8.96016 256.298 14.1329 265.449 23.347C265.86 23.7625 266.347 24.0921 266.884 24.317C267.421 24.5419 267.996 24.6576 268.577 24.6576C269.158 24.6576 269.733 24.5419 270.269 24.317C270.806 24.0921 271.294 23.7625 271.704 23.347C272.115 22.9315 272.441 22.4382 272.663 21.8953C272.886 21.3523 273 20.7705 273 20.1828C273 19.5952 272.886 19.0133 272.663 18.4704C272.441 17.9275 272.115 17.4342 271.704 17.0187Z" fill="white"/>
<path d="M395.488 105.998C395.349 105.999 395.21 105.971 395.082 105.917C394.953 105.862 394.837 105.782 394.74 105.682L384.322 95.2538C384.22 95.1545 384.139 95.0358 384.084 94.9047C384.029 94.7736 384 94.6327 384 94.4904C384 94.3481 384.029 94.2073 384.084 94.0762C384.139 93.9451 384.22 93.8264 384.322 93.727L394.74 83.2992C394.947 83.1068 395.22 83 395.503 83C395.785 83 396.058 83.1068 396.265 83.2992L406.683 93.7847C406.881 93.9844 406.994 94.2525 407 94.5336C406.999 94.8241 406.885 95.1028 406.683 95.3114L396.265 105.739C396.048 105.921 395.771 106.013 395.488 105.998ZM386.624 94.476L395.488 103.377L404.381 94.476L395.488 85.6037L386.624 94.476Z" fill="white"/>
<g style="mix-blend-mode:multiply">
<path d="M204.502 360C204.212 359.999 203.933 359.885 203.724 359.683L193.322 349.256C193.22 349.157 193.139 349.038 193.084 348.907C193.028 348.776 193 348.635 193 348.493C193 348.35 193.028 348.209 193.084 348.078C193.139 347.947 193.22 347.829 193.322 347.729L203.724 337.302C203.937 337.108 204.214 337 204.502 337C204.79 337 205.068 337.108 205.28 337.302L215.682 347.729C215.787 347.823 215.87 347.939 215.925 348.068C215.98 348.198 216.005 348.338 215.999 348.478C216.005 348.623 215.98 348.767 215.926 348.902C215.871 349.036 215.788 349.157 215.682 349.256L205.28 359.683C205.072 359.885 204.793 359.999 204.502 360ZM195.598 348.478L204.502 357.379L213.406 348.478L204.502 339.578L195.598 348.478Z" fill="white"/>
</g>
<path d="M31.5021 372C31.2115 371.999 30.9326 371.88 30.724 371.669L20.322 360.789C20.2201 360.685 20.139 360.561 20.0837 360.425C20.0284 360.288 20 360.141 20 359.992C20 359.844 20.0284 359.697 20.0837 359.56C20.139 359.423 20.2201 359.299 20.322 359.196L30.724 348.315C30.9365 348.112 31.2141 348 31.5021 348C31.7901 348 32.0677 348.112 32.2801 348.315L42.6822 359.196C42.7871 359.293 42.8701 359.414 42.9249 359.549C42.9797 359.685 43.0049 359.831 42.9991 359.977C43.0053 360.128 42.9803 360.279 42.9256 360.419C42.8709 360.559 42.7878 360.685 42.6822 360.789L32.2801 371.669C32.0715 371.88 31.7926 371.999 31.5021 372ZM22.5983 359.977L31.5021 369.265L40.4059 359.977L31.5021 350.69L22.5983 359.977Z" fill="white"/>
<path d="M464.543 168.675C464.08 169.094 463.529 169.426 462.923 169.654C462.317 169.881 461.667 169.999 461.011 170C460.354 170.001 459.704 169.886 459.096 169.661C458.489 169.436 457.937 169.106 457.472 168.689C457.007 168.272 456.637 167.776 456.385 167.231C456.132 166.685 456.001 166.101 456 165.51C455.999 164.919 456.127 164.333 456.377 163.787C456.626 163.24 456.994 162.744 457.457 162.325C458.393 161.479 459.663 161.003 460.989 161C462.315 160.997 463.588 161.469 464.528 162.311C465.467 163.153 465.997 164.297 466 165.49C466.003 166.684 465.479 167.829 464.543 168.675Z" fill="white"/>
<path d="M41.9312 147.991C41.6299 147.99 41.3408 147.876 41.1245 147.674L30.3103 137.25C30.1109 137.042 30 136.77 30 136.487C30 136.204 30.1109 135.931 30.3103 135.723L41.1245 125.299C41.3399 125.107 41.6227 125 41.9162 125C42.2098 125 42.4925 125.107 42.7079 125.299L53.6714 135.723C53.7757 135.82 53.8586 135.937 53.915 136.065C53.9715 136.194 54.0004 136.332 54 136.472C53.9989 136.763 53.8811 137.041 53.6714 137.25L42.8572 147.674C42.7401 147.794 42.5949 147.885 42.4339 147.94C42.2728 147.995 42.1005 148.013 41.9312 147.991ZM32.7002 136.472L41.9312 145.37L51.162 136.472L41.9312 127.603L32.7002 136.472Z" fill="white"/>
<g style="mix-blend-mode:multiply">
<path d="M53.6831 146.725L43.2546 136.322C43.1553 136.22 43.0365 136.139 42.9054 136.084C42.7743 136.029 42.6334 136 42.4911 136C42.3488 136 42.208 136.029 42.0769 136.084C41.9457 136.139 41.827 136.22 41.7277 136.322L31.2991 146.725C31.1067 146.932 31 147.205 31 147.488C31 147.771 31.1067 148.044 31.2991 148.252L41.7277 158.683C41.9362 158.885 42.215 158.999 42.5055 159C42.6453 159 42.7837 158.972 42.9124 158.918C43.0411 158.864 43.1575 158.784 43.2546 158.683L53.6831 148.252C53.7837 148.155 53.8636 148.038 53.9181 147.91C53.9725 147.781 54.0004 147.642 54 147.503C53.9989 147.212 53.8854 146.933 53.6831 146.725Z" fill="white"/>
</g>
<path d="M455.502 245C455.212 244.999 454.933 244.88 454.724 244.669L444.322 233.789C444.22 233.685 444.139 233.561 444.084 233.425C444.028 233.288 444 233.141 444 232.992C444 232.844 444.028 232.697 444.084 232.56C444.139 232.423 444.22 232.299 444.322 232.196L454.724 221.315C454.937 221.112 455.214 221 455.502 221C455.79 221 456.068 221.112 456.28 221.315L466.682 232.196C466.788 232.299 466.871 232.425 466.926 232.565C466.98 232.706 467.005 232.856 466.999 233.007C467.005 233.154 466.98 233.3 466.925 233.435C466.87 233.57 466.787 233.691 466.682 233.789L456.28 244.669C456.072 244.88 455.793 244.999 455.502 245ZM446.598 232.977L455.502 242.235L464.406 232.977L455.502 223.72L446.598 232.977Z" fill="white"/>
<g style="mix-blend-mode:multiply">
<path d="M466.682 243.731L456.28 233.302C456.068 233.108 455.79 233 455.502 233C455.214 233 454.937 233.108 454.724 233.302L444.322 243.731C444.22 243.831 444.139 243.949 444.084 244.08C444.028 244.211 444 244.352 444 244.495C444 244.637 444.028 244.778 444.084 244.909C444.139 245.04 444.22 245.159 444.322 245.258L454.724 255.687C454.933 255.888 455.212 256 455.502 256C455.792 256 456.071 255.888 456.28 255.687L466.682 245.258C466.788 245.159 466.871 245.038 466.926 244.904C466.98 244.77 467.005 244.625 466.999 244.48C467.005 244.34 466.98 244.2 466.925 244.07C466.87 243.941 466.787 243.825 466.682 243.731Z" fill="white"/>
</g>
<g style="mix-blend-mode:multiply">
<path d="M433.192 121H366.808C363.6 121 361 123.558 361 126.714V175.286C361 178.442 363.6 181 366.808 181H433.192C436.4 181 439 178.442 439 175.286V126.714C439 123.558 436.4 121 433.192 121Z" fill="white"/>
</g>
<path d="M424.088 141H376.912C376.14 141 375.399 140.684 374.853 140.121C374.307 139.559 374 138.796 374 138C374 137.204 374.307 136.441 374.853 135.879C375.399 135.316 376.14 135 376.912 135H424.088C424.86 135 425.601 135.316 426.147 135.879C426.693 136.441 427 137.204 427 138C427 138.796 426.693 139.559 426.147 140.121C425.601 140.684 424.86 141 424.088 141Z" fill="white"/>
<path d="M424.088 154H376.912C376.14 154 375.399 153.684 374.853 153.121C374.307 152.559 374 151.796 374 151C374 150.204 374.307 149.441 374.853 148.879C375.399 148.316 376.14 148 376.912 148H424.088C424.86 148 425.601 148.316 426.147 148.879C426.693 149.441 427 150.204 427 151C427 151.796 426.693 152.559 426.147 153.121C425.601 153.684 424.86 154 424.088 154Z" fill="white"/>
<path d="M423.735 166.925H376.559C376.133 167.025 375.69 167.025 375.263 166.925C374.837 166.824 374.438 166.626 374.096 166.345C373.754 166.064 373.478 165.707 373.288 165.301C373.099 164.895 373 164.451 373 164C373 163.549 373.099 163.105 373.288 162.699C373.478 162.293 373.754 161.936 374.096 161.655C374.438 161.374 374.837 161.176 375.263 161.075C375.69 160.975 376.133 160.975 376.559 161.075H423.735C424.378 161.226 424.953 161.598 425.364 162.129C425.776 162.661 426 163.32 426 164C426 164.68 425.776 165.339 425.364 165.871C424.953 166.402 424.378 166.774 423.735 166.925Z" fill="white"/>
<defs>
<linearGradient id="paint0_linear" x1="85.8087" y1="264.5" x2="310.091" y2="362.264" gradientUnits="userSpaceOnUse">
<stop stop-color="#2F80ED"/>
<stop offset="1" stop-color="#E2EFFF"/>
</linearGradient>
<linearGradient id="paint1_linear" x1="85.8087" y1="264.5" x2="310.091" y2="362.264" gradientUnits="userSpaceOnUse">
<stop stop-color="#2F80ED"/>
<stop offset="1" stop-color="#E2EFFF"/>
</linearGradient>
</defs>
</svg>
