<svg width="1269" height="892" viewBox="0 0 1269 892" fill="none" xmlns="http://www.w3.org/2000/svg">
<path opacity="0.2" d="M295.246 272.164C335.526 261.899 372.01 236.955 408.067 205.349C430.631 185.569 453.061 163.149 476.159 140.061C489.958 126.269 503.995 112.238 518.441 98.3897C595.743 24.2881 684.944 -44.7762 813.076 -45.4963C877.108 -45.8562 943.893 -19.6917 1006.37 23.5122C1068.85 66.7134 1126.99 126.931 1173.72 194.618C1220.45 262.306 1255.76 337.446 1272.59 410.483C1289.42 483.523 1287.77 554.424 1260.63 613.67C1208.23 727.823 1104.85 802.931 978.809 845.941C852.764 888.95 704.096 899.844 561.208 885.591C418.319 871.338 281.25 831.942 178.405 774.409C75.5385 716.864 7.02582 641.246 0.983997 554.591L0.983975 554.591C-4.25446 480.128 33.5278 418.689 90.5443 371.262C147.565 323.832 223.777 290.46 295.246 272.164ZM295.246 272.164L295.123 271.68M295.246 272.164C295.246 272.164 295.247 272.164 295.247 272.164L295.123 271.68M295.123 271.68C360.426 255.037 415.81 199.677 475.786 139.727C563.364 52.1866 660.733 -45.1402 813.073 -45.9963C1069.74 -47.4388 1369.88 376.37 1261.09 613.878L0.485208 554.626C-10.0217 405.275 152.085 308.296 295.123 271.68Z" stroke="#2F80ED"/>
<path opacity="0.3" d="M87.9182 536.91L87.9182 536.91C83.3917 472.478 116.038 419.311 165.318 378.263C214.601 337.212 280.476 308.327 342.254 292.491C377.09 283.601 408.64 261.999 439.813 234.636C459.321 217.512 478.714 198.101 498.684 178.113C510.612 166.173 522.746 154.028 535.232 142.042C602.056 77.8971 679.152 18.1264 789.893 17.5032C845.229 17.1918 902.95 39.8343 956.956 77.2298C1010.96 114.623 1061.21 166.745 1101.61 225.334C1142 283.924 1172.52 348.963 1187.07 412.18C1201.62 475.399 1200.19 536.76 1176.74 588.03C1131.45 686.827 1042.09 751.836 933.144 789.064C824.192 826.293 695.681 835.723 572.163 823.385C448.645 811.047 330.16 776.945 241.262 727.146C152.343 677.335 93.139 611.891 87.9182 536.91Z" stroke="#2F80ED"/>
<path opacity="0.5" d="M181.847 517.545L181.847 517.545C178.09 464.1 205.187 419.992 246.107 385.932C287.031 351.868 341.736 327.896 393.042 314.753C421.998 307.369 448.216 289.428 474.113 266.712C490.318 252.498 506.431 236.381 523.02 219.789C532.928 209.879 543.005 199.799 553.374 189.853C608.876 136.612 672.894 87.0197 764.845 86.5026C810.786 86.2443 858.714 105.03 903.564 136.064C948.41 167.095 990.146 210.351 1023.69 258.976C1057.24 307.601 1082.59 361.577 1094.67 414.038C1106.75 466.501 1105.56 517.413 1086.09 559.947C1048.48 641.926 974.29 695.875 883.806 726.771C793.321 757.667 686.588 765.495 584 755.255C481.41 745.015 383.005 716.711 309.176 675.382C235.326 634.041 186.181 579.74 181.847 517.545Z" stroke="#2F80ED"/>
<path opacity="0.7" d="M265.784 500.425L265.784 500.425C262.714 456.692 284.852 420.594 318.302 392.711C351.756 364.824 396.48 345.196 438.428 334.435C462.128 328.382 483.583 313.677 504.764 295.07C518.019 283.426 531.2 270.223 544.768 256.632C552.87 248.516 561.11 240.262 569.586 232.119C614.972 188.519 667.303 147.925 742.462 147.502C780.007 147.291 819.183 162.666 855.852 188.076C892.516 213.483 926.64 248.901 954.069 288.717C981.499 328.533 1002.22 372.728 1012.1 415.68C1021.98 458.635 1021 500.309 1005.09 535.121C974.349 602.232 913.697 646.402 839.716 671.7C765.734 696.999 678.463 703.409 594.577 695.024C510.691 686.638 430.229 663.461 369.865 629.62C309.481 595.768 269.324 551.316 265.784 500.425Z" stroke="#2F80ED"/>
<g style="mix-blend-mode:multiply">
<path d="M413.201 292H381.799C378.596 292 376 294.547 376 297.69V319.31C376 322.453 378.596 325 381.799 325H413.201C416.404 325 419 322.453 419 319.31V297.69C419 294.547 416.404 292 413.201 292Z" fill="#CBDBEC"/>
</g>
<path d="M273.25 499.918C267.833 422.854 351.411 372.814 425.158 353.92C507.991 332.793 559.869 190.746 692.201 190.002C824.533 189.258 979.279 407.939 923.188 530.491C814.96 766.435 285.747 679.295 273.25 499.918Z" fill="#CBDBEC"/>
<path d="M643.666 113.465C643.666 114.499 643.255 115.491 642.521 116.222C641.788 116.953 640.794 117.364 639.758 117.364C632.511 117.371 625.563 120.246 620.438 125.357C615.314 130.468 612.432 137.398 612.424 144.626C612.424 145.66 612.013 146.652 611.279 147.383C610.546 148.114 609.552 148.525 608.516 148.525C607.479 148.525 606.485 148.114 605.752 147.383C605.019 146.652 604.607 145.66 604.607 144.626C604.622 135.332 608.33 126.424 614.919 119.852C621.508 113.28 630.44 109.581 639.758 109.566C640.271 109.566 640.779 109.667 641.253 109.863C641.728 110.059 642.159 110.346 642.521 110.708C642.884 111.07 643.172 111.5 643.369 111.973C643.565 112.446 643.666 112.953 643.666 113.465ZM639.758 125.303C634.584 125.311 629.625 127.364 625.966 131.013C622.308 134.662 620.25 139.608 620.242 144.769C620.196 145.307 620.262 145.848 620.437 146.359C620.612 146.871 620.891 147.34 621.257 147.738C621.623 148.136 622.068 148.453 622.564 148.671C623.06 148.888 623.595 149 624.137 149C624.678 149 625.214 148.888 625.709 148.671C626.205 148.453 626.65 148.136 627.016 147.738C627.382 147.34 627.661 146.871 627.836 146.359C628.011 145.848 628.077 145.307 628.031 144.769C628.039 141.669 629.277 138.698 631.474 136.506C633.672 134.315 636.65 133.08 639.758 133.072C640.297 133.119 640.84 133.052 641.353 132.878C641.865 132.704 642.336 132.425 642.735 132.06C643.133 131.695 643.452 131.251 643.67 130.757C643.888 130.262 644 129.728 644 129.188C644 128.648 643.888 128.114 643.67 127.619C643.452 127.125 643.133 126.681 642.735 126.316C642.336 125.951 641.865 125.672 641.353 125.498C640.84 125.324 640.297 125.257 639.758 125.303ZM639.758 94C626.3 94.0151 613.399 99.3537 603.883 108.845C594.368 118.336 589.015 131.204 589 144.626C589 145.66 589.412 146.652 590.145 147.383C590.878 148.114 591.872 148.525 592.909 148.525C593.945 148.525 594.94 148.114 595.673 147.383C596.406 146.652 596.818 145.66 596.818 144.626C596.87 133.321 601.396 122.494 609.411 114.5C617.425 106.506 628.281 101.992 639.615 101.94C640.652 101.94 641.646 101.529 642.379 100.798C643.112 100.067 643.524 99.075 643.524 98.041C643.524 97.007 643.112 96.0153 642.379 95.2842C641.646 94.553 640.652 94.1423 639.615 94.1423L639.758 94Z" fill="#D8DEE7"/>
<path d="M572.806 376.702C572.447 377.072 572.018 377.367 571.545 377.567C571.072 377.768 570.563 377.872 570.05 377.872C569.537 377.872 569.028 377.768 568.555 377.567C568.082 377.367 567.653 377.072 567.294 376.702C562.155 371.54 555.198 368.642 547.945 368.642C540.692 368.642 533.735 371.54 528.596 376.702C527.853 377.383 526.88 377.75 525.876 377.727C524.873 377.704 523.917 377.293 523.206 376.579C522.494 375.865 522.082 374.903 522.054 373.892C522.026 372.88 522.385 371.896 523.056 371.144C529.661 364.506 538.606 360.779 547.931 360.779C557.256 360.779 566.2 364.506 572.806 371.144C573.173 371.506 573.465 371.938 573.664 372.415C573.863 372.893 573.965 373.405 573.965 373.923C573.965 374.441 573.863 374.953 573.664 375.431C573.465 375.908 573.173 376.34 572.806 376.702ZM561.754 382.29C558.086 378.596 553.114 376.522 547.931 376.522C542.747 376.522 537.776 378.596 534.108 382.29C533.437 383.043 533.079 384.026 533.106 385.038C533.134 386.05 533.547 387.012 534.258 387.726C534.969 388.439 535.926 388.85 536.929 388.873C537.932 388.896 538.906 388.529 539.649 387.849C541.853 385.638 544.836 384.397 547.945 384.397C551.054 384.397 554.037 385.638 556.242 387.849C556.603 388.214 557.033 388.503 557.506 388.701C557.979 388.898 558.486 389 558.998 389C559.509 389 560.016 388.898 560.489 388.701C560.962 388.503 561.392 388.214 561.754 387.849C562.115 387.484 562.403 387.05 562.598 386.574C562.794 386.097 562.895 385.586 562.895 385.069C562.895 384.553 562.794 384.042 562.598 383.565C562.403 383.088 562.115 382.655 561.754 382.29ZM583.858 359.997C574.326 350.394 561.404 345 547.931 345C534.457 345 521.535 350.394 512.003 359.997C511.332 360.75 510.974 361.734 511.002 362.745C511.029 363.757 511.442 364.719 512.153 365.433C512.865 366.147 513.821 366.557 514.824 366.58C515.827 366.603 516.801 366.237 517.544 365.556C525.612 357.436 536.546 352.875 547.945 352.875C559.344 352.875 570.278 357.436 578.347 365.556C579.077 366.293 580.069 366.707 581.102 366.707C582.136 366.707 583.128 366.293 583.858 365.556C584.589 364.819 585 363.819 585 362.777C585 361.734 584.589 360.734 583.858 359.997Z" fill="white"/>
<path d="M887.002 269C886.724 268.999 886.457 268.886 886.258 268.684L876.308 258.296C876.211 258.197 876.133 258.079 876.08 257.948C876.027 257.818 876 257.677 876 257.536C876 257.394 876.027 257.254 876.08 257.123C876.133 256.992 876.211 256.874 876.308 256.775L886.258 246.301C886.461 246.107 886.727 246 887.002 246C887.277 246 887.543 246.107 887.746 246.301L897.696 256.689C897.796 256.782 897.876 256.898 897.928 257.027C897.98 257.156 898.005 257.295 897.999 257.435C898.005 257.579 897.981 257.723 897.929 257.857C897.876 257.991 897.797 258.111 897.696 258.21L887.746 268.598C887.654 268.714 887.541 268.809 887.413 268.878C887.285 268.947 887.146 268.988 887.002 269ZM878.485 257.521L887.002 266.389L895.519 257.521L887.002 248.654L878.485 257.521Z" fill="#CBDBEC"/>
<path d="M493.99 256.998C493.856 256.999 493.724 256.971 493.601 256.916C493.478 256.862 493.367 256.781 493.274 256.68L483.31 246.242C483.212 246.14 483.134 246.018 483.081 245.884C483.027 245.75 483 245.607 483 245.461C483 245.316 483.027 245.173 483.081 245.039C483.134 244.905 483.212 244.783 483.31 244.681L493.274 234.3C493.473 234.107 493.733 234 494.004 234C494.274 234 494.535 234.107 494.733 234.3L504.697 244.739C504.89 244.948 504.999 245.228 505 245.519C504.996 245.81 504.888 246.089 504.697 246.3L494.733 256.738C494.525 256.92 494.26 257.013 493.99 256.998ZM485.512 245.433L493.99 254.541L502.578 245.461L494.072 236.527L485.512 245.433Z" fill="#CBDBEC"/>
<g style="mix-blend-mode:multiply">
<path d="M504.697 255.728L494.732 245.299C494.534 245.107 494.273 245 494.002 245C493.732 245 493.471 245.107 493.273 245.299L483.308 255.728C483.21 255.827 483.133 255.946 483.08 256.077C483.027 256.208 483 256.349 483 256.491C483 256.633 483.027 256.774 483.08 256.905C483.133 257.037 483.21 257.155 483.308 257.255L493.273 267.683C493.366 267.784 493.477 267.864 493.6 267.918C493.723 267.972 493.855 268 493.989 268C494.266 267.999 494.533 267.885 494.732 267.683L504.697 257.255C504.89 257.046 504.999 256.767 505 256.477C504.995 256.196 504.886 255.927 504.697 255.728Z" fill="#CBDBEC"/>
</g>
<g style="mix-blend-mode:multiply">
<path d="M430.491 292C430.201 291.998 429.923 291.885 429.714 291.684L419.299 281.287C419.107 281.08 419 280.809 419 280.526C419 280.244 419.107 279.972 419.299 279.765L429.714 269.312C429.923 269.112 430.202 269 430.491 269C430.781 269 431.059 269.112 431.268 269.312L441.684 279.708C441.784 279.805 441.864 279.921 441.918 280.049C441.973 280.177 442 280.315 442 280.455C441.999 280.744 441.885 281.022 441.684 281.23L431.268 291.684C431.168 291.787 431.047 291.869 430.913 291.924C430.779 291.978 430.636 292.004 430.491 292ZM421.601 280.512L430.491 289.415L439.382 280.541L430.491 271.695L421.601 280.512Z" fill="#CBDBEC"/>
</g>
<path d="M829.272 148H660.728C648.176 148 638 158.185 638 170.749V534.251C638 546.815 648.176 557 660.728 557H829.272C841.824 557 852 546.815 852 534.251V170.749C852 158.185 841.824 148 829.272 148Z" fill="url(#paint0_linear)"/>
<path d="M829.497 558H660.503C654.272 557.992 648.298 555.514 643.892 551.109C639.486 546.704 637.008 540.732 637 534.502V170.498C637 164.266 639.476 158.289 643.884 153.882C648.291 149.476 654.269 147 660.503 147H829.497C835.731 147 841.709 149.476 846.116 153.882C850.524 158.289 853 164.266 853 170.498V534.502C852.992 540.732 850.514 546.704 846.108 551.109C841.702 555.514 835.728 557.992 829.497 558ZM660.503 148.406C654.652 148.413 649.044 150.74 644.907 154.876C640.77 159.013 638.442 164.62 638.435 170.469V534.502C638.442 540.351 640.77 545.959 644.907 550.095C649.044 554.231 654.652 556.558 660.503 556.565H829.497C835.348 556.558 840.956 554.231 845.093 550.095C849.23 545.959 851.558 540.351 851.565 534.502V170.498C851.565 164.644 849.241 159.029 845.103 154.887C840.966 150.744 835.353 148.413 829.497 148.406H660.503Z" fill="#321288"/>
<path d="M834.844 174H656.156C649.994 174 645 178.99 645 185.145V519.855C645 526.01 649.994 531 656.156 531H834.844C841.006 531 846 526.01 846 519.855V185.145C846 178.99 841.006 174 834.844 174Z" fill="white"/>
<path d="M810.729 225H613.271C606.494 225 601 230.456 601 237.187V346.813C601 353.544 606.494 359 613.271 359H810.729C817.506 359 823 353.544 823 346.813V237.187C823 230.456 817.506 225 810.729 225Z" fill="url(#paint1_linear)"/>
<path d="M810 357.599H613.228C610.365 357.599 607.619 356.464 605.594 354.443C603.569 352.422 602.432 349.681 602.432 346.823V237H601V346.794C601 348.397 601.316 349.984 601.931 351.465C602.545 352.946 603.446 354.292 604.582 355.425C605.717 356.558 607.065 357.457 608.549 358.071C610.032 358.684 611.623 359 613.228 359H810V357.599Z" fill="#2F80ED"/>
<path opacity="0.5" d="M693.564 326.273H620.85C619.532 326.175 618.299 325.579 617.399 324.605C616.5 323.63 616 322.349 616 321.019C616 319.69 616.5 318.409 617.399 317.434C618.299 316.46 619.532 315.864 620.85 315.765H693.564C694.282 315.712 695.004 315.808 695.683 316.048C696.363 316.288 696.986 316.666 697.514 317.159C698.042 317.652 698.463 318.249 698.751 318.914C699.039 319.578 699.187 320.295 699.187 321.019C699.187 321.744 699.039 322.461 698.751 323.125C698.463 323.789 698.042 324.387 697.514 324.88C696.986 325.373 696.363 325.751 695.683 325.991C695.004 326.231 694.282 326.327 693.564 326.273ZM768.166 321.005C768.166 320.315 768.031 319.631 767.767 318.993C767.504 318.356 767.117 317.777 766.631 317.29C766.144 316.803 765.566 316.418 764.931 316.156C764.296 315.894 763.616 315.762 762.929 315.765H711.105C710.387 315.712 709.666 315.808 708.986 316.048C708.306 316.288 707.683 316.666 707.155 317.159C706.627 317.652 706.206 318.249 705.918 318.914C705.63 319.578 705.482 320.295 705.482 321.019C705.482 321.744 705.63 322.461 705.918 323.125C706.206 323.789 706.627 324.387 707.155 324.88C707.683 325.373 708.306 325.751 708.986 325.991C709.666 326.231 710.387 326.327 711.105 326.273H762.929C764.318 326.273 765.65 325.718 766.632 324.73C767.614 323.742 768.166 322.402 768.166 321.005ZM677.825 259.483C677.825 258.09 677.277 256.755 676.301 255.767C675.325 254.78 674.001 254.222 672.617 254.214H620.85C619.532 254.312 618.299 254.909 617.399 255.883C616.5 256.858 616 258.138 616 259.468C616 260.798 616.5 262.079 617.399 263.053C618.299 264.028 619.532 264.624 620.85 264.722H672.703C674.067 264.692 675.365 264.128 676.322 263.149C677.278 262.171 677.818 260.855 677.825 259.483ZM727.789 337.732C727.789 336.342 727.24 335.009 726.263 334.027C725.287 333.044 723.962 332.492 722.581 332.492H620.85C619.532 332.59 618.299 333.186 617.399 334.161C616.5 335.135 616 336.416 616 337.746C616 339.076 616.5 340.357 617.399 341.331C618.299 342.306 619.532 342.902 620.85 343H722.666C723.353 343 724.032 342.864 724.666 342.598C725.3 342.333 725.875 341.945 726.359 341.455C726.843 340.966 727.226 340.385 727.486 339.746C727.746 339.107 727.878 338.422 727.875 337.732H727.789ZM789.657 241C786.022 240.994 782.467 242.073 779.442 244.101C776.417 246.128 774.058 249.013 772.663 252.39C771.269 255.766 770.901 259.484 771.606 263.071C772.312 266.658 774.059 269.954 776.628 272.542C779.196 275.129 782.469 276.893 786.034 277.608C789.598 278.324 793.294 277.959 796.652 276.561C800.011 275.163 802.882 272.794 804.902 269.754C806.922 266.714 808 263.139 808 259.483C808.008 254.598 806.09 249.91 802.668 246.446C799.246 242.981 794.598 241.023 789.743 241H789.657Z" fill="white"/>
<path d="M801.14 455H689.86C685.654 455 681.62 453.314 678.645 450.314C675.671 447.313 674 443.243 674 439C674 434.757 675.671 430.687 678.645 427.686C681.62 424.686 685.654 423 689.86 423H801.14C805.346 423 809.38 424.686 812.355 427.686C815.329 430.687 817 434.757 817 439C817 443.243 815.329 447.313 812.355 450.314C809.38 453.314 805.346 455 801.14 455Z" fill="url(#paint2_linear)"/>
<path d="M695.5 443C697.433 443 699 441.433 699 439.5C699 437.567 697.433 436 695.5 436C693.567 436 692 437.567 692 439.5C692 441.433 693.567 443 695.5 443Z" fill="white"/>
<path d="M719 439.5C719 440.192 718.795 440.869 718.41 441.444C718.026 442.02 717.479 442.469 716.839 442.734C716.2 442.998 715.496 443.068 714.817 442.933C714.138 442.798 713.515 442.464 713.025 441.975C712.536 441.485 712.202 440.862 712.067 440.183C711.932 439.504 712.002 438.8 712.266 438.161C712.531 437.521 712.98 436.974 713.555 436.59C714.131 436.205 714.808 436 715.5 436C716.428 436 717.318 436.369 717.975 437.025C718.631 437.681 719 438.572 719 439.5Z" fill="white"/>
<path d="M735.5 443C737.433 443 739 441.433 739 439.5C739 437.567 737.433 436 735.5 436C733.567 436 732 437.567 732 439.5C732 441.433 733.567 443 735.5 443Z" fill="white"/>
<path d="M755.5 443C757.433 443 759 441.433 759 439.5C759 437.567 757.433 436 755.5 436C753.567 436 752 437.567 752 439.5C752 441.433 753.567 443 755.5 443Z" fill="white"/>
<path d="M779 439.5C779 440.192 778.795 440.869 778.41 441.444C778.026 442.02 777.479 442.469 776.839 442.734C776.2 442.998 775.496 443.068 774.817 442.933C774.138 442.798 773.515 442.464 773.025 441.975C772.536 441.485 772.202 440.862 772.067 440.183C771.932 439.504 772.002 438.8 772.266 438.161C772.531 437.521 772.98 436.974 773.555 436.59C774.131 436.205 774.808 436 775.5 436C776.428 436 777.318 436.369 777.975 437.025C778.631 437.681 779 438.572 779 439.5Z" fill="white"/>
<path d="M795.5 443C797.433 443 799 441.433 799 439.5C799 437.567 797.433 436 795.5 436C793.567 436 792 437.567 792 439.5C792 441.433 793.567 443 795.5 443Z" fill="white"/>
<path d="M744 558H734.909L637 478.376V471L744 558Z" fill="#E3EAF4"/>
<path d="M480.539 479.598C478.603 480.118 476.577 480.217 474.599 479.887C472.621 479.557 470.738 478.805 469.078 477.685C431.831 456.185 427.963 455.871 423.236 444.821C421.781 441.862 421.036 438.607 421.058 435.313C421.058 435.084 421.058 435.027 421.058 435.027C421.052 434.98 421.052 434.932 421.058 434.884V434.713C421.072 434.657 421.072 434.598 421.058 434.542C420.874 434.097 420.623 433.683 420.314 433.314C420.027 433.184 419.73 433.079 419.425 433H419.253L308 496.872C308.15 496.831 308.308 496.831 308.458 496.872C308.882 496.953 309.265 497.175 309.547 497.5C309.649 497.628 309.745 497.762 309.834 497.9C310.167 498.358 310.357 498.905 310.378 499.47V500.041C310.562 503.709 311.539 507.293 313.243 510.549C313.472 511.005 313.73 511.462 313.988 511.919C314.772 513.123 315.643 514.269 316.595 515.345L316.911 515.802C318.601 517.909 320.647 519.706 322.956 521.113L359.114 541.899C360.904 543.081 362.965 543.79 365.105 543.96C367.245 544.13 369.394 543.755 371.348 542.87L482 478.798C481.539 479.109 481.05 479.377 480.539 479.598Z" fill="white"/>
<path d="M385.406 476.659C381.423 478.966 380.162 483.725 380.076 488.397V533.561C380.076 538.867 378.442 544.404 374 547C375.691 546.019 484.852 482.341 486.313 481.014L486.686 480.61C489.262 477.676 490.661 473.883 490.612 469.968C490.612 469.651 490.612 469.305 490.612 468.959V423.738C490.43 420.343 491.445 416.993 493.478 414.278L493.994 413.644C494.582 413.003 495.257 412.449 496 412L385.406 476.659Z" fill="#C5D6FF"/>
<path d="M493.029 408.055L390.993 467.394L392.074 469.252L494.109 409.914L493.029 408.055Z" fill="#E3EAF4"/>
<path d="M508.559 410.851C503.94 408.206 498.258 406.756 493.696 409.401L383 473.164C387.591 470.519 393.272 471.97 397.891 474.615L414.304 484L525 420.237L508.559 410.851Z" fill="white"/>
<path d="M414.594 484.311L398.177 474.86C386.697 468.216 377.226 473.543 377.197 486.745V531.594C377.197 537.322 375.159 541.389 371.859 543.222C368.558 545.055 364.052 544.825 359.029 541.933L323.498 521.456C319.792 519.056 316.707 515.815 314.497 511.997C312.287 508.179 311.015 503.893 310.784 499.49C310.758 499.01 310.619 498.542 310.38 498.124C310.141 497.707 309.808 497.351 309.406 497.084C308.631 496.626 308 497.084 308 497.886C308.289 503.252 309.843 508.473 312.537 513.126C315.23 517.779 318.985 521.732 323.498 524.664L359.029 545.14C370.51 551.785 379.981 546.458 380.01 533.227V488.378C380.01 482.65 382.047 478.612 385.348 476.722C388.648 474.832 393.154 475.147 398.177 478.039L414.594 487.519C415.369 487.948 416 487.519 416 486.688C415.966 486.21 415.821 485.747 415.577 485.334C415.333 484.922 414.997 484.572 414.594 484.311Z" fill="#A4C2FF"/>
<path d="M526 421.89C525.925 421.495 525.819 421.107 525.684 420.729C525.684 420.554 525.512 420.496 525.454 420.38C525.46 420.303 525.46 420.225 525.454 420.148L525.311 420.002C524.794 419.538 414 484.66 414 484.66C414.192 484.78 414.366 484.926 414.517 485.095C414.629 485.225 414.735 485.361 414.833 485.502L415.005 485.792C415.226 486.183 415.354 486.621 415.378 487.071C415.414 487.262 415.414 487.46 415.378 487.651C415.305 487.793 415.196 487.913 415.063 488L525.684 422.878L525.943 422.646C526 421.949 526 421.89 526 421.89Z" fill="#9CA2B0"/>
<path d="M655.567 681.311L422.021 490.091C420.635 488.942 419.161 487.904 417.613 486.987C411.717 483.567 406.164 483.078 401.784 485.55C397.404 488.022 395.172 493.138 395.143 499.921L395 554.531C395.389 561.955 397.521 569.181 401.222 575.62C404.923 582.059 410.089 587.527 416.297 591.579L650.129 727.126C653.036 728.92 656.364 729.911 659.775 730C661.784 730.005 663.758 729.48 665.5 728.477C669.651 726.091 671.969 721.09 671.998 714.451C672.141 703.126 665.185 689.186 655.567 681.311Z" fill="#1A59AF"/>
<path d="M794.525 600.656L560.253 410.057C558.87 408.903 557.392 407.868 555.833 406.963C550.094 403.582 544.181 403.067 539.934 405.559L401.547 485.775C401.423 485.844 401.314 485.936 401.227 486.047C401.14 486.158 401.075 486.285 401.038 486.422C401 486.558 400.991 486.7 401.009 486.84C401.027 486.98 401.073 487.115 401.145 487.236C401.213 487.36 401.306 487.468 401.417 487.555C401.528 487.643 401.656 487.707 401.792 487.744C401.928 487.782 402.071 487.791 402.211 487.773C402.351 487.755 402.486 487.709 402.608 487.637C406.196 485.546 411.218 486.062 416.355 489.041C417.809 489.896 419.2 490.853 420.517 491.906L654.673 682.505C663.828 689.983 670.487 703.19 670.458 713.876C670.458 719.605 668.506 723.96 665.062 725.994C664.846 726.103 664.674 726.282 664.574 726.502C664.474 726.722 664.453 726.97 664.513 727.204C664.573 727.438 664.712 727.644 664.906 727.789C665.1 727.934 665.337 728.008 665.579 727.999C665.77 727.996 665.957 727.947 666.124 727.856L804.512 647.64C808.673 645.233 810.969 640.277 810.998 633.688C811.141 622.401 804.196 608.506 794.525 600.656Z" fill="url(#paint3_linear)"/>
<path d="M396.058 556C395.917 556 395.777 555.971 395.647 555.916C395.516 555.86 395.399 555.779 395.3 555.677C395.201 555.574 395.124 555.453 395.073 555.32C395.021 555.187 394.997 555.045 395 554.902L395.143 499.995C395.143 493.146 397.516 488.002 401.776 485.546C406.035 483.09 411.695 483.552 417.584 486.991C417.791 487.155 417.932 487.389 417.981 487.649C418.03 487.91 417.984 488.18 417.851 488.409C417.719 488.638 417.509 488.811 417.26 488.896C417.011 488.98 416.741 488.971 416.498 488.869C411.295 485.98 406.464 485.315 402.833 487.425C399.203 489.534 397.316 493.984 397.287 500.024L397.144 554.931C397.137 555.217 397.019 555.489 396.816 555.689C396.613 555.888 396.341 556 396.058 556Z" fill="#2F80ED"/>
<path d="M569.181 445.13L468.597 503.462C465.149 505.439 465.12 509.192 468.597 512.057L540.443 570.474C542.172 571.835 544.25 572.685 546.439 572.928C548.628 573.171 550.842 572.797 552.829 571.849L653.414 513.546C656.833 511.541 656.891 507.673 653.414 504.951L581.568 446.534C579.838 445.175 577.763 444.324 575.575 444.076C573.387 443.828 571.173 444.193 569.181 445.13Z" fill="white"/>
<path d="M608 576.591C607.979 576.977 607.863 577.353 607.664 577.685C607.465 578.017 607.188 578.297 606.857 578.499C606.857 578.499 606.857 578.499 606.6 578.698L579.457 594.391C578.533 594.855 577.501 595.06 576.469 594.985C575.438 594.91 574.446 594.557 573.6 593.964L563.114 585.42C562.789 585.2 562.519 584.909 562.326 584.568C562.132 584.227 562.021 583.846 562 583.455C562.013 583.008 562.151 582.574 562.398 582.201C562.645 581.829 562.992 581.533 563.4 581.347L590.486 565.597C591.412 565.137 592.446 564.937 593.478 565.017C594.509 565.098 595.499 565.455 596.343 566.053L606.943 574.597C607.261 574.826 607.523 575.124 607.706 575.47C607.89 575.816 607.99 576.2 608 576.591Z" fill="#90B4FF"/>
<path d="M608 576V580.022C607.972 580.479 607.828 580.919 607.582 581.301C607.337 581.682 606.998 581.99 606.6 582.195L579.457 598.372C578.533 598.85 577.501 599.062 576.469 598.984C575.438 598.907 574.446 598.543 573.6 597.932L563.029 589.124C562.726 588.894 562.477 588.599 562.3 588.259C562.122 587.919 562.019 587.542 562 587.157V583.076C562.017 583.462 562.119 583.839 562.297 584.179C562.475 584.52 562.725 584.815 563.029 585.043L573.6 593.851C574.446 594.462 575.438 594.826 576.469 594.903C577.501 594.981 578.533 594.769 579.457 594.291L606.6 578.114C606.6 578.114 606.8 578.114 606.857 577.908C607.181 577.706 607.453 577.427 607.652 577.095C607.85 576.764 607.97 576.388 608 576Z" fill="#321288"/>
<path d="M648 553.003C647.981 553.402 647.867 553.79 647.668 554.133C647.469 554.477 647.19 554.764 646.858 554.971L646.572 555.176L619.475 571.363C618.548 571.847 617.511 572.062 616.474 571.984C615.438 571.907 614.441 571.54 613.593 570.923L603.142 562.109C602.811 561.88 602.536 561.575 602.338 561.218C602.14 560.862 602.024 560.463 602 560.053C602.013 559.592 602.15 559.145 602.398 558.76C602.645 558.376 602.992 558.071 603.399 557.879L630.497 541.634C631.42 541.144 632.458 540.931 633.493 541.019C634.528 541.108 635.518 541.494 636.35 542.133L646.944 550.946C647.262 551.182 647.523 551.49 647.706 551.847C647.89 552.204 647.99 552.599 648 553.003Z" fill="#90B4FF"/>
<path d="M648 553V557.021C647.969 557.48 647.821 557.923 647.57 558.304C647.32 558.685 646.975 558.992 646.572 559.193L619.475 575.364C618.548 575.847 617.511 576.062 616.474 575.984C615.438 575.907 614.441 575.54 613.593 574.924L603.056 566.119C602.745 565.897 602.487 565.604 602.304 565.263C602.12 564.922 602.016 564.542 602 564.153V560.132C602.016 560.521 602.12 560.901 602.304 561.242C602.487 561.584 602.745 561.876 603.056 562.098L613.593 570.903C614.441 571.519 615.438 571.886 616.474 571.964C617.511 572.041 618.548 571.827 619.475 571.343L646.572 555.172L646.858 554.966C647.19 554.76 647.469 554.473 647.668 554.13C647.867 553.787 647.981 553.399 648 553Z" fill="#321288"/>
<path d="M688 529.993C687.987 530.39 687.878 530.778 687.683 531.122C687.489 531.466 687.215 531.755 686.886 531.963L686.6 532.169L659.457 548.371C658.533 548.85 657.501 549.062 656.469 548.984C655.438 548.907 654.446 548.542 653.6 547.93L643.114 539.109C642.79 538.874 642.521 538.567 642.328 538.211C642.135 537.854 642.023 537.458 642 537.05C642.013 536.589 642.151 536.141 642.398 535.756C642.645 535.372 642.992 535.066 643.4 534.874L670.486 518.613C671.418 518.137 672.459 517.932 673.496 518.02C674.533 518.108 675.528 518.486 676.371 519.113L686.943 527.935C687.266 528.165 687.531 528.473 687.715 528.831C687.899 529.189 687.997 529.588 688 529.993Z" fill="#90B4FF"/>
<path d="M688 530V533.847C687.975 534.285 687.832 534.708 687.586 535.073C687.34 535.438 687 535.732 686.6 535.926L659.457 551.399C658.533 551.857 657.501 552.059 656.469 551.985C655.438 551.911 654.446 551.563 653.6 550.978L643.057 542.553C642.745 542.341 642.487 542.061 642.304 541.734C642.12 541.408 642.016 541.044 642 540.672V536.768C642.016 537.141 642.12 537.504 642.304 537.831C642.487 538.157 642.745 538.438 643.057 538.65L653.6 547.075C654.446 547.659 655.438 548.007 656.469 548.081C657.501 548.156 658.533 547.953 659.457 547.496L686.6 532.022L686.886 531.825C687.207 531.632 687.476 531.365 687.67 531.047C687.864 530.729 687.977 530.37 688 530Z" fill="#321288"/>
<path d="M630 593.615C629.979 594.001 629.863 594.376 629.665 594.708C629.466 595.039 629.189 595.318 628.858 595.52L628.601 595.691L601.475 611.392C600.552 611.855 599.52 612.06 598.489 611.985C597.458 611.91 596.467 611.557 595.621 610.965L585.142 602.432C584.813 602.208 584.538 601.913 584.34 601.568C584.143 601.223 584.026 600.837 584 600.441C584.022 599.994 584.166 599.561 584.418 599.19C584.67 598.818 585.019 598.523 585.428 598.336L612.497 582.635C613.415 582.151 614.453 581.936 615.49 582.017C616.526 582.097 617.518 582.47 618.35 583.09L628.943 591.624C629.262 591.852 629.523 592.15 629.706 592.496C629.89 592.841 629.99 593.224 630 593.615Z" fill="#90B4FF"/>
<path d="M630 594V597.819C629.975 598.257 629.832 598.679 629.586 599.045C629.34 599.41 629 599.704 628.601 599.898L601.475 615.399C600.552 615.857 599.52 616.059 598.489 615.985C597.458 615.911 596.467 615.563 595.621 614.978L585.056 606.553C584.749 606.337 584.495 606.055 584.312 605.73C584.129 605.404 584.023 605.043 584 604.672V600.824C584.019 601.196 584.123 601.559 584.307 601.885C584.49 602.212 584.746 602.492 585.056 602.706L595.621 611.131C596.467 611.715 597.458 612.063 598.489 612.138C599.52 612.212 600.552 612.009 601.475 611.552L628.601 596.05L629.001 595.797C629.294 595.591 629.536 595.322 629.709 595.011C629.882 594.7 629.982 594.354 630 594Z" fill="#321288"/>
<path d="M670 570.593C669.984 570.977 669.874 571.351 669.68 571.684C669.486 572.016 669.213 572.296 668.886 572.5L668.6 572.699L641.486 588.383C640.559 588.852 639.52 589.06 638.483 588.985C637.446 588.91 636.449 588.554 635.6 587.956L625.143 579.417C624.808 579.198 624.531 578.903 624.332 578.557C624.133 578.21 624.02 577.822 624 577.424C624.015 576.982 624.154 576.553 624.401 576.185C624.649 575.818 624.995 575.527 625.4 575.346L652.486 559.605C653.415 559.14 654.455 558.937 655.492 559.017C656.529 559.097 657.525 559.458 658.371 560.061L668.943 568.6C669.261 568.828 669.523 569.127 669.706 569.473C669.889 569.818 669.99 570.202 670 570.593Z" fill="#90B4FF"/>
<path d="M670 571V574.818C669.981 575.256 669.84 575.682 669.594 576.048C669.347 576.414 669.004 576.707 668.6 576.895L641.486 592.391C640.559 592.854 639.52 593.059 638.483 592.985C637.446 592.911 636.449 592.56 635.6 591.97L625.057 583.549C624.742 583.34 624.482 583.06 624.298 582.733C624.114 582.406 624.012 582.041 624 581.668V577.822C624.016 578.198 624.12 578.566 624.303 578.897C624.487 579.227 624.745 579.513 625.057 579.731L635.6 588.152C636.449 588.742 637.446 589.093 638.483 589.167C639.52 589.241 640.559 589.036 641.486 588.574L668.6 573.105L668.886 572.909C669.217 572.706 669.492 572.425 669.687 572.092C669.881 571.759 669.989 571.384 670 571Z" fill="#321288"/>
<path d="M709 547.591C708.979 547.977 708.863 548.353 708.664 548.685C708.465 549.017 708.188 549.297 707.857 549.499C707.857 549.499 707.857 549.499 707.6 549.698L680.457 565.391C679.533 565.855 678.501 566.06 677.469 565.985C676.438 565.91 675.446 565.557 674.6 564.964L664.114 556.42C663.792 556.197 663.524 555.905 663.331 555.564C663.138 555.224 663.025 554.845 663 554.454C663.009 554.007 663.146 553.572 663.394 553.199C663.642 552.825 663.99 552.53 664.4 552.347L691.486 536.597C692.412 536.137 693.446 535.937 694.478 536.017C695.509 536.098 696.499 536.455 697.343 537.053L707.943 545.597C708.261 545.826 708.523 546.124 708.706 546.47C708.889 546.816 708.99 547.2 709 547.591Z" fill="#90B4FF"/>
<path d="M709 548V551.847C708.976 552.281 708.833 552.701 708.587 553.062C708.34 553.422 707.999 553.711 707.6 553.898L680.457 569.399C679.533 569.857 678.501 570.059 677.469 569.985C676.438 569.911 675.446 569.563 674.6 568.978L664.057 560.553C663.742 560.344 663.482 560.065 663.298 559.738C663.114 559.411 663.012 559.045 663 558.672V554.852C663.019 555.224 663.124 555.587 663.307 555.914C663.49 556.24 663.747 556.52 664.057 556.734L674.6 565.159C675.446 565.744 676.438 566.092 677.469 566.166C678.501 566.24 679.533 566.038 680.457 565.58L707.6 550.106C707.6 550.106 707.8 550.106 707.857 549.91C708.192 549.708 708.472 549.428 708.671 549.095C708.87 548.762 708.983 548.386 709 548Z" fill="#321288"/>
<path d="M652 611.606C651.981 611.993 651.866 612.37 651.667 612.702C651.467 613.035 651.188 613.314 650.854 613.514L650.568 613.713L623.386 629.432C622.478 629.869 621.47 630.059 620.464 629.984C619.458 629.909 618.49 629.571 617.658 629.005L607.146 620.462C606.814 620.24 606.537 619.944 606.339 619.599C606.14 619.253 606.024 618.866 606 618.469C606.019 618.024 606.16 617.593 606.407 617.221C606.654 616.85 606.999 616.553 607.403 616.362L634.585 600.614C635.511 600.14 636.553 599.933 637.591 600.019C638.629 600.104 639.622 600.479 640.457 601.098L651.083 609.641C651.37 609.884 651.6 610.185 651.758 610.524C651.916 610.863 651.999 611.232 652 611.606Z" fill="#90B4FF"/>
<path d="M652 612V615.854C651.969 616.295 651.821 616.719 651.569 617.085C651.318 617.45 650.972 617.744 650.568 617.937L623.386 633.439C622.478 633.87 621.47 634.058 620.464 633.984C619.458 633.91 618.49 633.576 617.658 633.017L607.06 624.576C606.747 624.364 606.488 624.083 606.305 623.756C606.121 623.429 606.017 623.065 606 622.691V618.837C606.017 619.21 606.121 619.574 606.305 619.902C606.488 620.229 606.747 620.509 607.06 620.722L617.658 629.162C618.49 629.722 619.458 630.056 620.464 630.13C621.47 630.204 622.478 630.016 623.386 629.584L650.568 614.054L650.854 613.857C651.184 613.662 651.461 613.391 651.66 613.067C651.86 612.744 651.976 612.378 652 612Z" fill="#321288"/>
<path d="M691 588.58C690.992 588.966 690.885 589.345 690.689 589.679C690.494 590.013 690.216 590.292 689.882 590.49L689.596 590.69L662.368 606.431C661.46 606.868 660.451 607.059 659.444 606.984C658.438 606.909 657.469 606.571 656.636 606.004L646.118 597.449C645.792 597.221 645.523 596.924 645.329 596.578C645.135 596.232 645.023 595.847 645 595.452C645.013 595.005 645.151 594.571 645.399 594.198C645.647 593.825 645.996 593.528 646.404 593.342L673.574 577.572C674.484 577.125 675.498 576.934 676.508 577.02C677.519 577.105 678.486 577.464 679.307 578.057L689.94 586.612C690.257 586.837 690.518 587.131 690.702 587.472C690.886 587.814 690.988 588.193 691 588.58Z" fill="#90B4FF"/>
<path d="M691 588V592.027C690.981 592.486 690.84 592.931 690.593 593.314C690.345 593.698 690 594.004 689.596 594.202L662.368 610.426C661.457 610.872 660.447 611.064 659.441 610.981C658.434 610.899 657.467 610.545 656.636 609.956L646.06 601.138C645.747 600.916 645.489 600.623 645.305 600.281C645.121 599.939 645.017 599.559 645 599.169V595.142C645.017 595.532 645.121 595.913 645.305 596.254C645.489 596.596 645.747 596.889 646.06 597.111L656.636 605.929C657.469 606.514 658.438 606.862 659.444 606.94C660.451 607.017 661.46 606.82 662.368 606.37L689.596 590.146L689.882 589.94C690.212 589.738 690.487 589.455 690.682 589.116C690.878 588.777 690.987 588.393 691 588Z" fill="#321288"/>
<path d="M731 565.586C730.984 565.973 730.87 566.35 730.671 566.683C730.472 567.016 730.192 567.294 729.858 567.492C729.791 567.58 729.703 567.648 729.601 567.691L702.475 583.392C701.552 583.855 700.52 584.06 699.489 583.985C698.458 583.91 697.467 583.557 696.621 582.965L686.142 574.432C685.813 574.208 685.538 573.913 685.34 573.568C685.143 573.223 685.026 572.838 685 572.441C685.022 571.994 685.166 571.561 685.418 571.19C685.67 570.818 686.019 570.523 686.428 570.336L713.497 554.635C714.415 554.151 715.453 553.936 716.49 554.017C717.526 554.097 718.518 554.47 719.35 555.09L729.943 563.624C730.258 563.849 730.517 564.143 730.7 564.483C730.883 564.823 730.986 565.2 731 565.586Z" fill="#90B4FF"/>
<path d="M731 565V569.017C730.981 569.475 730.841 569.919 730.594 570.302C730.348 570.684 730.004 570.99 729.601 571.187L702.475 587.373C701.552 587.851 700.52 588.062 699.489 587.984C698.458 587.907 697.467 587.544 696.621 586.933L686.056 578.136C685.749 577.91 685.495 577.617 685.312 577.277C685.129 576.937 685.023 576.559 685 576.172V572.155C685.019 572.543 685.123 572.922 685.307 573.263C685.49 573.603 685.746 573.896 686.056 574.119L696.621 582.916C697.467 583.526 698.458 583.89 699.489 583.967C700.52 584.045 701.552 583.833 702.475 583.356L729.601 567.17C729.703 567.126 729.791 567.055 729.858 566.965C730.192 566.76 730.472 566.474 730.671 566.131C730.87 565.788 730.984 565.399 731 565Z" fill="#321288"/>
<path d="M680 634.026C679.983 634.425 679.868 634.814 679.664 635.157C679.46 635.499 679.175 635.786 678.833 635.99C678.753 636.081 678.653 636.151 678.541 636.195L650.855 652.373C649.912 652.851 648.857 653.062 647.804 652.984C646.751 652.907 645.738 652.544 644.874 651.934L634.167 643.141C633.825 642.916 633.542 642.612 633.339 642.256C633.136 641.899 633.02 641.5 633 641.09C633.01 640.614 633.151 640.151 633.409 639.752C633.667 639.353 634.03 639.035 634.459 638.833L662.145 622.655C663.084 622.155 664.144 621.934 665.203 622.017C666.262 622.1 667.276 622.484 668.126 623.124L678.95 631.916C679.273 632.165 679.535 632.484 679.717 632.85C679.899 633.215 679.996 633.618 680 634.026Z" fill="#FF6991"/>
<path d="M680 634V638.012C679.972 638.471 679.821 638.914 679.565 639.295C679.308 639.676 678.955 639.981 678.541 640.179L650.855 656.374C649.912 656.851 648.857 657.062 647.804 656.984C646.751 656.907 645.738 656.544 644.874 655.934L634.079 647.149C633.761 646.928 633.498 646.636 633.31 646.295C633.123 645.955 633.017 645.575 633 645.187V641.175C633.012 641.564 633.117 641.945 633.304 642.286C633.492 642.628 633.758 642.919 634.079 643.137L644.874 651.922C645.738 652.532 646.751 652.895 647.804 652.972C648.857 653.05 649.912 652.839 650.855 652.362L678.541 636.196C678.653 636.152 678.753 636.082 678.833 635.991C679.179 635.785 679.467 635.494 679.671 635.146C679.875 634.798 679.988 634.404 680 634Z" fill="#321288"/>
<path d="M719 610.614C718.984 610.998 718.874 611.372 718.68 611.704C718.486 612.036 718.213 612.316 717.886 612.52L717.6 612.69L690.457 628.392C689.533 628.855 688.501 629.06 687.469 628.985C686.438 628.91 685.446 628.557 684.6 627.965L674.114 619.432C673.788 619.206 673.518 618.91 673.325 618.565C673.132 618.22 673.021 617.835 673 617.44C673.016 616.995 673.155 616.563 673.402 616.192C673.649 615.82 673.994 615.524 674.4 615.336L701.486 599.634C702.41 599.15 703.453 598.936 704.495 599.017C705.536 599.097 706.533 599.469 707.371 600.089L717.943 608.623C718.261 608.851 718.523 609.149 718.706 609.495C718.889 609.84 718.99 610.223 719 610.614Z" fill="#FDD23D"/>
<path d="M719 611V614.819C718.981 615.258 718.84 615.683 718.594 616.05C718.347 616.416 718.004 616.709 717.6 616.897L690.457 632.399C689.533 632.857 688.501 633.059 687.469 632.985C686.438 632.911 685.446 632.563 684.6 631.978L674.057 623.553C673.745 623.341 673.487 623.061 673.304 622.734C673.12 622.408 673.016 622.044 673 621.672V617.824C673.012 618.198 673.114 618.563 673.298 618.89C673.482 619.217 673.742 619.497 674.057 619.706L684.6 628.131C685.446 628.715 686.438 629.063 687.469 629.138C688.501 629.212 689.533 629.009 690.457 628.552L717.6 613.05L717.886 612.882C718.213 612.681 718.486 612.404 718.68 612.076C718.874 611.749 718.984 611.379 719 611Z" fill="#321288"/>
<path d="M759 587.608C758.979 587.995 758.863 588.37 758.665 588.702C758.466 589.034 758.189 589.313 757.858 589.515L757.601 589.714L730.475 605.392C729.552 605.855 728.52 606.06 727.489 605.985C726.458 605.91 725.467 605.557 724.621 604.965L714.142 596.429C713.813 596.205 713.538 595.909 713.34 595.564C713.143 595.219 713.026 594.834 713 594.437C713.02 593.993 713.165 593.563 713.417 593.196C713.669 592.829 714.019 592.54 714.428 592.36L741.497 576.625C742.417 576.147 743.454 575.936 744.489 576.017C745.524 576.097 746.515 576.466 747.35 577.081L757.943 585.617C758.262 585.845 758.523 586.143 758.706 586.489C758.89 586.835 758.99 587.218 759 587.608Z" fill="url(#paint4_linear)"/>
<path d="M759 588V591.819C758.981 592.258 758.841 592.683 758.594 593.05C758.348 593.416 758.004 593.709 757.601 593.897L730.475 609.399C729.552 609.857 728.52 610.059 727.489 609.985C726.458 609.911 725.467 609.563 724.621 608.978L714.056 600.553C713.746 600.34 713.49 600.059 713.307 599.733C713.123 599.407 713.019 599.044 713 598.672V594.824C713.023 595.199 713.129 595.565 713.311 595.895C713.494 596.225 713.748 596.512 714.056 596.734L724.621 605.159C725.467 605.744 726.458 606.092 727.489 606.166C728.52 606.24 729.552 606.037 730.475 605.58L757.601 590.106L757.858 589.91C758.193 589.708 758.472 589.428 758.671 589.095C758.87 588.762 758.983 588.386 759 588Z" fill="#321288"/>
<path d="M565.715 513.374L565.97 488.809C565.992 488.455 566.106 488.113 566.3 487.818C566.494 487.522 566.762 487.283 567.077 487.124C567.878 486.698 568.789 486.529 569.688 486.638C571.731 486.895 573.349 488.209 573.377 489.666L573.093 516.773C573.076 517.132 572.965 517.48 572.77 517.781C572.576 518.082 572.305 518.326 571.987 518.487C571.186 518.913 570.272 519.073 569.376 518.944L546.331 516.345C544.287 516.116 542.67 514.774 542.67 513.345C542.683 512.989 542.793 512.644 542.988 512.347C543.184 512.049 543.456 511.812 543.777 511.66C544.583 511.222 545.507 511.052 546.416 511.175L565.715 513.374ZM532.368 482.582C516.049 492.122 515.851 510.575 531.942 523.8C548.034 537.025 574.285 539.939 590.632 530.37C606.979 520.801 607.121 502.377 591.058 489.209C574.995 476.041 548.686 473.042 532.368 482.582Z" fill="url(#paint5_linear)"/>
<path d="M567.64 486.528C567.322 486.69 567.051 486.934 566.855 487.235C566.659 487.536 566.544 487.885 566.522 488.245L566.264 513.279L546.782 511.038C545.865 510.913 544.932 511.086 544.117 511.533C543.794 511.687 543.519 511.929 543.322 512.232C543.125 512.535 543.013 512.887 543 513.25C543 514.706 544.633 516.161 546.696 516.307L569.96 518.956C570.865 519.087 571.788 518.924 572.596 518.49C572.918 518.325 573.191 518.077 573.387 517.77C573.584 517.463 573.696 517.109 573.713 516.743L574 489.118C574 487.634 572.338 486.207 570.275 486.033C569.368 485.922 568.448 486.094 567.64 486.528Z" fill="white"/>
<path d="M794 639.486L685.498 702C685.228 699.577 684.727 697.186 684 694.857L792.934 632C793.107 632.6 793.222 633.143 793.366 633.714C793.375 633.857 793.375 634 793.366 634.143C793.366 634.686 793.568 635.257 793.654 635.829C793.741 636.4 793.798 637.057 793.827 637.629C793.856 638.2 794 638.914 794 639.486Z" fill="#321288"/>
<path d="M797 641L793.947 639.444C793.947 638.889 793.947 638.306 793.947 637.694C793.947 637.139 793.947 636.556 793.763 635.944C793.58 635.333 793.58 634.889 793.458 634.306C793.467 634.167 793.467 634.028 793.458 633.889C793.336 633.37 793.183 632.815 793 632.222L795.29 631C796.403 634.238 796.979 637.608 797 641Z" fill="#1B21B1"/>
<path d="M797 641.608L686.201 706C686.205 704.953 686.138 703.907 686 702.869L794.214 640L797 641.608Z" fill="#2F80ED"/>
<path opacity="0.7" d="M655.639 348.113V509.2C655.608 510.046 655.352 510.869 654.899 511.584C654.446 512.299 653.811 512.881 653.06 513.271L552.739 571.6C550.753 572.535 548.548 572.902 546.367 572.659C544.186 572.416 542.115 571.573 540.385 570.224L468.727 511.78C467.99 511.253 467.38 510.568 466.944 509.774C466.507 508.98 466.254 508.098 466.204 507.194V348.113H655.639Z" fill="#D8DEE7"/>
<path d="M624.746 682.494L447.282 537.444C446.48 536.767 445.62 536.163 444.711 535.64C443.575 534.864 442.283 534.347 440.926 534.124C439.569 533.901 438.18 533.979 436.856 534.352C436.51 534.475 436.176 534.628 435.856 534.81L433 536.413C433.327 536.227 433.671 536.073 434.028 535.955C435.347 535.583 436.732 535.506 438.084 535.728C439.436 535.951 440.724 536.468 441.855 537.243C442.764 537.767 443.624 538.37 444.425 539.047L622.004 684.183C625.567 687.191 628.482 690.895 630.569 695.07C632.656 699.245 633.872 703.802 634.144 708.463V719L637 717.397V706.86C636.738 702.172 635.514 697.59 633.406 693.397C631.297 689.205 628.35 685.493 624.746 682.494Z" fill="#2F80ED"/>
<path d="M429 600.736L429.172 544.916C429.172 540.576 430.867 537.492 433.826 536.35C435.153 535.979 436.545 535.902 437.905 536.124C439.265 536.346 440.56 536.862 441.697 537.635C442.611 538.157 443.477 538.759 444.283 539.434L622.791 684.28C626.375 687.28 629.306 690.974 631.405 695.137C633.504 699.3 634.727 703.844 635 708.493V719L429 600.736Z" fill="#1A59AF"/>
<path d="M940.408 543.166C933.271 531.701 911.372 525.624 891.681 529.723C871.989 533.822 861.527 546.491 868.75 558.013C875.973 569.536 897.786 575.527 917.621 571.428C937.456 567.329 947.545 554.66 940.408 543.166ZM916.646 570.195C897.098 574.237 877.005 567.816 870.785 557.583C864.049 546.72 873.651 534.825 892.426 530.955C909.996 527.315 931.322 532.073 938.459 543.596C945.051 554.431 935.335 566.354 916.646 570.195Z" fill="url(#paint6_linear)"/>
<path d="M938.315 543.596C934.819 537.863 928.025 534.338 921.748 532.331C917.966 531.095 914.05 530.316 910.082 530.01C908.792 530.01 907.474 529.809 906.155 529.752C902.966 529.671 899.775 529.834 896.611 530.239C875.113 533.105 863.419 545.946 870.642 557.583C871.164 558.426 871.759 559.222 872.419 559.963C873.853 561.592 875.502 563.019 877.32 564.205L877.865 564.549C878.786 565.142 879.743 565.678 880.731 566.154C886.421 568.944 892.586 570.636 898.904 571.141C904.851 571.711 910.85 571.392 916.703 570.195C935.334 566.354 945.051 554.431 938.315 543.596Z" fill="url(#paint7_linear)"/>
<path d="M923.382 551.507C918.251 543.252 897.757 550.733 896.439 546.777C895.579 544.226 904.865 542.65 912.863 543.367L913.293 538.121C909.279 537.753 905.234 537.888 901.254 538.523L899.162 535.169L892.712 536.487L894.862 539.927C889.445 541.475 883.397 544.828 886.263 549.529C891.193 557.469 909.91 551.02 912.977 553.829C916.044 556.638 903.232 558.845 894.461 557.612L893.802 562.858C898.812 563.444 903.881 563.299 908.85 562.428L910.913 565.753L917.363 564.434L915.213 560.966C920.344 559.389 926.191 556.064 923.382 551.507Z" fill="url(#paint8_linear)"/>
<path d="M917.363 582.721C892.569 587.852 866.199 577.132 866.228 561.768V550.475C866.228 565.781 892.512 576.559 917.363 571.428V582.721Z" fill="url(#paint9_linear)"/>
<path d="M942.672 550.676V561.969C942.672 571.027 932.956 579.511 917.391 582.721V571.428C932.87 568.189 942.644 559.733 942.672 550.676Z" fill="url(#paint10_linear)"/>
<path style="mix-blend-mode:color-dodge" opacity="0.31" d="M906.155 529.78C902.966 529.685 899.774 529.848 896.611 530.267L872.419 559.991C874.001 561.777 875.836 563.322 877.865 564.577L906.155 529.78ZM928.255 535.026C916.532 549.357 908.964 558.759 898.846 571.17C892.53 570.659 886.366 568.967 880.674 566.182L910.082 530.038C916.397 530.537 922.562 532.22 928.255 534.997V535.026Z" fill="url(#paint11_linear)"/>
<path d="M933.012 526.684C925.875 515.219 903.977 509.171 884.142 513.27C864.307 517.369 853.988 530.009 861.211 541.532C868.434 553.055 890.247 559.045 910.11 554.946C929.974 550.848 940.149 538.178 933.012 526.684ZM909.251 553.714C889.702 557.755 869.609 551.335 863.389 541.102C856.654 530.267 866.256 518.344 885.03 514.474C902.601 510.834 923.926 515.592 931.063 527.114C937.656 537.949 927.939 549.844 909.251 553.714Z" fill="url(#paint12_linear)"/>
<path d="M930.92 527.115C926.843 521.587 920.996 517.622 914.353 515.879C910.572 514.633 906.655 513.844 902.687 513.528C901.397 513.528 900.078 513.328 898.76 513.299C895.571 513.209 892.38 513.362 889.215 513.758C867.718 516.624 856.023 529.465 863.246 541.102C863.762 541.95 864.357 542.747 865.023 543.481C866.457 545.111 868.106 546.538 869.925 547.724L870.469 548.068C871.391 548.661 872.348 549.197 873.336 549.673C879.021 552.475 885.189 554.168 891.508 554.66C897.456 555.23 903.455 554.911 909.308 553.714C927.939 549.845 937.656 537.949 930.92 527.115Z" fill="url(#paint13_linear)"/>
<path d="M915.987 535.054C910.856 526.799 890.362 534.252 889.043 530.325C888.183 527.774 897.47 526.169 905.467 526.885L905.897 521.64C901.883 521.272 897.839 521.406 893.859 522.041L891.766 518.688L885.317 520.006L887.467 523.446C882.049 524.993 876.001 528.347 878.868 533.048C883.798 540.987 902.515 534.538 905.582 537.347C908.649 540.156 895.836 542.363 887.065 541.131L886.406 546.405C891.418 546.982 896.487 546.827 901.454 545.946L903.518 549.3L909.967 547.953L907.818 544.484C912.948 542.908 918.796 539.583 915.987 535.054Z" fill="url(#paint14_linear)"/>
<path d="M909.939 566.24C885.145 571.37 858.775 560.65 858.803 545.287V533.994C858.803 549.328 885.088 560.077 909.967 554.946L909.939 566.24Z" fill="url(#paint15_linear)"/>
<path d="M935.277 534.194V545.659C935.277 554.688 925.56 563.172 909.996 566.383V555.089C925.56 551.736 935.248 543.251 935.277 534.194Z" fill="url(#paint16_linear)"/>
<path style="mix-blend-mode:color-dodge" opacity="0.31" d="M898.76 513.299C895.571 513.209 892.381 513.362 889.215 513.758L865.023 543.481C866.606 545.267 868.441 546.812 870.469 548.068L898.76 513.299ZM920.859 518.516C909.136 532.847 901.569 542.249 891.451 554.66C885.135 554.149 878.971 552.457 873.279 549.673L902.687 513.528C909.001 514.051 915.163 515.742 920.859 518.516Z" fill="url(#paint17_linear)"/>
<path d="M940.437 508.369C933.3 496.904 911.401 490.856 891.709 494.955C872.018 499.054 861.556 511.723 868.779 523.245C876.002 534.768 897.786 540.73 917.649 536.631C937.513 532.532 947.574 519.892 940.437 508.369ZM916.675 535.513C897.127 539.555 877.034 533.134 870.67 522.873C863.935 512.038 873.537 500.143 892.311 496.273C909.882 492.633 931.207 497.391 938.344 508.885C945.08 519.662 935.392 531.558 916.675 535.513Z" fill="url(#paint18_linear)"/>
<path d="M938.344 508.799C934.847 503.066 928.054 499.569 921.777 497.563C917.995 496.327 914.078 495.547 910.111 495.241C908.821 495.241 907.503 495.041 906.184 494.983C902.995 494.888 899.802 495.051 896.639 495.471C875.142 498.337 863.447 511.178 870.67 522.787C871.192 523.639 871.787 524.444 872.447 525.194C873.889 526.816 875.537 528.243 877.349 529.436L877.894 529.78C878.782 530.354 879.728 530.87 880.76 531.386C886.453 534.168 892.616 535.86 898.932 536.373C904.88 536.943 910.879 536.624 916.732 535.427C935.392 531.558 945.08 519.662 938.344 508.799Z" fill="url(#paint19_linear)"/>
<path d="M923.411 516.739C918.28 508.484 897.786 515.936 896.467 512.009C895.607 509.458 904.894 507.882 912.891 508.599L913.321 503.325C909.306 502.98 905.263 503.124 901.283 503.754L899.219 500.401L892.77 501.719L894.891 505.159C889.473 506.707 883.425 510.06 886.292 514.761C891.222 522.701 909.939 516.252 913.006 519.061C916.073 521.87 903.26 524.077 894.489 522.816L893.83 528.09C898.841 528.676 903.91 528.531 908.878 527.66L910.942 530.984L917.391 529.666L915.27 526.198C920.372 524.593 926.22 521.182 923.411 516.739Z" fill="url(#paint20_linear)"/>
<path d="M917.42 547.953C892.598 553.055 866.228 542.22 866.256 527V515.707C866.256 531.013 892.54 541.791 917.42 536.631V547.953Z" fill="url(#paint21_linear)"/>
<path d="M942.701 515.907V527.201C942.701 536.258 932.984 544.714 917.449 547.953V536.487C932.869 533.42 942.672 524.965 942.701 515.907Z" fill="url(#paint22_linear)"/>
<path style="mix-blend-mode:color-dodge" opacity="0.31" d="M906.184 494.983C902.995 494.888 899.803 495.051 896.639 495.471L872.448 525.194C874.037 526.972 875.871 528.516 877.894 529.78L906.184 494.983ZM928.283 500.229C916.56 514.56 908.993 523.962 898.875 536.373C892.559 535.859 886.396 534.167 880.703 531.386L910.111 495.385C916.418 495.848 922.582 497.491 928.283 500.229Z" fill="url(#paint23_linear)"/>
<path d="M851.749 571.086C863.014 562.783 873.307 548.533 872.993 535.776C872.821 528.048 869.619 526.152 861.813 518.136C849.118 505.006 815.179 525.146 808.088 550.314C806.316 556.663 806.344 563.674 810.948 568.357C816.666 574.103 818.324 575.97 819.125 576.66C827.674 584.014 842.599 577.895 851.749 571.086Z" fill="url(#paint24_linear)"/>
<path d="M863.56 559.775C868.682 553.273 873.196 544.527 872.993 536.434C872.82 528.796 869.579 526.922 861.679 519C870.129 527.518 863.474 543.022 855.892 552.421C841.858 570.082 819.433 577.976 810 568.577L817.465 576.074C827.246 585.501 849.787 577.124 863.56 559.775Z" fill="url(#paint25_linear)"/>
<path d="M863.914 536.296C868.241 520.512 859.249 510.919 843.866 514.901C828.483 518.884 812.45 534.901 808.096 550.686C803.741 566.471 812.761 576.064 828.172 572.11C843.583 568.157 859.56 552.11 863.914 536.296ZM809.736 550.279C811.605 544.051 814.726 538.297 818.897 533.389C839.822 507.982 869.372 510.889 862.274 536.732C858.174 551.645 843.074 566.703 828.625 570.424C814.175 574.145 805.664 565.163 809.736 550.279Z" fill="url(#paint26_linear)"/>
<path d="M855.929 550.381C856.625 549.431 857.321 548.423 857.959 547.502L859.091 545.602L860.048 543.845C861.258 541.6 862.23 539.237 862.949 536.792C867.126 522.052 858.482 513.128 843.571 516.842C838.583 518.165 833.875 520.369 829.675 523.348C820.019 529.816 812.772 539.253 809.049 550.208C804.872 564.948 813.545 573.872 828.427 570.158C839.536 566.746 849.202 559.795 855.929 550.381ZM844.876 561.666L846.152 560.658L844.876 561.666Z" fill="url(#paint27_linear)"/>
<path style="mix-blend-mode:color-dodge" opacity="0.31" d="M832.817 521.559C835.191 520.14 837.695 518.949 840.295 518L862 540.392C860.967 542.961 859.701 545.43 858.218 547.77L832.817 521.559ZM856.094 550.721L829.704 523.497C824.44 527.142 819.811 531.617 816 536.747L842.39 564C847.69 560.358 852.35 555.872 856.181 550.721H856.094Z" fill="url(#paint28_linear)"/>
<path d="M852 571.331L844.608 564C832.059 573.004 817.934 575.512 811 568.627L818.392 575.986C826.73 584.237 842.373 578.3 852 571.331Z" fill="url(#paint29_linear)"/>
<path d="M945.654 490.97C938.488 479.505 916.618 473.428 896.926 477.556C877.235 481.683 866.772 494.295 873.996 505.818C881.219 517.34 903.031 523.331 922.866 519.232C942.701 515.133 952.934 502.464 945.654 490.97ZM921.892 518C902.344 522.041 882.222 515.621 875.859 505.388C869.152 494.525 878.725 482.629 897.528 478.76C915.099 475.12 936.395 479.878 943.561 491.4C950.268 502.235 940.58 514.159 921.892 518Z" fill="url(#paint30_linear)"/>
<path d="M943.561 491.4C940.064 485.668 933.242 482.142 926.965 480.136C923.195 478.891 919.287 478.111 915.328 477.814C914.038 477.814 912.72 477.613 911.401 477.585C908.203 477.481 905.001 477.634 901.828 478.043C880.33 480.91 868.664 493.751 875.859 505.388C876.391 506.225 876.985 507.02 877.636 507.767C879.087 509.391 880.744 510.817 882.566 512.009L883.082 512.353C884.008 512.94 884.964 513.476 885.948 513.958C891.638 516.748 897.804 518.44 904.121 518.946C910.068 519.516 916.067 519.197 921.92 518C940.58 514.159 950.268 502.235 943.561 491.4Z" fill="url(#paint31_linear)"/>
<path d="M928.628 499.311C923.497 491.056 903.003 498.537 901.684 494.582C900.796 492.059 910.083 490.454 918.108 491.171L918.538 485.925C914.524 485.557 910.48 485.692 906.5 486.327L904.407 482.973L897.958 484.292L900.079 487.731C894.69 489.279 888.614 492.633 891.48 497.333C896.382 505.273 915.127 498.824 918.194 501.633C921.261 504.442 908.449 506.649 899.678 505.416L899.019 510.662C904.029 511.248 909.098 511.104 914.067 510.232L916.13 513.557L922.58 512.238L920.43 508.77C925.589 507.194 931.437 503.983 928.628 499.311Z" fill="url(#paint32_linear)"/>
<path d="M922.608 530.526C897.815 535.656 871.416 524.936 871.473 509.573V498.251C871.473 513.586 897.729 524.334 922.608 519.204V530.526Z" fill="url(#paint33_linear)"/>
<path d="M947.918 498.48V509.716C947.918 518.774 938.201 527.258 922.637 530.469V519.175C938.201 515.994 947.889 507.538 947.918 498.48Z" fill="url(#paint34_linear)"/>
<path style="mix-blend-mode:color-dodge" opacity="0.31" d="M911.401 477.584C908.203 477.466 905 477.619 901.828 478.043L877.636 507.767C879.23 509.54 881.063 511.083 883.082 512.353L911.401 477.584ZM933.5 482.801L904.207 518.945C897.89 518.434 891.726 516.742 886.034 513.958L915.443 477.813C921.72 478.336 927.845 480.027 933.5 482.801Z" fill="url(#paint35_linear)"/>
<path d="M941.64 475.32C934.503 463.855 912.604 457.807 892.769 461.906C872.934 466.005 862.616 478.645 869.839 490.168C877.062 501.69 898.846 507.681 918.71 503.582C938.573 499.483 948.777 486.786 941.64 475.32ZM917.878 502.35C898.33 506.391 878.237 499.971 872.017 489.738C865.281 478.903 874.884 466.979 893.658 463.11C911.229 459.47 932.554 464.228 939.691 475.75C946.284 486.528 936.595 498.451 917.878 502.292V502.35Z" fill="url(#paint36_linear)"/>
<path d="M939.548 475.693C935.471 470.165 929.624 466.2 922.98 464.457C919.199 463.211 915.283 462.422 911.315 462.106C910.025 462.106 908.706 461.906 907.388 461.877C904.199 461.772 901.007 461.926 897.843 462.336C876.345 465.202 864.651 478.043 871.874 489.68C872.389 490.528 872.984 491.325 873.651 492.059C875.089 493.696 876.748 495.124 878.581 496.302L879.097 496.646C880.022 497.233 880.979 497.769 881.963 498.251C887.651 501.046 893.818 502.739 900.136 503.238C906.083 503.808 912.082 503.489 917.936 502.292C936.595 498.451 946.284 486.527 939.548 475.693Z" fill="url(#paint37_linear)"/>
<path d="M918.538 514.818C893.715 519.949 867.345 509.229 867.374 493.866V482.572C867.374 497.907 893.658 508.656 918.538 503.525V514.818Z" fill="url(#paint38_linear)"/>
<path d="M943.904 482.773V494.238C943.904 503.267 934.188 511.751 918.652 514.962V503.668C934.188 500.315 943.876 491.831 943.904 482.773Z" fill="url(#paint39_linear)"/>
<path style="mix-blend-mode:color-dodge" opacity="0.31" d="M907.388 461.877C904.199 461.787 901.008 461.94 897.843 462.336L873.651 492.06C875.233 493.845 877.068 495.39 879.097 496.646L907.388 461.877ZM929.487 467.094C917.764 481.426 910.197 490.827 900.078 503.238C893.763 502.724 887.599 501.032 881.906 498.251L911.314 462.107C917.629 462.629 923.791 464.32 929.487 467.094Z" fill="url(#paint40_linear)"/>
<path d="M372.418 601.897C365.281 590.432 343.383 584.384 323.691 588.483C303.999 592.582 293.537 605.222 300.761 616.745C307.984 628.268 329.796 634.258 349.488 630.159C369.18 626.06 379.67 613.391 372.418 601.897ZM348.657 628.955C329.108 632.968 309.016 626.548 302.796 616.315C296.06 605.48 305.662 593.556 324.436 589.687C342.007 586.075 363.332 590.805 370.469 602.327C377.062 613.162 367.345 625.086 348.657 628.955Z" fill="url(#paint41_linear)"/>
<path d="M370.326 602.328C366.278 596.821 360.475 592.858 353.873 591.092C350.092 589.846 346.176 589.057 342.208 588.741C340.918 588.741 339.599 588.541 338.281 588.512C335.092 588.422 331.901 588.575 328.736 588.971C307.238 591.837 295.544 604.707 302.767 616.315C303.273 617.169 303.868 617.967 304.544 618.694C305.978 620.324 307.627 621.751 309.445 622.936L309.99 623.28C310.911 623.874 311.869 624.41 312.856 624.886C318.518 627.674 324.653 629.376 330.943 629.902C336.891 630.457 342.887 630.138 348.743 628.956C367.345 625.086 377.062 613.162 370.326 602.328Z" fill="url(#paint42_linear)"/>
<path d="M349.373 641.567C324.58 646.698 298.21 635.834 298.238 620.614V609.321C298.238 624.656 324.494 635.404 349.373 630.274V641.567Z" fill="url(#paint43_linear)"/>
<path d="M374.683 609.407V620.729C374.683 629.758 364.966 638.242 349.402 641.452V630.102C364.966 626.949 374.654 618.464 374.683 609.407Z" fill="url(#paint44_linear)"/>
<path d="M418.967 623.394C419.168 609.837 404.005 592.954 385.087 585.702C366.17 578.45 350.692 583.524 350.462 597.167C350.233 610.811 365.338 627.493 384.342 634.745C403.346 641.997 418.767 636.923 418.967 623.394ZM384.371 633.312C365.74 626.175 352.268 609.894 352.469 597.827C352.641 585.072 367.259 580.285 385.059 587.135C401.798 593.556 417.19 609.063 416.99 622.62C416.932 635.375 402.199 640.162 384.371 633.312Z" fill="url(#paint45_linear)"/>
<path d="M416.932 622.621C416.932 615.999 413.235 609.264 409.05 604.19C406.507 601.12 403.622 598.35 400.451 595.935C399.419 595.133 398.358 594.359 397.269 593.613C394.625 591.817 391.846 590.226 388.957 588.855C369.351 579.597 352.555 584.155 352.354 597.827C352.343 598.786 352.41 599.745 352.555 600.693C352.894 602.841 353.521 604.933 354.418 606.913L354.647 607.486C355.102 608.468 355.61 609.425 356.166 610.353C359.445 615.789 363.725 620.555 368.778 624.398C373.471 628.084 378.688 631.05 384.256 633.197C402.199 640.162 416.932 635.376 416.932 622.621Z" fill="url(#paint46_linear)"/>
<path d="M378.208 644.232C354.561 635.146 338.08 611.9 346.507 599.002L352.612 589.485C344.3 602.384 360.638 625.63 384.342 634.744L378.208 644.232Z" fill="url(#paint47_linear)"/>
<path d="M416.932 630.933L410.798 640.449C405.897 648.045 393.17 649.937 378.323 644.233L384.457 634.745C399.19 640.449 411.916 638.701 416.932 630.933Z" fill="url(#paint48_linear)"/>
<path style="mix-blend-mode:color-dodge" opacity="0.31" d="M397.384 593.613C394.746 591.806 391.966 590.215 389.072 588.855L352.669 600.808C353.043 603.159 353.748 605.446 354.762 607.601L397.384 593.613ZM413.149 609.951L368.893 624.512C363.849 620.659 359.571 615.895 356.281 610.467L400.566 595.935C405.606 599.806 409.875 604.59 413.149 610.037V609.951Z" fill="url(#paint49_linear)"/>
<path d="M252.347 469.613C255.827 467.618 261.469 467.618 264.949 469.613L314.184 497.845C316.051 498.916 316.916 500.343 316.78 501.745C316.662 502.955 315.797 504.147 314.184 505.071L264.949 533.303C261.469 535.298 255.827 535.298 252.347 533.303L203.113 505.071C201.436 504.11 200.567 502.861 200.506 501.602C200.501 501.501 200.501 501.4 200.507 501.299C200.574 500.045 201.443 498.802 203.113 497.845L252.347 469.613Z" fill="#3080ED"/>
<path d="M254.579 480.654C256.727 479.422 260.21 479.422 262.358 480.654L294.046 498.824C295.198 499.485 295.733 500.366 295.648 501.231C295.576 501.979 295.041 502.714 294.046 503.285L262.358 521.455C260.21 522.686 256.727 522.686 254.579 521.455L222.892 503.285C221.857 502.691 221.321 501.921 221.283 501.143C221.28 501.081 221.28 501.019 221.283 500.956C221.325 500.182 221.861 499.415 222.892 498.824L254.579 480.654Z" stroke="#5396F1" stroke-width="0.382298"/>
<path d="M314.184 506.601L264.949 534.832C261.469 536.828 255.827 536.828 252.347 534.832L203.113 506.601C201.436 505.639 200.567 504.39 200.506 503.131L200.45 525.065C200.446 526.778 201.63 528.423 203.741 529.635L251.79 557.228C255.429 559.317 261.324 559.334 264.999 557.266L312.846 530.337C315.362 528.921 316.78 526.985 316.78 524.963V503.274C316.662 504.485 315.797 505.676 314.184 506.601Z" fill="url(#paint50_linear)"/>
<path fill-rule="evenodd" clip-rule="evenodd" d="M200.506 503.131C200.501 503.03 200.501 502.929 200.507 502.829L200.506 503.131Z" fill="url(#paint51_linear)"/>
<path d="M205.672 516.523C205.672 515.643 206.621 515.091 207.386 515.526L249.048 539.205C249.884 539.681 250.401 540.569 250.401 541.532V547.554C250.401 548.435 249.449 548.987 248.684 548.549L207.019 524.689C206.186 524.212 205.672 523.326 205.672 522.367V516.523Z" fill="#CCE1FD" stroke="#3080ED" stroke-width="0.382298"/>
<path d="M213.701 519.139L206.055 523.536L205.672 522.58V517.801L205.864 515.89L206.819 515.316L213.701 519.139Z" fill="#3080ED"/>
<path d="M257.196 500.783C256.596 501.13 255.944 501.386 255.24 501.551C254.555 501.717 253.841 501.788 253.098 501.766C252.366 501.75 251.618 501.637 250.857 501.427C250.115 501.218 249.391 500.909 248.687 500.501L248.473 500.377L247.702 500.824L246.702 500.245L247.473 499.799L247.259 499.675C246.536 499.256 245.984 498.831 245.603 498.401C245.232 497.966 245.032 497.536 245.003 497.112C244.975 496.687 245.103 496.277 245.389 495.88C245.693 495.483 246.155 495.105 246.774 494.747L247.402 494.383C248.001 494.036 248.644 493.78 249.329 493.615C250.034 493.449 250.752 493.375 251.485 493.391C252.228 493.413 252.97 493.529 253.712 493.739C254.474 493.948 255.207 494.257 255.911 494.665L256.125 494.789L256.896 494.342L257.896 494.921L257.125 495.367L257.339 495.491C258.062 495.91 258.61 496.337 258.981 496.773C259.352 497.208 259.552 497.638 259.58 498.062C259.618 498.481 259.485 498.889 259.181 499.286C258.886 499.688 258.433 500.066 257.824 500.419L257.196 500.783ZM247.802 495.342C246.859 495.888 246.412 496.494 246.459 497.161C246.507 497.828 247.088 498.484 248.201 499.129L248.415 499.253L255.183 495.334L254.969 495.21C253.846 494.56 252.708 494.221 251.557 494.193C250.424 494.166 249.382 494.428 248.43 494.979L247.802 495.342ZM256.182 495.913L249.415 499.832L249.629 499.956C250.752 500.606 251.88 500.945 253.013 500.973C254.165 501 255.216 500.738 256.168 500.187L256.796 499.823C257.739 499.278 258.186 498.672 258.138 498.005C258.091 497.338 257.51 496.682 256.397 496.037L256.182 495.913Z" fill="white"/>
<path d="M265.832 505.783L260.263 502.559L255.581 505.271L254.581 504.692L264.575 498.904L265.575 499.483L261.177 502.03L266.745 505.254L271.143 502.708L272.142 503.286L262.148 509.074L261.149 508.495L265.832 505.783Z" fill="white"/>
<defs>
<linearGradient id="paint0_linear" x1="633.935" y1="159.948" x2="856.374" y2="544.845" gradientUnits="userSpaceOnUse">
<stop stop-color="#2F80ED"/>
<stop offset="1" stop-color="#1A59AF"/>
</linearGradient>
<linearGradient id="paint1_linear" x1="657.269" y1="197.858" x2="765.607" y2="386.759" gradientUnits="userSpaceOnUse">
<stop stop-color="#5BF0A9"/>
<stop offset="1" stop-color="#46C2AA"/>
</linearGradient>
<linearGradient id="paint2_linear" x1="723.502" y1="400.837" x2="767.789" y2="476.826" gradientUnits="userSpaceOnUse">
<stop stop-color="#46C2AA"/>
<stop offset="1" stop-color="#5BF0A9"/>
</linearGradient>
<linearGradient id="paint3_linear" x1="524.58" y1="414.469" x2="695.518" y2="711.043" gradientUnits="userSpaceOnUse">
<stop stop-color="#2F80ED"/>
<stop offset="0.88" stop-color="#2F80ED"/>
<stop offset="1" stop-color="#134FA0"/>
</linearGradient>
<linearGradient id="paint4_linear" x1="9615.84" y1="6411" x2="9693.71" y2="6618.28" gradientUnits="userSpaceOnUse">
<stop stop-color="#46C2AA"/>
<stop offset="1" stop-color="#5BF0A9"/>
</linearGradient>
<linearGradient id="paint5_linear" x1="11165.6" y1="9744.13" x2="11758.1" y2="11187.7" gradientUnits="userSpaceOnUse">
<stop stop-color="#46C2AA"/>
<stop offset="1" stop-color="#5BF0A9"/>
</linearGradient>
<linearGradient id="paint6_linear" x1="874.339" y1="538.465" x2="938.258" y2="564.176" gradientUnits="userSpaceOnUse">
<stop stop-color="#FF9E11"/>
<stop offset="1" stop-color="#FF760A"/>
</linearGradient>
<linearGradient id="paint7_linear" x1="876.919" y1="538.436" x2="936.682" y2="564.778" gradientUnits="userSpaceOnUse">
<stop stop-color="#FFDA1B"/>
<stop offset="1" stop-color="#FFA613"/>
</linearGradient>
<linearGradient id="paint8_linear" x1="883.368" y1="542.277" x2="933.242" y2="562.6" gradientUnits="userSpaceOnUse">
<stop stop-color="#FF920E"/>
<stop offset="1" stop-color="#FF6F0A"/>
</linearGradient>
<linearGradient id="paint9_linear" x1="862.702" y1="560.88" x2="927.968" y2="585.072" gradientUnits="userSpaceOnUse">
<stop stop-color="#FF7806"/>
<stop offset="1" stop-color="#FFA90B"/>
</linearGradient>
<linearGradient id="paint10_linear" x1="900.022" y1="582.033" x2="963.195" y2="551.593" gradientUnits="userSpaceOnUse">
<stop stop-color="#FFCB0E"/>
<stop offset="1" stop-color="#FF9A0A"/>
</linearGradient>
<linearGradient id="paint11_linear" x1="882.336" y1="540.472" x2="923.124" y2="559.103" gradientUnits="userSpaceOnUse">
<stop stop-color="white"/>
<stop offset="0.13" stop-color="#CECECE"/>
<stop offset="0.31" stop-color="#909090"/>
<stop offset="0.48" stop-color="#5D5D5D"/>
<stop offset="0.64" stop-color="#353535"/>
<stop offset="0.78" stop-color="#181818"/>
<stop offset="0.91" stop-color="#060606"/>
<stop offset="1"/>
</linearGradient>
<linearGradient id="paint12_linear" x1="19267.9" y1="8179.63" x2="20603.2" y2="9106.77" gradientUnits="userSpaceOnUse">
<stop stop-color="#FF9E11"/>
<stop offset="1" stop-color="#FF760A"/>
</linearGradient>
<linearGradient id="paint13_linear" x1="18265.4" y1="7731.8" x2="19399.7" y2="8595.24" gradientUnits="userSpaceOnUse">
<stop stop-color="#FFDA1B"/>
<stop offset="1" stop-color="#FFA613"/>
</linearGradient>
<linearGradient id="paint14_linear" x1="10298.9" y1="5863.89" x2="10918.8" y2="6182.08" gradientUnits="userSpaceOnUse">
<stop stop-color="#FF920E"/>
<stop offset="1" stop-color="#FF6F0A"/>
</linearGradient>
<linearGradient id="paint15_linear" x1="13947.5" y1="6824.79" x2="13217.6" y2="6455.75" gradientUnits="userSpaceOnUse">
<stop stop-color="#FFCB0E"/>
<stop offset="1" stop-color="#FF9A0A"/>
</linearGradient>
<linearGradient id="paint16_linear" x1="7703.74" y1="6169.81" x2="7295.89" y2="6517.43" gradientUnits="userSpaceOnUse">
<stop stop-color="#FF7806"/>
<stop offset="1" stop-color="#FFA90B"/>
</linearGradient>
<linearGradient id="paint17_linear" x1="14477.2" y1="7713.63" x2="15173.2" y2="8142.55" gradientUnits="userSpaceOnUse">
<stop stop-color="white"/>
<stop offset="0.13" stop-color="#CECECE"/>
<stop offset="0.31" stop-color="#909090"/>
<stop offset="0.48" stop-color="#5D5D5D"/>
<stop offset="0.64" stop-color="#353535"/>
<stop offset="0.78" stop-color="#181818"/>
<stop offset="0.91" stop-color="#060606"/>
<stop offset="1"/>
</linearGradient>
<linearGradient id="paint18_linear" x1="19200.1" y1="7963.64" x2="21238.4" y2="8562.18" gradientUnits="userSpaceOnUse">
<stop stop-color="#FF9E11"/>
<stop offset="1" stop-color="#FF760A"/>
</linearGradient>
<linearGradient id="paint19_linear" x1="18460" y1="7452.66" x2="19594.9" y2="8315.99" gradientUnits="userSpaceOnUse">
<stop stop-color="#FFDA1B"/>
<stop offset="1" stop-color="#FFA613"/>
</linearGradient>
<linearGradient id="paint20_linear" x1="10406.3" y1="5645.48" x2="11026" y2="5963.84" gradientUnits="userSpaceOnUse">
<stop stop-color="#FF920E"/>
<stop offset="1" stop-color="#FF6F0A"/>
</linearGradient>
<linearGradient id="paint21_linear" x1="14271.2" y1="6672.91" x2="13247.2" y2="6040.18" gradientUnits="userSpaceOnUse">
<stop stop-color="#FF7806"/>
<stop offset="1" stop-color="#FFA90B"/>
</linearGradient>
<linearGradient id="paint22_linear" x1="7211.83" y1="6524.74" x2="7834.98" y2="6172.56" gradientUnits="userSpaceOnUse">
<stop stop-color="#FF7806"/>
<stop offset="1" stop-color="#FFA90B"/>
</linearGradient>
<linearGradient id="paint23_linear" x1="14629.3" y1="7436.27" x2="15326.2" y2="7865.11" gradientUnits="userSpaceOnUse">
<stop stop-color="white"/>
<stop offset="0.13" stop-color="#CECECE"/>
<stop offset="0.31" stop-color="#909090"/>
<stop offset="0.48" stop-color="#5D5D5D"/>
<stop offset="0.64" stop-color="#353535"/>
<stop offset="0.78" stop-color="#181818"/>
<stop offset="0.91" stop-color="#060606"/>
<stop offset="1"/>
</linearGradient>
<linearGradient id="paint24_linear" x1="875.748" y1="540.981" x2="806.038" y2="552.962" gradientUnits="userSpaceOnUse">
<stop stop-color="#FFB917"/>
<stop offset="1" stop-color="#FF920E"/>
</linearGradient>
<linearGradient id="paint25_linear" x1="15810.3" y1="10950" x2="15349.9" y2="12069.7" gradientUnits="userSpaceOnUse">
<stop stop-color="#FF7806"/>
<stop offset="1" stop-color="#FFA90B"/>
</linearGradient>
<linearGradient id="paint26_linear" x1="14701.5" y1="10645.5" x2="13578.2" y2="11719.6" gradientUnits="userSpaceOnUse">
<stop stop-color="#FF9E11"/>
<stop offset="1" stop-color="#FF760A"/>
</linearGradient>
<linearGradient id="paint27_linear" x1="-42017" y1="47019.4" x2="-42984.8" y2="47916.8" gradientUnits="userSpaceOnUse">
<stop stop-color="#FFDA1B"/>
<stop offset="1" stop-color="#FFA613"/>
</linearGradient>
<linearGradient id="paint28_linear" x1="-34821.8" y1="38791.5" x2="-35302.3" y2="39194.2" gradientUnits="userSpaceOnUse">
<stop stop-color="white"/>
<stop offset="0.13" stop-color="#CECECE"/>
<stop offset="0.31" stop-color="#909090"/>
<stop offset="0.48" stop-color="#5D5D5D"/>
<stop offset="0.64" stop-color="#353535"/>
<stop offset="0.78" stop-color="#181818"/>
<stop offset="0.91" stop-color="#060606"/>
<stop offset="1"/>
</linearGradient>
<linearGradient id="paint29_linear" x1="816.902" y1="576.878" x2="868.297" y2="553.85" gradientUnits="userSpaceOnUse">
<stop stop-color="#FFA90B"/>
<stop offset="1" stop-color="#FF7806"/>
</linearGradient>
<linearGradient id="paint30_linear" x1="19595.2" y1="7594.38" x2="20929.3" y2="8519.79" gradientUnits="userSpaceOnUse">
<stop stop-color="#FF9E11"/>
<stop offset="1" stop-color="#FF760A"/>
</linearGradient>
<linearGradient id="paint31_linear" x1="18596.8" y1="7178.02" x2="19730.5" y2="8041.35" gradientUnits="userSpaceOnUse">
<stop stop-color="#FFDA1B"/>
<stop offset="1" stop-color="#FFA613"/>
</linearGradient>
<linearGradient id="paint32_linear" x1="10487.8" y1="5442.11" x2="11107.7" y2="5760.81" gradientUnits="userSpaceOnUse">
<stop stop-color="#FF920E"/>
<stop offset="1" stop-color="#FF6F0A"/>
</linearGradient>
<linearGradient id="paint33_linear" x1="14178.4" y1="6376.11" x2="13448.2" y2="6006.99" gradientUnits="userSpaceOnUse">
<stop stop-color="#FFCB0E"/>
<stop offset="1" stop-color="#FF9A0A"/>
</linearGradient>
<linearGradient id="paint34_linear" x1="7827.88" y1="5700.39" x2="7422.17" y2="6048.35" gradientUnits="userSpaceOnUse">
<stop stop-color="#FF7806"/>
<stop offset="1" stop-color="#FFA90B"/>
</linearGradient>
<linearGradient id="paint35_linear" x1="14742.7" y1="7164.43" x2="15439.5" y2="7593.66" gradientUnits="userSpaceOnUse">
<stop stop-color="white"/>
<stop offset="0.13" stop-color="#CECECE"/>
<stop offset="0.31" stop-color="#909090"/>
<stop offset="0.48" stop-color="#5D5D5D"/>
<stop offset="0.64" stop-color="#353535"/>
<stop offset="0.78" stop-color="#181818"/>
<stop offset="0.91" stop-color="#060606"/>
<stop offset="1"/>
</linearGradient>
<linearGradient id="paint36_linear" x1="19267.3" y1="7418.5" x2="21308.7" y2="8019.12" gradientUnits="userSpaceOnUse">
<stop stop-color="#FF9E11"/>
<stop offset="1" stop-color="#FF760A"/>
</linearGradient>
<linearGradient id="paint37_linear" x1="18491.4" y1="6934.03" x2="19625.8" y2="7797.48" gradientUnits="userSpaceOnUse">
<stop stop-color="#FFDA1B"/>
<stop offset="1" stop-color="#FFA613"/>
</linearGradient>
<linearGradient id="paint38_linear" x1="14293.8" y1="6255.79" x2="13269.2" y2="5623.71" gradientUnits="userSpaceOnUse">
<stop stop-color="#FF7806"/>
<stop offset="1" stop-color="#FFA90B"/>
</linearGradient>
<linearGradient id="paint39_linear" x1="7223.64" y1="6146.7" x2="7848.21" y2="5795.06" gradientUnits="userSpaceOnUse">
<stop stop-color="#FF7806"/>
<stop offset="1" stop-color="#FFA90B"/>
</linearGradient>
<linearGradient id="paint40_linear" x1="14654" y1="6919.75" x2="15350.5" y2="7348.73" gradientUnits="userSpaceOnUse">
<stop stop-color="white"/>
<stop offset="0.13" stop-color="#CECECE"/>
<stop offset="0.31" stop-color="#909090"/>
<stop offset="0.48" stop-color="#5D5D5D"/>
<stop offset="0.64" stop-color="#353535"/>
<stop offset="0.78" stop-color="#181818"/>
<stop offset="0.91" stop-color="#060606"/>
<stop offset="1"/>
</linearGradient>
<linearGradient id="paint41_linear" x1="3523.86" y1="9500.05" x2="5561.51" y2="10098.7" gradientUnits="userSpaceOnUse">
<stop stop-color="#FF9E11"/>
<stop offset="1" stop-color="#FF760A"/>
</linearGradient>
<linearGradient id="paint42_linear" x1="3627.98" y1="8903.99" x2="4762.18" y2="9765.59" gradientUnits="userSpaceOnUse">
<stop stop-color="#FFDA1B"/>
<stop offset="1" stop-color="#FFA613"/>
</linearGradient>
<linearGradient id="paint43_linear" x1="3562.19" y1="7862.23" x2="2537.5" y2="7230.5" gradientUnits="userSpaceOnUse">
<stop stop-color="#FF7806"/>
<stop offset="1" stop-color="#FFA90B"/>
</linearGradient>
<linearGradient id="paint44_linear" x1="1641" y1="7663.89" x2="2264.52" y2="7311.1" gradientUnits="userSpaceOnUse">
<stop stop-color="#FF7806"/>
<stop offset="1" stop-color="#FFA90B"/>
</linearGradient>
<linearGradient id="paint45_linear" x1="6892.2" y1="52589.3" x2="8279.43" y2="53954.6" gradientUnits="userSpaceOnUse">
<stop stop-color="#FF9E11"/>
<stop offset="1" stop-color="#FF760A"/>
</linearGradient>
<linearGradient id="paint46_linear" x1="6805.41" y1="49504.5" x2="7486.01" y2="50742.8" gradientUnits="userSpaceOnUse">
<stop stop-color="#FFDA1B"/>
<stop offset="1" stop-color="#FFA613"/>
</linearGradient>
<linearGradient id="paint47_linear" x1="-4647.59" y1="45351.2" x2="-5342.19" y2="44546.8" gradientUnits="userSpaceOnUse">
<stop stop-color="#FF7806"/>
<stop offset="1" stop-color="#FFA90B"/>
</linearGradient>
<linearGradient id="paint48_linear" x1="10044.7" y1="20175.8" x2="10624.4" y2="19888.8" gradientUnits="userSpaceOnUse">
<stop stop-color="#FF7806"/>
<stop offset="1" stop-color="#FFA90B"/>
</linearGradient>
<linearGradient id="paint49_linear" x1="11892.2" y1="37895.3" x2="12167.3" y2="38670.2" gradientUnits="userSpaceOnUse">
<stop stop-color="white"/>
<stop offset="0.13" stop-color="#CECECE"/>
<stop offset="0.31" stop-color="#909090"/>
<stop offset="0.48" stop-color="#5D5D5D"/>
<stop offset="0.64" stop-color="#353535"/>
<stop offset="0.78" stop-color="#181818"/>
<stop offset="0.91" stop-color="#060606"/>
<stop offset="1"/>
</linearGradient>
<linearGradient id="paint50_linear" x1="310.04" y1="531.182" x2="224.297" y2="568.557" gradientUnits="userSpaceOnUse">
<stop stop-color="#2F80ED"/>
<stop offset="1" stop-color="#E2EFFF"/>
</linearGradient>
<linearGradient id="paint51_linear" x1="310.04" y1="531.182" x2="224.297" y2="568.557" gradientUnits="userSpaceOnUse">
<stop stop-color="#2F80ED"/>
<stop offset="1" stop-color="#E2EFFF"/>
</linearGradient>
</defs>
</svg>
