<svg width="100" height="100" viewBox="0 0 100 100" fill="none" xmlns="http://www.w3.org/2000/svg">
<path d="M85.9306 95.0348L98.5168 98.5168L95.0356 85.9306C98.175 81.0982 100 75.3326 100 69.1406C100 52.0973 86.1839 38.2812 69.1406 38.2812C52.0973 38.2812 38.2812 52.0973 38.2812 69.1406C38.2812 86.1839 52.0973 100 69.1406 100C75.3326 100 81.0982 98.175 85.9306 95.0348Z" fill="#5D5D5D"/>
<path d="M38.1836 0L22.5586 38.1836L38.1836 76.3672C59.2384 76.3672 76.3672 59.2384 76.3672 38.1836C76.3672 17.1288 59.2384 0 38.1836 0Z" fill="#276DCB"/>
<path d="M0 38.1836C0 45.0455 1.82648 51.7265 5.2948 57.592L0.140381 76.226L18.7752 71.0724C24.6407 74.5407 31.3217 76.3672 38.1836 76.3672V0C17.1288 0 0 17.1288 0 38.1836Z" fill="#2F80ED"/>
<path d="M35.2539 52.9297H41.1133V58.7891H35.2539V52.9297Z" fill="white"/>
<path d="M35.2539 39.921V47.0705H38.1836L40.1367 42.1549L38.1836 37.2393L35.2539 39.921Z" fill="white"/>
<path d="M26.4648 29.2969H32.3242C32.3242 26.0658 34.9525 23.4375 38.1836 23.4375L40.1367 20.5078L38.1836 17.5781C31.7215 17.5781 26.4648 22.8348 26.4648 29.2969Z" fill="white"/>
<path d="M38.1836 17.5781V23.4375C41.4146 23.4375 44.043 26.0658 44.043 29.2969C44.043 30.9608 43.3655 32.4966 42.1356 33.622L38.1836 37.2391V47.0703H41.1133V42.5011L46.0915 37.9448C48.513 35.7285 49.9023 32.5768 49.9023 29.2969C49.9023 22.8348 44.6457 17.5781 38.1836 17.5781Z" fill="white"/>
</svg>
