<svg width="149" height="49" viewBox="0 0 149 49" fill="none" xmlns="http://www.w3.org/2000/svg">
<path d="M7.42444 1.88252e-06V0.489186V5.38339V9.3125H12.8078V5.38339H50.4916L50.4915 0L7.42444 1.88252e-06Z" fill="#404040"/>
<path d="M55.875 5.38339H50.4916V9.3125H55.875V5.38339Z" fill="#404040"/>
<path d="M55.3856 48.4506L7.42444 48.4503V39.3194H12.8078V43.0672L50.4916 43.0672V39.3194H55.875V48.4505L55.3856 48.4506Z" fill="#404040"/>
<path fill-rule="evenodd" clip-rule="evenodd" d="M39.7248 18.1079V13.2139L24.0641 13.2139V13.2139H24.064V22.5125H28.958V18.1079L39.7248 18.1079ZM34.3414 28.8746V23.9806H28.958L24.064 23.9806L24.064 23.9806V36.2156H28.958V28.8746L34.3414 28.8746Z" fill="#404040"/>
<path d="M8.74618 31.9975H11.5622C12.2248 31.9975 12.7659 31.8318 13.1855 31.5005C13.6273 31.1472 13.8481 30.6502 13.8481 30.0097V19.077C13.8481 18.4365 13.6273 17.9506 13.1855 17.6193C12.7659 17.2659 12.2248 17.0892 11.5622 17.0892H8.74618C8.10568 17.0892 7.56456 17.2659 7.12284 17.6193C6.7032 17.9506 6.49338 18.4365 6.49338 19.077V30.0097C6.49338 30.6502 6.7032 31.1472 7.12284 31.5005C7.56456 31.8318 8.10568 31.9975 8.74618 31.9975ZM12.1585 36.3374H8.44801C6.3719 36.3374 4.70438 35.8184 3.44546 34.7804C2.20863 33.7423 1.59021 32.5055 1.59021 31.0699V18.0169C1.59021 16.5812 2.20863 15.3444 3.44546 14.3064C4.70438 13.2683 6.3719 12.7493 8.44801 12.7493H12.1585C14.1463 12.7493 15.7365 13.2683 16.9292 14.3064C18.1218 15.3444 18.7181 16.5812 18.7181 18.0169V31.0699C18.7181 32.5055 18.1218 33.7423 16.9292 34.7804C15.7365 35.8184 14.1463 36.3374 12.1585 36.3374Z" fill="#2F80ED"/>
<path d="M44.4114 36.1387V12.948H54.9797C56.9674 12.948 58.5576 13.4671 59.7503 14.5051C60.943 15.5432 61.5393 16.78 61.5393 18.2156V30.8711C61.5393 32.3067 60.943 33.5435 59.7503 34.5816C58.5576 35.6196 56.9674 36.1387 54.9797 36.1387H44.4114ZM54.3833 17.288H49.3145V31.7987H54.3833C55.0459 31.7987 55.587 31.6331 56.0067 31.3018C56.4484 30.9484 56.6693 30.4514 56.6693 29.8109V19.2758C56.6693 18.6353 56.4484 18.1494 56.0067 17.8181C55.587 17.4647 55.0459 17.288 54.3833 17.288ZM70.0528 36.1387H65.1496V12.9149H70.2516L76.1817 25.5372L82.145 12.9149H87.0151V36.1387H82.145V23.1188L78.4014 31.1361H73.7633L70.0528 23.1188V36.1387ZM97.5262 12.8818H102.429L110.115 36.1387H105.245L103.821 31.5337H96.1347L94.7433 36.1387H89.8401L97.5262 12.8818ZM99.9115 19.0107L97.4268 27.1937H102.462L99.9115 19.0107ZM117.838 36.1387H112.935V12.9149H123.039C125.049 12.9149 126.651 13.4339 127.843 14.472C129.058 15.488 129.665 16.7138 129.665 18.1494V23.0857C129.665 24.0133 129.378 24.8857 128.804 25.7029C128.252 26.498 127.468 27.1275 126.452 27.5913L130.195 36.1387H125.094L121.615 28.2539H117.838V36.1387ZM122.443 17.288H117.838V23.9139H122.509C123.172 23.9139 123.713 23.7483 124.133 23.417C124.574 23.0857 124.795 22.6108 124.795 21.9924V19.2095C124.795 18.569 124.574 18.0942 124.133 17.7849C123.691 17.4537 123.128 17.288 122.443 17.288ZM142.759 36.1387H137.889V17.2549H132.323V12.9149H147.828V17.2549H142.759V36.1387Z" fill="#2F80ED"/>
</svg>
