<svg width="234" height="77" viewBox="0 0 234 77" fill="none" xmlns="http://www.w3.org/2000/svg">
<path fill-rule="evenodd" clip-rule="evenodd" d="M167.29 53.7824C166.335 54.7379 165.023 55.3318 163.58 55.3318H159.274V44.7983H163.58C165.023 44.7983 166.335 45.3923 167.29 46.3477C168.244 47.3032 168.834 48.6187 168.834 50.0662C168.834 51.51 168.244 52.8256 167.29 53.7824ZM153.697 55.3318H149.39C147.947 55.3318 146.635 54.7379 145.681 53.7824C144.726 52.8256 144.135 51.51 144.135 50.0653C144.135 48.6187 144.726 47.3032 145.681 46.3477C146.634 45.3923 147.947 44.7983 149.39 44.7983H153.697V55.3318ZM171.231 42.3958C173.193 44.3631 174.41 47.0783 174.41 50.0653C174.41 53.0528 173.193 55.7671 171.231 57.7343C169.271 59.7006 166.562 60.9209 163.58 60.9209H159.274V63.2009C159.274 64.7451 158.024 65.9963 156.485 65.9963C154.945 65.9963 153.697 64.7451 153.697 63.2009V60.9209H149.39C146.408 60.9209 143.7 59.7006 141.739 57.7343C139.777 55.7671 138.559 53.0528 138.559 50.0662C138.559 47.0783 139.777 44.3631 141.739 42.3958C143.7 40.4309 146.408 39.2092 149.39 39.2092H153.697V36.9293C153.697 35.3855 154.945 34.1338 156.485 34.1338C158.024 34.1338 159.274 35.3855 159.274 36.9293V39.2092H163.58C166.562 39.2092 169.271 40.4309 171.231 42.3958ZM181.597 47.2667H199.124C200.667 47.2667 201.918 48.5198 201.918 50.0664C201.918 51.6106 200.667 52.8661 199.124 52.8661H181.597C180.055 52.8661 178.804 51.6106 178.804 50.0664C178.804 48.5198 180.055 47.2667 181.597 47.2667ZM231.025 57.6753C232.566 57.6753 233.814 58.927 233.814 60.4713V65.8622C233.814 67.405 232.566 68.6567 231.025 68.6567C229.485 68.6567 228.239 67.405 228.239 65.8622V63.2658H227.159H207.126V65.8622C207.126 67.405 205.877 68.6567 204.338 68.6567C202.799 68.6567 201.55 67.405 201.55 65.8622V60.4713C201.55 58.927 202.799 57.6753 204.338 57.6753C204.531 57.6753 204.718 57.6955 204.899 57.7316C205.624 57.2659 206.341 56.5001 206.907 55.5447C207.519 54.5127 207.919 53.2938 207.919 52.0346V39.0911C207.919 38.3666 208.193 37.7065 208.645 37.2107L208.689 37.1628L208.69 37.1614L208.735 37.114L208.738 37.1125L208.783 37.0675L208.784 37.0661L208.833 37.0219V37.021L208.883 36.9769V36.9759L208.933 36.9332H208.934L208.986 36.8914L208.987 36.8905L209.038 36.8501H209.04L209.094 36.8111L209.095 36.8102L209.149 36.7722V36.7712L209.204 36.736L209.205 36.7346L209.26 36.6994L209.262 36.6984L209.319 36.6656C209.727 36.4308 210.201 36.2942 210.708 36.2942H227.159C228.458 36.2942 229.55 37.1853 229.858 38.392L229.875 38.4582L229.89 38.5263V38.5277L229.902 38.5953L229.915 38.6643L229.925 38.7333V38.7347L229.932 38.8037V38.8047L229.937 38.8742L229.943 38.9441V38.9469L229.946 39.0169V39.0183V39.0897V39.0911V57.6753H231.025ZM224.37 57.6753V41.8847H213.495V52.0346C213.495 54.061 212.954 55.9968 212.091 57.6753H224.37ZM102.308 40.1257C104.846 42.669 106.416 46.1843 106.416 50.0648C106.416 53.9453 104.846 57.4605 102.308 60.0039C99.7707 62.5487 96.2649 64.122 92.3936 64.122C88.521 64.122 85.0142 62.5487 82.4781 60.0039C79.9392 57.4605 78.37 53.9453 78.37 50.0648C78.37 46.1843 79.9392 42.669 82.4781 40.1257C85.0142 37.5833 88.521 36.0076 92.3936 36.0076C96.2649 36.0076 99.7707 37.5833 102.308 40.1257ZM98.3667 56.052C99.8948 54.5205 100.839 52.4039 100.839 50.0648C100.839 47.7262 99.8948 45.6091 98.3667 44.0776C96.8373 42.546 94.7257 41.5981 92.3936 41.5981C90.0602 41.5981 87.9486 42.546 86.4196 44.0776C84.8916 45.6091 83.9458 47.7262 83.9458 50.0648C83.9458 52.4039 84.8916 54.5205 86.4196 56.052C87.9486 57.5836 90.0602 58.5329 92.3936 58.5329C94.7257 58.5329 96.8373 57.5836 98.3667 56.052ZM113.708 52.8651C112.167 52.8651 110.915 51.611 110.915 50.0654C110.915 48.5188 112.167 47.2657 113.708 47.2657H131.235C132.778 47.2657 134.029 48.5188 134.029 50.0654C134.029 51.611 132.778 52.8651 131.235 52.8651H113.708ZM0.199463 37.2709L64.2322 0.771973L64.3871 73.6332L0.199463 37.2709Z" fill="#4BA1A5"/>
<path fill-rule="evenodd" clip-rule="evenodd" d="M94.9781 29.5129C94.9781 29.6424 94.9308 29.7551 94.8368 29.8486C94.7422 29.9443 94.6308 29.9903 94.5003 29.9903H92.1865C92.0564 29.9903 91.9445 29.9443 91.85 29.8486C91.7559 29.7551 91.7087 29.6424 91.7087 29.5129V20.4264H87.433V29.5129C87.433 29.6424 87.3848 29.7551 87.2917 29.8486C87.1962 29.9443 87.0858 29.9903 86.9552 29.9903H84.64C84.5099 29.9903 84.3994 29.9443 84.304 29.8486C84.2108 29.7551 84.1626 29.6424 84.1626 29.5129V18.0708C84.1626 17.9403 84.2108 17.8286 84.304 17.7337C84.3994 17.6394 84.5099 17.5919 84.64 17.5919H94.5003C94.6308 17.5919 94.7422 17.6394 94.8368 17.7337C94.9308 17.8286 94.9781 17.9403 94.9781 18.0708V29.5129ZM106.186 25.7408C106.186 27.1451 105.787 28.2344 104.992 29.0091C104.198 29.7814 103.104 30.1683 101.714 30.1683H101.431C101.302 30.1683 101.19 30.1209 101.096 30.0265C101.002 29.9321 100.955 29.819 100.955 29.6894V27.8127C100.955 27.6822 101.002 27.57 101.096 27.4756C101.19 27.3813 101.302 27.3338 101.431 27.3338C101.962 27.3338 102.342 27.2094 102.571 26.962C102.801 26.7146 102.916 26.3066 102.916 25.7408V18.0708C102.916 17.9403 102.962 17.8286 103.058 17.7337C103.152 17.6394 103.264 17.5919 103.393 17.5919H112.281C112.411 17.5919 112.522 17.6394 112.618 17.7337C112.712 17.8286 112.759 17.9403 112.759 18.0708V29.5129C112.759 29.6424 112.712 29.7551 112.618 29.8486C112.522 29.9443 112.411 29.9903 112.281 29.9903H109.966C109.837 29.9903 109.724 29.9443 109.631 29.8486C109.537 29.7551 109.49 29.6424 109.49 29.5129V20.4264H106.186V25.7408ZM130.876 29.3349C130.923 29.4542 130.946 29.5429 130.946 29.6011C130.946 29.7068 130.908 29.7988 130.832 29.8758C130.755 29.9518 130.664 29.9903 130.557 29.9903H128.331C128.13 29.9903 127.974 29.9467 127.863 29.8584C127.75 29.7692 127.677 29.6669 127.642 29.5476L127.147 28.079H122.447L121.952 29.5476C121.916 29.6669 121.842 29.7692 121.731 29.8584C121.619 29.9467 121.463 29.9903 121.262 29.9903H119.036C118.931 29.9903 118.839 29.9518 118.762 29.8758C118.685 29.7988 118.648 29.7068 118.648 29.6011C118.648 29.5429 118.67 29.4542 118.717 29.3349L122.57 18.1765C122.628 18.0112 122.724 17.8732 122.853 17.7586C122.982 17.6483 123.153 17.5919 123.364 17.5919H126.228C126.44 17.5919 126.611 17.6483 126.74 17.7586C126.87 17.8732 126.964 18.0112 127.023 18.1765L130.876 29.3349ZM126.228 25.3328L124.796 21.0809L123.364 25.3328H126.228ZM144.68 17.5919C144.81 17.5919 144.922 17.6394 145.016 17.7337C145.111 17.8286 145.158 17.9403 145.158 18.0708V19.9465C145.158 20.0785 145.111 20.1902 145.016 20.2846C144.922 20.3794 144.81 20.4264 144.68 20.4264H141.569V29.5129C141.569 29.6424 141.523 29.7551 141.428 29.8486C141.335 29.9443 141.224 29.9903 141.093 29.9903H138.779C138.649 29.9903 138.536 29.9443 138.443 29.8486C138.349 29.7551 138.301 29.6424 138.301 29.5129V20.4264H135.191C135.062 20.4264 134.949 20.3794 134.856 20.2846C134.761 20.1902 134.715 20.0785 134.715 19.9465V18.0708C134.715 17.9403 134.761 17.8286 134.856 17.7337C134.949 17.6394 135.062 17.5919 135.191 17.5919H144.68ZM158.15 19.0272C159.622 19.2385 160.821 19.7385 161.745 20.5236C162.671 21.3081 163.132 22.3979 163.132 23.7918C163.132 25.1849 162.671 26.2742 161.745 27.0592C160.821 27.8451 159.622 28.3438 158.15 28.5565V29.8659C158.15 29.9965 158.102 30.1087 158.008 30.203C157.914 30.2988 157.802 30.3448 157.672 30.3448H155.357C155.229 30.3448 155.116 30.2988 155.022 30.203C154.927 30.1087 154.88 29.9965 154.88 29.8659V28.5565C153.407 28.3438 152.209 27.8451 151.285 27.0592C150.359 26.2742 149.896 25.1849 149.896 23.7918C149.896 22.3979 150.359 21.3081 151.285 20.5236C152.209 19.7385 153.407 19.2385 154.88 19.0272V17.7164C154.88 17.5858 154.927 17.4741 155.022 17.3793C155.116 17.2849 155.229 17.2375 155.357 17.2375H157.672C157.802 17.2375 157.914 17.2849 158.008 17.3793C158.102 17.4741 158.15 17.5858 158.15 17.7164V19.0272ZM154.88 21.8617C153.738 22.0856 153.167 22.7284 153.167 23.7918C153.167 24.8539 153.738 25.4971 154.88 25.7234V21.8617ZM158.15 25.7234C159.293 25.4971 159.863 24.8539 159.863 23.7918C159.863 22.7284 159.293 22.0856 158.15 21.8617V25.7234ZM174.005 17.4145C175.124 17.4145 176.09 17.6272 176.902 18.0521C177.716 18.4774 178.344 19.0521 178.785 19.7799C179.227 20.5048 179.471 21.317 179.519 22.2162C179.541 22.5458 179.554 23.0768 179.554 23.8092C179.554 24.5295 179.541 25.0492 179.519 25.3675C179.471 26.2657 179.227 27.0775 178.785 27.8038C178.344 28.5302 177.716 29.1063 176.902 29.5293C176.09 29.9556 175.124 30.1683 174.005 30.1683C172.885 30.1683 171.921 29.9556 171.107 29.5293C170.294 29.1063 169.666 28.5302 169.224 27.8038C168.784 27.0775 168.538 26.2657 168.492 25.3675C168.468 24.7295 168.456 24.2111 168.456 23.8092C168.456 23.4078 168.468 22.8763 168.492 22.2162C168.538 21.317 168.784 20.5048 169.224 19.7799C169.666 19.0521 170.294 18.4774 171.107 18.0521C171.921 17.6272 172.885 17.4145 174.005 17.4145ZM176.25 22.303C176.19 21.6776 175.976 21.179 175.605 20.8072C175.234 20.4339 174.7 20.2484 174.005 20.2484C173.311 20.2484 172.777 20.4339 172.404 20.8072C172.034 21.179 171.82 21.6776 171.761 22.303C171.726 22.6927 171.709 23.1838 171.709 23.7731C171.709 24.3529 171.726 24.8539 171.761 25.2793C171.82 25.9051 172.034 26.4047 172.404 26.7756C172.777 27.1484 173.311 27.3338 174.005 27.3338C174.7 27.3338 175.234 27.1484 175.605 26.7756C175.976 26.4047 176.19 25.9051 176.25 25.2793C176.285 24.8539 176.302 24.3529 176.302 23.7731C176.302 23.1838 176.285 22.6927 176.25 22.303ZM190.868 17.5919C192.401 17.5919 193.6 17.9441 194.465 18.6469C195.331 19.3484 195.764 20.3794 195.764 21.7373C195.764 23.0956 195.331 24.1266 194.465 24.8365C193.6 25.5455 192.401 25.9 190.868 25.9H188.608V29.5129C188.608 29.6424 188.56 29.7551 188.465 29.8486C188.372 29.9443 188.26 29.9903 188.13 29.9903H185.816C185.685 29.9903 185.573 29.9443 185.479 29.8486C185.385 29.7551 185.338 29.6424 185.338 29.5129V18.0708C185.338 17.9403 185.385 17.8286 185.479 17.7337C185.573 17.6394 185.685 17.5919 185.816 17.5919H190.868ZM190.781 23.1364C191.299 23.1364 191.715 23.0209 192.027 22.7894C192.338 22.5608 192.495 22.2101 192.495 21.7373C192.495 21.2649 192.338 20.9128 192.027 20.6827C191.715 20.4527 191.299 20.3372 190.781 20.3372H188.608V23.1364H190.781ZM204.834 23.6501V29.5129C204.834 29.6424 204.787 29.7551 204.693 29.8486C204.598 29.9443 204.485 29.9903 204.356 29.9903H202.042C201.912 29.9903 201.801 29.9443 201.706 29.8486C201.61 29.7551 201.565 29.6424 201.565 29.5129V18.0708C201.565 17.9403 201.61 17.8286 201.706 17.7337C201.801 17.6394 201.912 17.5919 202.042 17.5919H204.091C204.422 17.5919 204.675 17.7511 204.853 18.0708L207.714 22.9763L210.576 18.0708C210.754 17.7511 211.008 17.5919 211.337 17.5919H213.387C213.517 17.5919 213.628 17.6394 213.723 17.7337C213.817 17.8286 213.864 17.9403 213.864 18.0708V29.5129C213.864 29.6424 213.817 29.7551 213.723 29.8486C213.628 29.9443 213.517 29.9903 213.387 29.9903H211.071C210.942 29.9903 210.83 29.9443 210.736 29.8486C210.642 29.7551 210.595 29.6424 210.595 29.5129V23.6501L208.934 26.5704C208.851 26.7033 208.76 26.808 208.66 26.8911C208.56 26.9733 208.433 27.0141 208.279 27.0141H207.149C206.995 27.0141 206.869 26.9733 206.768 26.8911C206.669 26.808 206.577 26.7033 206.495 26.5704L204.834 23.6501ZM231.628 29.3349C231.675 29.4542 231.699 29.5429 231.699 29.6011C231.699 29.7068 231.66 29.7988 231.584 29.8758C231.508 29.9518 231.417 29.9903 231.31 29.9903H229.084C228.884 29.9903 228.727 29.9467 228.614 29.8584C228.504 29.7692 228.429 29.6669 228.394 29.5476L227.899 28.079H223.198L222.705 29.5476C222.67 29.6669 222.596 29.7692 222.482 29.8584C222.372 29.9467 222.216 29.9903 222.015 29.9903H219.789C219.682 29.9903 219.592 29.9518 219.515 29.8758C219.438 29.7988 219.399 29.7068 219.399 29.6011C219.399 29.5429 219.423 29.4542 219.47 29.3349L223.322 18.1765C223.382 18.0112 223.475 17.8732 223.606 17.7586C223.734 17.6483 223.906 17.5919 224.118 17.5919H226.98C227.192 17.5919 227.364 17.6483 227.494 17.7586C227.621 17.8732 227.717 18.0112 227.777 18.1765L231.628 29.3349ZM226.98 25.3328H224.118L225.55 21.0809L226.98 25.3328ZM33.7441 46.784V0.180176L74.9595 23.4802L33.7441 46.784Z" fill="#25606D"/>
</svg>
