<svg width="667" height="538" viewBox="0 0 667 538" fill="none" xmlns="http://www.w3.org/2000/svg">
<g style="mix-blend-mode:multiply">
<path d="M597.556 442.942C598.909 443.712 600.029 442.942 600.029 441.582V403.595C599.985 402.76 599.738 401.946 599.308 401.222C598.878 400.497 598.277 399.881 597.556 399.425L551.773 373.722C550.42 372.997 549.253 373.722 549.253 375.128V413.114C549.301 413.949 549.55 414.761 549.979 415.485C550.409 416.209 551.007 416.826 551.726 417.285L597.556 442.942ZM551.913 370.413L597.696 396.07C599.271 397.063 600.585 398.4 601.533 399.974C602.481 401.548 603.037 403.316 603.156 405.136V443.123C603.156 446.523 600.683 447.883 597.649 446.16L551.54 420.639C549.961 419.646 548.642 418.31 547.686 416.737C546.731 415.163 546.165 413.395 546.033 411.573V373.632C546.406 369.869 548.88 368.691 551.913 370.368V370.413Z" fill="#CBDBEC"/>
</g>
<path d="M45.1726 1.12958L139.592 55.5743C141.994 57.1325 143.993 59.236 145.428 61.7135C146.863 64.191 147.692 66.9725 147.849 69.8315L147.618 150.437C147.618 155.697 143.882 157.774 139.316 155.051L45.1726 100.699C42.7746 99.1411 40.7801 97.0366 39.3528 94.5583C37.9256 92.0799 37.1063 89.2983 36.9622 86.4417L37.1928 5.83582C37.1005 0.622046 40.56 -1.50038 45.1726 1.12958Z" fill="#2A75DB"/>
<g style="mix-blend-mode:multiply">
<path d="M5.51192 37.7294L68.3662 73.9138C70.0007 74.9725 71.3579 76.4056 72.3247 78.0937C73.2916 79.7818 73.8401 81.676 73.9244 83.6184V137.271C73.9244 140.737 71.4695 142.123 68.4125 140.367L5.51192 104.137C3.91154 103.101 2.57843 101.703 1.62076 100.057C0.663086 98.4115 0.107803 96.5634 7.62939e-06 94.6632V41.0567C7.62939e-06 37.4059 2.4549 35.9271 5.51192 37.7294Z" fill="#CBDBEC"/>
</g>
<g style="mix-blend-mode:multiply">
<path d="M590.793 422.545L660.882 462.934C662.659 464.107 664.137 465.679 665.199 467.522C666.261 469.366 666.878 471.432 667 473.556V533.319C667 537.194 664.26 538.744 660.836 536.783L590.793 496.394C589.003 495.257 587.513 493.707 586.448 491.874C585.383 490.041 584.775 487.98 584.675 485.864V426.055C584.675 422.18 587.415 420.585 590.793 422.545Z" fill="#CBDBEC"/>
</g>
<path d="M623.408 456.42C629.263 460.231 634.135 465.381 637.624 471.448C641.113 477.514 643.119 484.324 643.479 491.319C643.479 504.175 634.458 509.425 623.272 502.907C617.405 499.094 612.522 493.938 609.025 487.864C605.528 481.789 603.517 474.969 603.156 467.962C603.201 455.107 612.222 449.947 623.408 456.42ZM611.41 486.476C614.228 491.618 618.312 495.951 623.272 499.06C624.883 500.471 626.892 501.343 629.019 501.555C631.147 501.767 633.287 501.308 635.143 500.243C636.998 499.177 638.477 497.558 639.373 495.609C640.269 493.661 640.537 491.481 640.141 489.373C639.826 483.549 638.146 477.883 635.239 472.833C632.331 467.784 628.278 463.494 623.408 460.313C621.709 459.069 619.714 458.297 617.623 458.075C615.533 457.852 613.421 458.187 611.5 459.045C609.782 460.247 608.416 461.888 607.543 463.798C606.671 465.708 606.324 467.818 606.539 469.909C606.689 475.764 608.369 481.477 611.41 486.476ZM614.432 474.481C614.465 475.067 614.633 475.638 614.922 476.148C615.212 476.659 615.615 477.095 616.101 477.423L621.648 480.637V487.019C621.686 487.603 621.861 488.17 622.159 488.674C622.457 489.177 622.869 489.603 623.362 489.916C623.524 490.043 623.72 490.119 623.925 490.135C624.13 490.15 624.335 490.104 624.514 490.002C624.693 489.9 624.838 489.747 624.93 489.563C625.022 489.378 625.057 489.17 625.031 488.965V482.583L630.579 485.797C631.526 486.34 632.293 485.797 632.293 484.801C632.259 484.216 632.085 483.647 631.787 483.143C631.489 482.639 631.075 482.214 630.579 481.904L625.031 478.69V472.308C625.002 471.727 624.836 471.161 624.545 470.657C624.255 470.153 623.85 469.726 623.362 469.411C622.415 468.868 621.648 469.411 621.648 470.362V476.744L616.101 473.53C615.199 473.032 614.432 473.44 614.432 474.481Z" fill="white"/>
<path d="M595.589 225.187C595.935 225.408 596.225 225.713 596.437 226.075L607.862 246.827C608.308 247.622 608.308 248.557 607.862 248.837L602.595 252.015L600.899 248.977L605.362 246.266L595.633 228.599L585.815 234.442L590.278 242.527L588.582 243.509L583.315 234.161C583.113 233.774 583.006 233.34 583.003 232.899C582.981 232.745 583.004 232.587 583.067 232.446C583.131 232.304 583.232 232.186 583.36 232.105L594.83 225.281C594.941 225.204 595.067 225.156 595.199 225.14C595.33 225.123 595.464 225.14 595.589 225.187Z" fill="#CBDBEC"/>
<path d="M588.571 244.086L594.719 255.111C594.918 255.49 595.21 255.808 595.566 256.033C595.694 256.11 595.84 256.151 595.989 256.151C596.138 256.151 596.284 256.11 596.412 256.033L602.605 252.389L607.862 261.615C608.308 262.445 608.308 263.321 607.862 263.598L596.412 270.379C596.284 270.456 596.138 270.496 595.989 270.496C595.84 270.496 595.694 270.456 595.566 270.379C595.208 270.136 594.917 269.803 594.719 269.41L583.358 248.976C583.12 248.642 582.995 248.237 583.002 247.823C582.982 247.664 583.005 247.502 583.068 247.356C583.131 247.209 583.231 247.084 583.358 246.992L588.571 244.086ZM595.432 240.442C595.778 240.66 596.068 240.961 596.279 241.319L600.734 249.345L595.432 252.481L590.086 242.979L594.541 240.304C594.69 240.255 594.848 240.242 595.002 240.266C595.156 240.29 595.304 240.35 595.432 240.442Z" fill="#CBDBEC"/>
<path d="M589.688 243.615L595.523 253.21L601.309 250.229L603.156 253.257L596.398 256.937C596.258 257.014 596.098 257.055 595.936 257.055C595.774 257.055 595.615 257.014 595.474 256.937C595.086 256.71 594.767 256.388 594.55 256.005L588.035 244.593L589.688 243.615Z" fill="#C2CDDC"/>
<path d="M119.277 191.669C119.632 191.879 119.927 192.164 120.137 192.5L132.37 211.922C132.847 212.665 132.847 213.54 132.37 213.802L126.683 216.733L124.915 213.934L129.694 211.397L119.229 194.731L108.716 200.199L113.686 207.854L111.87 208.772L106.231 200.024C106.002 199.664 105.87 199.259 105.849 198.843C105.837 198.699 105.866 198.555 105.933 198.425C106 198.295 106.103 198.182 106.231 198.099L118.464 191.582C118.598 191.537 118.741 191.522 118.882 191.537C119.023 191.552 119.158 191.598 119.277 191.669Z" fill="#CBDBEC"/>
<path d="M111.833 208.641L118.523 219.58C118.733 219.957 119.042 220.273 119.418 220.496C119.55 220.56 119.695 220.594 119.842 220.594C119.989 220.594 120.135 220.56 120.266 220.496L126.815 216.834L132.375 225.988C132.846 226.812 132.846 227.681 132.375 227.956L120.031 235.096C119.903 235.173 119.756 235.214 119.607 235.214C119.457 235.214 119.31 235.173 119.183 235.096C118.804 234.855 118.496 234.524 118.287 234.135L106.226 213.859C105.994 213.502 105.864 213.091 105.849 212.669C105.837 212.519 105.865 212.368 105.932 212.232C105.998 212.095 106.099 211.978 106.226 211.891L111.833 208.641ZM119.277 205.163C119.638 205.369 119.933 205.671 120.125 206.033L124.836 213.996L119.183 217.109L113.811 207.635L118.523 204.98C118.789 204.948 119.057 205.014 119.277 205.163Z" fill="#CBDBEC"/>
<path d="M114.193 208.333L119.287 218.077L124.424 214.86L126.008 217.888L120.058 221.672C119.938 221.739 119.806 221.773 119.672 221.773C119.539 221.773 119.407 221.739 119.287 221.672C118.945 221.442 118.665 221.115 118.474 220.726L112.567 209.421L114.193 208.333Z" fill="#C2CDDC"/>
</svg>
