<svg width="828" height="816" viewBox="0 0 828 816" fill="none" xmlns="http://www.w3.org/2000/svg">
<g opacity="0.21">
<path opacity="0.2" d="M377 816C585.211 816 754 647.435 754 439.5C754 231.565 585.211 63 377 63C168.789 63 0 231.565 0 439.5C0 647.435 168.789 816 377 816Z" fill="white"/>
<path d="M571.551 613.777C571.874 613.214 572.308 612.72 572.825 612.324C573.342 611.928 573.933 611.637 574.564 611.468C575.195 611.299 575.854 611.256 576.502 611.34C577.15 611.425 577.775 611.635 578.34 611.96C586.279 616.514 595.712 617.767 604.58 615.445C613.447 613.124 621.026 607.417 625.662 599.572C625.957 598.965 626.376 598.424 626.892 597.984C627.407 597.543 628.009 597.213 628.659 597.013C629.309 596.813 629.993 596.749 630.67 596.822C631.346 596.896 632 597.107 632.591 597.443C633.181 597.778 633.696 598.23 634.102 598.771C634.509 599.312 634.799 599.931 634.954 600.588C635.109 601.244 635.125 601.926 635.003 602.59C634.881 603.253 634.622 603.885 634.243 604.445C628.327 614.58 618.598 621.976 607.189 625.01C595.78 628.045 583.623 626.47 573.383 620.632C572.799 620.311 572.286 619.876 571.875 619.354C571.464 618.831 571.164 618.232 570.993 617.592C570.822 616.951 570.783 616.283 570.879 615.628C570.974 614.972 571.203 614.343 571.551 613.777ZM583.298 603.454C588.977 606.702 595.725 607.583 602.059 605.903C608.394 604.223 613.796 600.119 617.08 594.493C617.428 593.934 617.66 593.311 617.761 592.662C617.862 592.012 617.83 591.349 617.668 590.712C617.506 590.074 617.216 589.476 616.817 588.951C616.417 588.427 615.915 587.988 615.341 587.659C614.767 587.33 614.132 587.119 613.474 587.038C612.816 586.956 612.149 587.007 611.511 587.186C610.873 587.365 610.278 587.669 609.76 588.08C609.243 588.491 608.814 589.001 608.499 589.579C607.525 591.254 606.226 592.722 604.678 593.898C603.131 595.074 601.364 595.937 599.48 596.435C597.595 596.934 595.63 597.059 593.697 596.804C591.763 596.549 589.9 595.918 588.213 594.948C587.083 594.408 585.79 594.312 584.592 594.68C583.394 595.048 582.382 595.853 581.759 596.931C581.135 598.01 580.947 599.282 581.233 600.493C581.519 601.703 582.256 602.761 583.298 603.454ZM563.469 637.479C578.261 645.922 595.827 648.202 612.313 643.821C628.799 639.439 642.858 628.753 651.405 614.107C652.018 612.982 652.164 611.664 651.812 610.434C651.461 609.204 650.64 608.158 649.523 607.518C648.406 606.878 647.081 606.696 645.83 607.009C644.579 607.321 643.501 608.105 642.824 609.194C635.592 621.584 623.698 630.625 609.751 634.333C595.804 638.041 580.942 636.113 568.426 628.973C567.866 628.647 567.247 628.435 566.604 628.348C565.96 628.261 565.306 628.301 564.679 628.466C564.052 628.632 563.463 628.918 562.948 629.31C562.433 629.702 562.001 630.19 561.678 630.748C561.349 631.307 561.134 631.924 561.046 632.565C560.957 633.205 560.998 633.857 561.164 634.482C561.33 635.108 561.62 635.694 562.015 636.208C562.411 636.723 562.905 637.155 563.469 637.479Z" fill="white"/>
<path d="M289.136 269.682C288.507 269.854 287.85 269.899 287.204 269.813C286.558 269.728 285.934 269.514 285.37 269.185C284.806 268.855 284.312 268.416 283.917 267.893C283.522 267.37 283.234 266.773 283.069 266.137C280.666 257.15 274.828 249.49 266.835 244.838C258.841 240.186 249.345 238.92 240.428 241.32C239.152 241.667 237.791 241.488 236.645 240.823C235.5 240.158 234.663 239.062 234.319 237.774C233.975 236.487 234.152 235.115 234.811 233.959C235.47 232.804 236.557 231.959 237.834 231.612C249.303 228.531 261.516 230.164 271.793 236.154C282.07 242.144 289.571 252.001 292.651 263.562C292.822 264.197 292.866 264.86 292.781 265.512C292.696 266.163 292.485 266.792 292.158 267.361C291.831 267.93 291.396 268.428 290.877 268.826C290.359 269.225 289.767 269.516 289.136 269.682ZM273.444 268.754C271.689 262.356 267.513 256.909 261.815 253.586C256.118 250.262 249.354 249.328 242.981 250.985C241.704 251.332 240.617 252.176 239.958 253.332C239.299 254.487 239.122 255.86 239.466 257.147C239.81 258.434 240.647 259.531 241.792 260.196C242.938 260.861 244.299 261.039 245.575 260.692C249.393 259.659 253.46 260.194 256.888 262.179C260.315 264.165 262.823 267.44 263.861 271.286C264.029 271.921 264.319 272.516 264.715 273.037C265.11 273.559 265.604 273.997 266.167 274.326C266.731 274.656 267.353 274.87 267.999 274.956C268.644 275.043 269.3 275.001 269.929 274.831C270.558 274.662 271.148 274.37 271.666 273.971C272.183 273.572 272.617 273.074 272.943 272.506C273.27 271.938 273.482 271.31 273.568 270.659C273.654 270.008 273.612 269.346 273.444 268.712V268.754ZM311.9 258.371C307.447 241.666 296.607 227.423 281.757 218.767C266.908 210.112 249.261 207.749 232.687 212.198C232.055 212.369 231.463 212.665 230.944 213.068C230.425 213.47 229.99 213.972 229.664 214.544C229.337 215.117 229.126 215.748 229.042 216.403C228.957 217.057 229.001 217.722 229.172 218.36C229.342 218.997 229.635 219.594 230.034 220.118C230.434 220.641 230.931 221.079 231.498 221.408C232.066 221.738 232.692 221.951 233.341 222.036C233.99 222.121 234.649 222.077 235.281 221.905C249.286 218.151 264.195 220.147 276.744 227.456C289.292 234.766 298.458 246.793 302.234 260.903C302.593 262.167 303.429 263.238 304.563 263.887C305.697 264.535 307.037 264.71 308.297 264.373C309.557 264.036 310.635 263.214 311.301 262.084C311.967 260.954 312.167 259.606 311.858 258.329L311.9 258.371Z" fill="white"/>
<path d="M198.455 225C197.8 224.989 197.176 224.721 196.717 224.254C196.257 223.788 196 223.159 196 222.504C196 219.135 196 215.807 196.416 212.479C196.469 211.832 196.773 211.231 197.262 210.803C197.752 210.376 198.389 210.157 199.038 210.191C199.36 210.212 199.676 210.297 199.966 210.44C200.256 210.584 200.514 210.783 200.727 211.026C200.94 211.27 201.102 211.553 201.205 211.859C201.308 212.166 201.349 212.49 201.327 212.812C201.327 216.057 200.994 219.301 200.952 222.587C200.931 223.235 200.658 223.848 200.192 224.299C199.726 224.749 199.103 225 198.455 225ZM200.245 200.374H199.912C199.263 200.291 198.673 199.957 198.269 199.444C197.864 198.93 197.677 198.279 197.748 197.629C198.164 194.301 198.663 190.973 199.204 187.729C199.316 187.079 199.681 186.499 200.219 186.117C200.757 185.735 201.425 185.582 202.076 185.69C202.395 185.741 202.7 185.854 202.975 186.025C203.249 186.195 203.486 186.419 203.673 186.683C203.859 186.946 203.991 187.245 204.059 187.56C204.128 187.876 204.133 188.202 204.073 188.519C203.532 191.764 203.074 194.967 202.658 198.211C202.596 198.807 202.315 199.358 201.869 199.758C201.423 200.158 200.844 200.378 200.245 200.374ZM204.406 175.998H203.823C203.191 175.831 202.647 175.426 202.306 174.868C201.965 174.31 201.853 173.642 201.993 173.003C202.742 169.759 203.615 166.514 204.489 163.311C204.715 162.736 205.146 162.265 205.699 161.99C206.252 161.714 206.888 161.653 207.483 161.818C208.078 161.984 208.591 162.364 208.922 162.886C209.253 163.408 209.379 164.033 209.275 164.642C208.36 167.804 207.569 170.965 206.82 174.126C206.696 174.638 206.41 175.096 206.005 175.433C205.601 175.771 205.099 175.969 204.573 175.998H204.406ZM211.356 152.288C211.08 152.331 210.799 152.331 210.524 152.288C210.216 152.181 209.933 152.014 209.69 151.796C209.448 151.578 209.251 151.315 209.112 151.021C208.973 150.727 208.893 150.407 208.878 150.082C208.863 149.757 208.913 149.432 209.025 149.126C210.107 146.007 211.273 142.845 212.521 139.767C212.805 139.217 213.284 138.793 213.864 138.576C214.444 138.359 215.084 138.365 215.659 138.593C216.235 138.821 216.705 139.255 216.979 139.81C217.252 140.365 217.31 141.002 217.14 141.597C215.892 144.634 214.768 147.712 213.686 150.79C213.497 151.214 213.195 151.577 212.814 151.841C212.432 152.105 211.985 152.26 211.522 152.288H211.356ZM220.761 129.409C220.399 129.406 220.043 129.321 219.72 129.16C219.427 129.022 219.164 128.827 218.946 128.586C218.729 128.346 218.561 128.065 218.453 127.759C218.344 127.454 218.298 127.13 218.315 126.806C218.333 126.483 218.414 126.166 218.555 125.874C219.97 122.879 221.468 119.884 223.05 116.972C223.199 116.684 223.403 116.428 223.652 116.22C223.9 116.012 224.188 115.855 224.497 115.758C224.807 115.661 225.133 115.627 225.455 115.657C225.778 115.687 226.092 115.78 226.379 115.932C226.667 116.081 226.922 116.285 227.131 116.534C227.339 116.782 227.496 117.07 227.593 117.379C227.69 117.688 227.724 118.014 227.694 118.337C227.664 118.659 227.571 118.973 227.419 119.26C225.879 122.13 224.423 125.042 223.008 127.995C222.813 128.384 222.517 128.713 222.151 128.947C221.784 129.181 221.362 129.312 220.927 129.326L220.761 129.409ZM232.621 107.737C232.164 107.742 231.715 107.611 231.331 107.363C231.053 107.193 230.811 106.969 230.62 106.705C230.43 106.44 230.294 106.141 230.22 105.823C230.146 105.505 230.137 105.176 230.192 104.855C230.247 104.534 230.365 104.227 230.54 103.952C232.288 101.123 234.077 98.2945 235.992 95.6322C236.171 95.3631 236.403 95.1328 236.673 94.955C236.944 94.7772 237.247 94.6556 237.566 94.5974C237.884 94.5392 238.211 94.5456 238.527 94.6162C238.842 94.6868 239.141 94.8201 239.404 95.0083C239.672 95.1883 239.902 95.4194 240.081 95.6884C240.259 95.9573 240.383 96.2589 240.445 96.5757C240.507 96.8926 240.506 97.2185 240.441 97.5348C240.377 97.8512 240.251 98.1518 240.07 98.4193C238.239 101.123 236.45 103.869 234.743 106.739C234.515 107.043 234.22 107.291 233.881 107.464C233.542 107.637 233.168 107.731 232.787 107.737H232.621ZM246.77 87.4376C246.217 87.4377 245.678 87.263 245.23 86.9384C244.713 86.529 244.379 85.9318 244.301 85.2771C244.223 84.6224 244.408 83.9635 244.814 83.4443C246.853 80.8236 248.976 78.2446 251.14 75.7072C251.58 75.2419 252.183 74.9638 252.823 74.9304C253.463 74.8971 254.091 75.111 254.578 75.5279C255.064 75.9448 255.372 76.5328 255.437 77.1701C255.502 77.8075 255.319 78.4454 254.926 78.9517C252.804 81.406 250.765 83.9435 248.726 86.5225C248.502 86.7852 248.229 87.0012 247.922 87.1582C247.615 87.3153 247.28 87.4102 246.936 87.4376H246.77ZM263.041 68.8436C262.723 68.8533 262.406 68.7952 262.112 68.6733C261.818 68.5514 261.553 68.3684 261.335 68.1364C261.104 67.9081 260.92 67.6361 260.794 67.3362C260.669 67.0363 260.604 66.7144 260.604 66.3893C260.604 66.0642 260.669 65.7424 260.794 65.4425C260.92 65.1426 261.104 64.8706 261.335 64.6422C263.665 62.2712 266.038 59.9417 268.493 57.6955C268.721 57.4641 268.993 57.2803 269.293 57.1549C269.594 57.0295 269.915 56.9649 270.241 56.9649C270.566 56.9649 270.888 57.0295 271.188 57.1549C271.488 57.2803 271.76 57.4641 271.988 57.6955C272.446 58.162 272.702 58.7893 272.702 59.4426C272.702 60.0959 272.446 60.7231 271.988 61.1897C269.602 63.4359 267.272 65.7238 264.997 68.0533C264.769 68.3005 264.492 68.4983 264.185 68.6343C263.877 68.7702 263.544 68.8415 263.208 68.8436H263.041ZM281.31 52.2047C280.802 52.2051 280.305 52.0477 279.89 51.7542C279.475 51.4607 279.161 51.0455 278.992 50.5661C278.823 50.0866 278.807 49.5665 278.947 49.0776C279.086 48.5888 279.374 48.1553 279.77 47.8369C282.35 45.7155 284.972 43.6772 287.677 41.7221C287.937 41.5309 288.232 41.3927 288.545 41.3154C288.858 41.2381 289.183 41.2231 289.502 41.2713C289.821 41.3196 290.127 41.4302 290.403 41.5968C290.679 41.7633 290.919 41.9826 291.111 42.2421C291.302 42.5016 291.44 42.7962 291.517 43.1091C291.595 43.422 291.61 43.747 291.561 44.0657C291.513 44.3843 291.403 44.6904 291.236 44.9663C291.069 45.2423 290.85 45.4827 290.59 45.6739C287.969 47.6289 285.43 49.8336 282.891 51.6639C282.487 51.9863 281.993 52.1752 281.477 52.2047H281.31ZM544.482 44.9251C544.013 44.9238 543.552 44.7943 543.151 44.5507C540.737 43.0116 537.949 41.2645 534.828 39.4343C534.545 39.2745 534.296 39.0602 534.097 38.8039C533.897 38.5475 533.751 38.2541 533.666 37.9407C533.581 37.6273 533.558 37.3001 533.601 36.9781C533.643 36.6561 533.749 36.3457 533.912 36.0649C534.25 35.498 534.798 35.0878 535.438 34.9241C536.077 34.7604 536.756 34.8565 537.324 35.1913C540.529 37.0632 543.4 38.8103 545.855 40.391C546.13 40.5644 546.368 40.7906 546.555 41.0566C546.741 41.3225 546.873 41.6228 546.943 41.9401C547.013 42.2574 547.019 42.5853 546.96 42.9049C546.902 43.2246 546.781 43.5295 546.605 43.802C546.397 44.1368 546.11 44.4147 545.769 44.6108C545.427 44.8069 545.042 44.9149 544.649 44.9251H544.482ZM301.535 37.812C301.117 37.8146 300.706 37.7086 300.341 37.5044C299.976 37.3003 299.671 37.0049 299.454 36.6472C299.277 36.3747 299.156 36.0698 299.098 35.7502C299.04 35.4306 299.046 35.1026 299.116 34.7853C299.186 34.4681 299.318 34.1677 299.504 33.9018C299.691 33.6359 299.929 33.4097 300.203 33.2362C302.992 31.4475 305.863 29.7421 308.526 28.0782C308.798 27.8433 309.119 27.671 309.465 27.5735C309.811 27.4759 310.174 27.4556 310.529 27.5138C310.884 27.572 311.221 27.7074 311.518 27.9104C311.815 28.1134 312.063 28.379 312.246 28.6885C312.429 28.998 312.541 29.3438 312.575 29.7016C312.61 30.0593 312.565 30.4202 312.444 30.7588C312.324 31.0973 312.13 31.4053 311.877 31.6608C311.625 31.9164 311.319 32.1135 310.981 32.2379C308.152 33.8602 305.363 35.5241 302.658 37.2712C302.341 37.5519 301.952 37.7391 301.535 37.812ZM523.342 32.6955C522.95 32.688 522.565 32.5882 522.218 32.4043C519.43 30.99 516.475 29.5341 513.396 28.2446C513.057 28.138 512.746 27.9605 512.481 27.7239C512.217 27.4873 512.006 27.1972 511.862 26.8727C511.719 26.5482 511.646 26.1969 511.649 25.8421C511.652 25.4874 511.731 25.1374 511.88 24.8155C512.029 24.4936 512.245 24.2072 512.514 23.9753C512.783 23.7434 513.098 23.5714 513.438 23.4708C513.778 23.3702 514.136 23.3432 514.488 23.3917C514.839 23.4402 515.176 23.563 515.477 23.752C518.598 25.208 521.594 26.6639 524.424 27.9118C524.715 28.0572 524.975 28.2592 525.188 28.506C525.4 28.7528 525.562 29.0394 525.662 29.3491C525.763 29.6588 525.801 29.9855 525.774 30.3101C525.747 30.6347 525.656 30.9506 525.506 31.2396C525.323 31.664 525.021 32.0268 524.637 32.2849C524.254 32.543 523.804 32.6855 523.342 32.6955ZM323.258 25.7071C322.686 25.7298 322.124 25.5521 321.67 25.2049C321.215 24.8576 320.896 24.3625 320.768 23.8051C320.64 23.2477 320.71 22.6631 320.967 22.1522C321.224 21.6412 321.652 21.2361 322.176 21.0067C325.13 19.5508 328.169 18.1781 331.248 16.8469C331.546 16.7186 331.866 16.6501 332.19 16.6454C332.515 16.6407 332.837 16.7 333.138 16.8197C333.439 16.9394 333.714 17.1174 333.947 17.3433C334.18 17.5692 334.365 17.8387 334.494 18.1364C334.622 18.4342 334.691 18.7542 334.696 19.0784C334.7 19.4026 334.641 19.7245 334.521 20.0258C334.401 20.3271 334.223 20.6018 333.997 20.8343C333.771 21.0669 333.502 21.2527 333.204 21.381C330.208 22.6705 327.253 24.0433 324.298 25.5408C323.917 25.7003 323.501 25.7576 323.091 25.7071H323.258ZM500.787 22.4625C500.471 22.4527 500.16 22.3821 499.871 22.2545C496.916 21.0898 493.878 19.9251 490.716 18.802C490.098 18.5813 489.593 18.1243 489.312 17.5314C489.031 16.9385 488.997 16.2584 489.218 15.6406C489.438 15.0228 489.896 14.5179 490.489 14.2371C491.082 13.9562 491.762 13.9224 492.38 14.1431C495.585 15.3078 498.706 16.4725 501.702 17.6789C502.222 17.9048 502.65 18.301 502.915 18.8023C503.18 19.3036 503.266 19.8801 503.16 20.4369C503.053 20.9938 502.76 21.4977 502.329 21.8659C501.897 22.2341 501.354 22.4445 500.787 22.4625ZM346.063 16.2229C345.474 16.2377 344.9 16.0405 344.444 15.6674C343.989 15.2942 343.683 14.7699 343.582 14.19C343.481 13.6101 343.592 13.0133 343.895 12.5083C344.197 12.0034 344.671 11.624 345.231 11.4393C348.435 10.3161 351.598 9.31778 354.76 8.36104C355.072 8.26818 355.399 8.23755 355.722 8.27091C356.045 8.30427 356.359 8.40095 356.645 8.55546C356.931 8.70997 357.184 8.91927 357.389 9.1714C357.594 9.42353 357.747 9.7136 357.84 10.025C357.933 10.3363 357.963 10.6629 357.93 10.9861C357.897 11.3093 357.8 11.6228 357.645 11.9086C357.491 12.1945 357.281 12.4471 357.029 12.652C356.777 12.857 356.487 13.0103 356.175 13.1031C353.096 14.0183 349.975 15.0166 346.854 16.0982C346.545 16.1986 346.22 16.2409 345.896 16.2229H346.063ZM477.441 14.3511C477.207 14.3941 476.967 14.3941 476.733 14.3511C473.654 13.4359 470.491 12.5624 467.287 11.7721C466.973 11.6928 466.677 11.5525 466.417 11.3592C466.157 11.1658 465.938 10.9231 465.771 10.645C465.605 10.3669 465.495 10.0588 465.448 9.73827C465.401 9.41777 465.418 9.09114 465.497 8.77704C465.576 8.46294 465.717 8.16748 465.91 7.9076C466.104 7.64771 466.347 7.42849 466.625 7.2624C466.903 7.0963 467.211 6.9866 467.532 6.93958C467.853 6.89255 468.179 6.90911 468.494 6.98832C471.74 7.82027 474.985 8.69383 478.107 9.60898C478.685 9.76328 479.187 10.1235 479.519 10.622C479.85 11.1205 479.988 11.7227 479.906 12.3156C479.824 12.9084 479.528 13.451 479.074 13.8411C478.62 14.2313 478.039 14.4423 477.441 14.4343V14.3511ZM369.825 9.52576C369.163 9.58644 368.503 9.3817 367.992 8.95654C367.481 8.53139 367.16 7.92065 367.099 7.25872C367.038 6.59678 367.243 5.93787 367.669 5.4269C368.094 4.91593 368.705 4.59477 369.367 4.5341C372.655 3.78534 375.942 3.16135 379.188 2.62059C379.508 2.56718 379.835 2.57765 380.151 2.65137C380.467 2.7251 380.765 2.86066 381.028 3.05017C381.291 3.23968 381.514 3.47942 381.684 3.75554C381.854 4.03166 381.967 4.33868 382.018 4.65888C382.077 4.97924 382.071 5.3083 382 5.6262C381.929 5.9441 381.793 6.24427 381.603 6.5086C381.412 6.77292 381.17 6.9959 380.891 7.16414C380.612 7.33239 380.302 7.44242 379.979 7.48753C376.816 8.0283 373.612 8.65225 370.407 9.3594L369.825 9.52576ZM453.387 8.61062H452.597C449.434 8.02825 446.188 7.48753 442.942 7.02996C442.296 6.9417 441.712 6.60064 441.318 6.08187C440.924 5.5631 440.752 4.90909 440.84 4.2637C440.929 3.61831 441.27 3.03441 441.789 2.64046C442.308 2.24651 442.962 2.07476 443.608 2.16302C446.937 2.62059 450.266 3.16137 453.471 3.74374C453.793 3.77105 454.107 3.86156 454.394 4.01013C454.682 4.1587 454.937 4.36242 455.146 4.60963C455.354 4.85684 455.512 5.14274 455.611 5.45096C455.709 5.75917 455.745 6.08367 455.718 6.40596C455.69 6.72826 455.6 7.04205 455.451 7.32936C455.303 7.61667 455.099 7.87191 454.851 8.08049C454.604 8.28908 454.318 8.44688 454.01 8.54499C453.702 8.64309 453.377 8.67957 453.054 8.65226L453.387 8.61062ZM394.253 5.74039C393.601 5.76797 392.966 5.53589 392.486 5.09513C392.006 4.65437 391.721 4.0411 391.693 3.39019C391.666 2.73929 391.898 2.10409 392.339 1.62432C392.78 1.14456 393.393 0.859515 394.045 0.831934C397.415 0.499155 400.745 0.291176 404.032 0.124787C404.688 0.102136 405.326 0.33814 405.808 0.781791C406.291 1.22544 406.58 1.84109 406.612 2.4958C406.629 2.82155 406.581 3.14739 406.47 3.45424C406.359 3.76109 406.189 4.04281 405.968 4.28293C405.747 4.52306 405.481 4.71676 405.184 4.85273C404.887 4.9887 404.566 5.06425 404.24 5.07488C401.036 5.07488 397.79 5.44921 394.502 5.74039H394.253ZM428.876 5.44924C425.464 5.19966 422.218 5.03329 418.93 4.95009C418.329 4.87199 417.777 4.57768 417.376 4.12222C416.976 3.66676 416.755 3.08129 416.755 2.47505C416.755 1.8688 416.976 1.28327 417.376 0.827808C417.777 0.37235 418.329 0.0781029 418.93 0C422.384 0 425.714 0.249564 429.001 0.499148C429.603 0.577251 430.155 0.871498 430.555 1.32696C430.956 1.78241 431.176 2.36795 431.176 2.97419C431.176 3.58044 430.956 4.16598 430.555 4.62143C430.155 5.07689 429.603 5.37114 429.001 5.44924H428.876Z" fill="white"/>
<path d="M521.438 794H519.732C519.406 794 519.083 793.935 518.783 793.809C518.482 793.682 518.209 793.497 517.981 793.264C517.752 793.031 517.572 792.755 517.451 792.451C517.33 792.148 517.271 791.823 517.276 791.497C517.297 790.843 517.569 790.223 518.034 789.765C518.499 789.307 519.122 789.045 519.774 789.035H521.438C524.213 789.035 526.988 789.035 529.763 789.035C530.09 789.012 530.419 789.057 530.728 789.165C531.038 789.274 531.322 789.445 531.564 789.668C531.805 789.89 531.999 790.16 532.133 790.46C532.267 790.76 532.339 791.084 532.344 791.413C532.355 792.074 532.11 792.714 531.659 793.197C531.209 793.679 530.588 793.968 529.93 794C527.016 793.958 524.227 794 521.438 794ZM504.789 793.458C501.293 793.207 497.963 792.915 494.633 792.54C494.31 792.508 493.996 792.413 493.71 792.26C493.424 792.106 493.171 791.897 492.966 791.645C492.761 791.393 492.607 791.102 492.515 790.79C492.423 790.478 492.393 790.151 492.427 789.828C492.511 789.174 492.844 788.579 493.356 788.167C493.868 787.754 494.52 787.557 495.174 787.616L504.956 788.492C505.557 788.571 506.11 788.866 506.51 789.323C506.911 789.78 507.132 790.367 507.132 790.975C507.132 791.583 506.911 792.17 506.51 792.627C506.11 793.084 505.557 793.379 504.956 793.458H504.789ZM544.29 792.874C543.675 792.866 543.085 792.633 542.632 792.217C542.179 791.801 541.895 791.233 541.834 790.62C541.799 790.297 541.829 789.97 541.921 789.658C542.014 789.346 542.167 789.055 542.372 788.803C542.577 788.551 542.83 788.342 543.117 788.188C543.403 788.035 543.717 787.94 544.04 787.908C547.286 787.575 550.533 787.199 553.738 786.698C554.382 786.614 555.033 786.785 555.554 787.174C556.075 787.564 556.424 788.141 556.527 788.785C556.58 789.108 556.568 789.439 556.491 789.758C556.415 790.078 556.276 790.378 556.082 790.642C555.888 790.907 555.643 791.129 555.362 791.298C555.081 791.466 554.77 791.576 554.445 791.622C551.199 792.081 547.869 792.498 544.539 792.832L544.29 792.874ZM480.19 790.537H479.774C476.528 789.995 473.281 789.41 469.993 788.743C469.642 788.714 469.302 788.612 468.993 788.442C468.685 788.272 468.416 788.039 468.204 787.758C467.992 787.477 467.841 787.154 467.762 786.811C467.683 786.467 467.677 786.111 467.745 785.765C467.813 785.419 467.953 785.091 468.156 784.803C468.359 784.515 468.62 784.274 468.923 784.094C469.225 783.914 469.562 783.801 469.912 783.761C470.261 783.72 470.615 783.755 470.95 783.861C474.197 784.529 477.401 785.113 480.606 785.655C481.258 785.711 481.861 786.023 482.282 786.524C482.704 787.025 482.909 787.673 482.854 788.326C482.799 788.979 482.487 789.583 481.988 790.005C481.488 790.428 480.842 790.634 480.19 790.579V790.537ZM568.68 788.993C568.082 788.971 567.511 788.734 567.072 788.325C566.633 787.916 566.355 787.363 566.29 786.766C566.224 786.169 566.375 785.568 566.715 785.073C567.054 784.578 567.56 784.222 568.139 784.07C571.344 783.36 574.507 782.609 577.629 781.775C577.944 781.687 578.272 781.662 578.596 781.703C578.92 781.744 579.233 781.849 579.515 782.012C579.798 782.175 580.046 782.393 580.244 782.653C580.442 782.914 580.586 783.211 580.668 783.527C580.755 783.84 580.779 784.167 580.738 784.488C580.697 784.81 580.592 785.12 580.429 785.401C580.266 785.681 580.048 785.926 579.789 786.12C579.53 786.314 579.234 786.454 578.919 786.531C575.715 787.408 572.468 788.2 569.222 788.91L568.68 788.993ZM456.007 785.405H455.383C452.22 784.57 449.015 783.694 445.768 782.735C445.456 782.642 445.166 782.488 444.914 782.282C444.662 782.077 444.452 781.823 444.298 781.536C444.143 781.25 444.046 780.935 444.013 780.611C443.98 780.287 444.01 779.959 444.103 779.647C444.196 779.335 444.349 779.044 444.554 778.791C444.76 778.538 445.013 778.328 445.299 778.173C445.585 778.018 445.898 777.921 446.222 777.888C446.545 777.854 446.872 777.885 447.183 777.978C450.347 778.938 453.51 779.772 456.632 780.607C456.947 780.685 457.244 780.824 457.504 781.018C457.765 781.212 457.985 781.455 458.152 781.734C458.318 782.014 458.428 782.323 458.474 782.646C458.52 782.968 458.503 783.296 458.422 783.611C458.277 784.105 457.983 784.543 457.581 784.864C457.179 785.185 456.687 785.374 456.174 785.405H456.007ZM592.489 782.276C591.969 782.279 591.461 782.121 591.036 781.821C590.611 781.522 590.289 781.098 590.116 780.607C590.011 780.3 589.968 779.975 589.989 779.652C590.01 779.328 590.094 779.012 590.237 778.721C590.381 778.431 590.58 778.171 590.823 777.957C591.067 777.744 591.35 777.581 591.656 777.477C594.736 776.393 597.816 775.266 600.813 774.056C601.114 773.936 601.435 773.875 601.759 773.879C602.083 773.883 602.403 773.951 602.7 774.079C602.998 774.207 603.267 774.392 603.494 774.625C603.72 774.857 603.898 775.132 604.018 775.433C604.138 775.734 604.198 776.056 604.194 776.381C604.19 776.706 604.123 777.026 603.995 777.325C603.868 777.623 603.683 777.893 603.451 778.12C603.219 778.346 602.945 778.525 602.645 778.646C599.564 779.897 596.443 781.066 593.279 782.15C593.077 782.217 592.868 782.259 592.655 782.276H592.489ZM615.298 772.804C614.838 772.81 614.385 772.683 613.994 772.439C613.603 772.195 613.29 771.844 613.092 771.427C612.803 770.835 612.759 770.152 612.969 769.527C613.179 768.902 613.628 768.385 614.216 768.09C617.171 766.671 620.043 765.169 622.915 763.583C623.487 763.339 624.129 763.316 624.717 763.521C625.304 763.726 625.794 764.143 626.091 764.691C626.387 765.239 626.469 765.878 626.321 766.484C626.172 767.089 625.804 767.617 625.287 767.964C622.374 769.55 619.377 771.094 616.38 772.554C616.094 772.697 615.783 772.783 615.464 772.804H615.298ZM636.817 760.663C636.285 760.653 635.769 760.472 635.347 760.147C634.924 759.823 634.616 759.372 634.467 758.859C634.318 758.346 634.337 757.8 634.52 757.299C634.703 756.797 635.041 756.368 635.485 756.073C638.26 754.321 640.965 752.485 643.602 750.566C644.154 750.184 644.834 750.038 645.494 750.159C646.153 750.28 646.738 750.659 647.119 751.212C647.499 751.766 647.646 752.448 647.525 753.109C647.404 753.77 647.026 754.356 646.474 754.738C643.768 756.657 640.979 758.577 638.149 760.371C637.793 760.568 637.391 760.669 636.983 760.663H636.817ZM656.796 745.976C656.284 745.985 655.781 745.834 655.359 745.543C654.937 745.252 654.617 744.835 654.442 744.353C654.268 743.87 654.249 743.344 654.387 742.85C654.525 742.355 654.815 741.917 655.214 741.595C657.753 739.509 660.209 737.423 662.623 735.17C662.864 734.95 663.145 734.781 663.451 734.671C663.757 734.56 664.081 734.512 664.406 734.527C664.731 734.543 665.049 734.622 665.343 734.761C665.637 734.9 665.901 735.095 666.119 735.336C666.338 735.578 666.507 735.859 666.617 736.166C666.727 736.473 666.776 736.798 666.76 737.123C666.745 737.449 666.666 737.768 666.527 738.063C666.389 738.358 666.194 738.622 665.953 738.841C663.497 741.094 660.958 743.306 658.378 745.434C658.01 745.738 657.561 745.927 657.087 745.976H656.796ZM674.902 729.286C674.265 729.269 673.657 729.017 673.195 728.577C672.747 728.104 672.498 727.477 672.498 726.825C672.498 726.173 672.747 725.545 673.195 725.073C675.485 722.694 677.691 720.316 679.814 717.854C680.025 717.605 680.284 717.401 680.575 717.253C680.866 717.105 681.184 717.017 681.509 716.994C681.835 716.97 682.162 717.012 682.471 717.117C682.78 717.222 683.065 717.387 683.31 717.604C683.802 718.038 684.104 718.649 684.151 719.305C684.198 719.961 683.985 720.609 683.559 721.109C681.353 723.612 679.106 726.074 676.775 728.494C676.307 728.914 675.696 729.137 675.068 729.12L674.902 729.286ZM690.968 710.427C690.429 710.422 689.905 710.247 689.47 709.927C688.947 709.522 688.604 708.926 688.519 708.269C688.433 707.612 688.61 706.948 689.012 706.422C690.968 703.835 692.883 701.165 694.756 698.495C695.134 697.956 695.708 697.588 696.355 697.47C697.002 697.353 697.669 697.496 698.211 697.869C698.748 698.247 699.115 698.823 699.232 699.472C699.349 700.12 699.207 700.788 698.835 701.332C696.921 704.085 694.964 706.756 692.966 709.426C692.735 709.685 692.453 709.893 692.138 710.036C691.823 710.18 691.481 710.256 691.135 710.261L690.968 710.427ZM704.829 689.899C704.385 689.898 703.951 689.768 703.58 689.524C703.296 689.364 703.048 689.149 702.849 688.891C702.651 688.632 702.506 688.336 702.425 688.021C702.343 687.705 702.326 687.376 702.374 687.054C702.422 686.731 702.535 686.422 702.706 686.144C704.371 683.363 705.994 680.581 707.576 677.799C707.951 677.397 708.45 677.131 708.993 677.046C709.536 676.961 710.092 677.062 710.571 677.331C711.051 677.6 711.427 678.023 711.638 678.531C711.85 679.04 711.885 679.605 711.738 680.136C710.156 683.098 708.492 685.977 706.785 688.856C706.564 689.12 706.291 689.334 705.983 689.484C705.674 689.635 705.338 689.72 704.995 689.733L704.829 689.899ZM716.358 667.995C715.997 667.992 715.641 667.906 715.318 667.744C715.021 667.609 714.753 667.417 714.531 667.177C714.309 666.938 714.137 666.656 714.025 666.35C713.912 666.043 713.862 665.717 713.877 665.39C713.892 665.064 713.971 664.743 714.111 664.448C715.484 661.486 716.775 658.482 718.023 655.477C718.142 655.175 718.32 654.9 718.546 654.667C718.772 654.434 719.042 654.248 719.339 654.12C719.637 653.992 719.958 653.924 720.282 653.921C720.606 653.917 720.928 653.979 721.228 654.1C721.84 654.35 722.328 654.833 722.586 655.443C722.843 656.053 722.849 656.741 722.602 657.355C721.311 660.442 720.021 663.488 718.439 666.534C718.25 666.891 717.977 667.195 717.643 667.421C717.309 667.646 716.925 667.786 716.525 667.828L716.358 667.995ZM725.474 644.963C725.213 645.022 724.943 645.022 724.683 644.963C724.373 644.864 724.086 644.704 723.84 644.492C723.593 644.279 723.392 644.019 723.248 643.727C723.104 643.435 723.021 643.117 723.003 642.791C722.985 642.466 723.032 642.14 723.143 641.834C724.142 638.746 725.141 635.617 726.015 632.488C726.234 631.897 726.668 631.411 727.23 631.127C727.791 630.843 728.439 630.782 729.044 630.956C729.648 631.13 730.165 631.526 730.491 632.065C730.817 632.604 730.928 633.247 730.802 633.864C729.844 637.077 728.887 640.248 727.805 643.419C727.605 643.826 727.298 644.17 726.916 644.413C726.534 644.656 726.092 644.789 725.64 644.796L725.474 644.963ZM732.05 621.055H731.509C730.872 620.906 730.319 620.512 729.968 619.958C729.618 619.404 729.499 618.734 729.636 618.093C730.302 614.922 730.968 611.709 731.509 608.455C731.625 607.807 731.993 607.233 732.531 606.857C733.07 606.482 733.735 606.336 734.381 606.452C735.027 606.568 735.6 606.937 735.975 607.477C736.349 608.017 736.495 608.684 736.379 609.331C735.796 612.627 735.172 615.882 734.464 619.136C734.312 619.623 734.016 620.052 733.614 620.365C733.212 620.678 732.725 620.861 732.217 620.888L732.05 621.055ZM736.212 596.605H735.963C735.314 596.532 734.721 596.207 734.308 595.7C733.896 595.193 733.698 594.544 733.757 593.893C734.131 590.639 734.381 587.384 734.589 584.13C734.652 583.473 734.963 582.866 735.458 582.432C735.954 581.997 736.596 581.769 737.253 581.793C737.576 581.815 737.891 581.899 738.181 582.043C738.471 582.187 738.73 582.387 738.942 582.631C739.155 582.875 739.318 583.159 739.421 583.466C739.523 583.774 739.565 584.099 739.542 584.422C739.542 587.76 739.043 591.098 738.668 594.394C738.55 594.964 738.235 595.474 737.778 595.833C737.32 596.192 736.751 596.377 736.171 596.355L736.212 596.605ZM737.544 571.863C737.218 571.869 736.894 571.809 736.592 571.688C736.289 571.567 736.013 571.386 735.781 571.157C735.548 570.928 735.364 570.655 735.238 570.353C735.112 570.052 735.047 569.728 735.047 569.401C735.047 566.147 735.047 562.892 734.797 559.596C734.875 558.993 735.17 558.439 735.626 558.038C736.081 557.637 736.667 557.415 737.274 557.415C737.88 557.415 738.466 557.637 738.922 558.038C739.378 558.439 739.672 558.993 739.75 559.596C739.917 562.934 740 566.272 740 569.61C739.909 570.203 739.605 570.742 739.145 571.127C738.685 571.511 738.101 571.713 737.503 571.696L737.544 571.863ZM736.087 547.163C735.48 547.157 734.895 546.929 734.443 546.522C733.991 546.115 733.703 545.556 733.632 544.951C733.257 541.697 732.799 538.484 732.3 535.23C732.248 534.909 732.26 534.581 732.334 534.265C732.408 533.949 732.544 533.651 732.734 533.388C732.923 533.124 733.162 532.901 733.438 532.73C733.713 532.559 734.02 532.445 734.339 532.392C734.659 532.34 734.986 532.352 735.301 532.426C735.616 532.501 735.914 532.637 736.177 532.827C736.44 533.017 736.663 533.257 736.833 533.533C737.003 533.809 737.118 534.116 737.17 534.437C737.711 537.733 738.169 541.071 738.543 544.367C738.614 545.019 738.427 545.672 738.022 546.187C737.618 546.702 737.027 547.037 736.379 547.121L736.087 547.163ZM731.925 522.713C731.367 522.709 730.825 522.519 730.388 522.171C729.95 521.823 729.642 521.338 729.511 520.793C728.804 517.622 727.971 514.451 727.097 511.322C726.917 510.686 726.995 510.004 727.315 509.425C727.635 508.847 728.17 508.419 728.803 508.234C729.118 508.146 729.446 508.122 729.77 508.162C730.094 508.203 730.407 508.308 730.69 508.471C730.973 508.635 731.22 508.853 731.418 509.113C731.616 509.373 731.76 509.67 731.842 509.987C732.758 513.199 733.59 516.454 734.339 519.667C734.49 520.308 734.382 520.984 734.04 521.546C733.697 522.108 733.146 522.513 732.508 522.671L731.925 522.713ZM724.974 498.93C724.467 498.928 723.972 498.772 723.556 498.481C723.139 498.19 722.821 497.779 722.643 497.303C721.561 494.215 720.396 491.169 719.147 488.124C718.913 487.514 718.925 486.837 719.182 486.237C719.439 485.637 719.919 485.161 720.521 484.911C720.821 484.789 721.143 484.728 721.467 484.731C721.791 484.735 722.111 484.802 722.409 484.93C722.707 485.058 722.977 485.244 723.203 485.477C723.429 485.71 723.606 485.986 723.726 486.288C725.016 489.375 726.181 492.505 727.305 495.634C727.417 495.94 727.467 496.266 727.452 496.593C727.437 496.919 727.358 497.239 727.218 497.534C727.079 497.829 726.882 498.093 726.64 498.312C726.398 498.53 726.114 498.697 725.807 498.805C725.501 498.844 725.191 498.83 724.891 498.763L724.974 498.93ZM715.359 475.94C714.899 475.946 714.447 475.819 714.056 475.575C713.665 475.331 713.352 474.98 713.153 474.563L711.697 471.601C711.545 471.314 711.451 470.999 711.421 470.675C711.392 470.351 711.426 470.025 711.523 469.715C711.619 469.404 711.777 469.116 711.985 468.867C712.194 468.618 712.449 468.413 712.737 468.263C713.323 467.97 714.001 467.92 714.623 468.123C715.246 468.326 715.765 468.766 716.067 469.348C716.608 470.349 717.107 471.351 717.607 472.394C717.883 472.982 717.921 473.655 717.711 474.27C717.501 474.885 717.061 475.394 716.483 475.69C716.13 475.852 715.747 475.937 715.359 475.94Z" fill="white"/>
<path d="M387 181C390.314 181 393 178.09 393 174.5C393 170.91 390.314 168 387 168C383.686 168 381 170.91 381 174.5C381 178.09 383.686 181 387 181Z" fill="white"/>
<g style="mix-blend-mode:multiply">
<path d="M344.545 132.858L329.579 117.442C329.281 117.158 328.889 117 328.483 117C328.077 117 327.685 117.158 327.387 117.442L312.462 132.858C312.316 133.005 312.199 133.181 312.12 133.375C312.041 133.568 312 133.777 312 133.987C312 134.197 312.041 134.405 312.12 134.599C312.199 134.793 312.316 134.969 312.462 135.116L327.387 150.532C327.687 150.831 328.087 150.998 328.504 151C328.704 151.001 328.903 150.959 329.088 150.879C329.272 150.798 329.439 150.68 329.579 150.532L344.545 135.116C344.69 134.972 344.804 134.8 344.882 134.61C344.961 134.419 345.001 134.215 345 134.008C344.998 133.579 344.835 133.167 344.545 132.858Z" fill="white"/>
</g>
<path d="M328.462 135C328.047 134.998 327.648 134.83 327.349 134.532L312.461 119.115C312.315 118.969 312.199 118.793 312.12 118.599C312.041 118.405 312 118.197 312 117.987C312 117.777 312.041 117.568 312.12 117.375C312.199 117.181 312.315 117.005 312.461 116.858L327.349 101.442C327.646 101.158 328.036 101 328.442 101C328.847 101 329.237 101.158 329.535 101.442L344.546 116.773C344.69 116.917 344.805 117.089 344.883 117.279C344.961 117.469 345.001 117.674 345 117.88C344.998 118.31 344.836 118.722 344.546 119.03L329.617 134.446C329.477 134.621 329.3 134.762 329.1 134.857C328.9 134.953 328.683 135.002 328.462 135ZM315.719 117.966L328.462 131.125L341.206 117.966L328.462 104.807L315.719 117.966Z" fill="white"/>
<path d="M575.553 573C570.473 572.975 565.488 571.624 561.09 569.081L381.492 465.344C374.836 461.466 369.983 455.112 367.992 447.668C366.001 440.224 367.033 432.294 370.864 425.609L594.308 38.4303C598.192 31.8011 604.531 26.9712 611.952 24.9885C619.373 23.0058 627.276 24.0304 633.946 27.8398L813.544 131.577C820.178 135.454 825.014 141.793 827.004 149.217C828.994 156.641 827.977 164.551 824.172 171.228L600.727 558.365C598.834 561.673 596.305 564.573 593.286 566.898C590.268 569.224 586.819 570.929 583.138 571.916C580.668 572.607 578.118 572.971 575.553 573ZM619.691 26.0886C614.955 26.0815 610.3 27.3224 606.196 29.6866C602.091 32.0508 598.681 35.4548 596.309 39.5561L372.864 426.734C369.311 432.931 368.355 440.283 370.207 447.183C372.058 454.082 376.565 459.967 382.743 463.551L562.132 567.371C565.195 569.148 568.579 570.302 572.089 570.767C575.599 571.231 579.166 570.998 582.586 570.08C586.005 569.162 589.21 567.577 592.016 565.416C594.822 563.256 597.173 560.562 598.935 557.49L822.38 170.353C824.156 167.289 825.309 163.904 825.774 160.392C826.239 156.881 826.005 153.312 825.088 149.891C824.17 146.47 822.585 143.264 820.426 140.458C818.266 137.651 815.573 135.299 812.502 133.536L632.904 29.7995C628.897 27.4346 624.343 26.1555 619.691 26.0886Z" fill="white"/>
<path d="M561.388 568.973C561.209 569.009 561.025 569.009 560.847 568.973L381.54 465.13C378.227 463.208 375.325 460.649 372.999 457.601C370.672 454.552 368.967 451.074 367.982 447.364C366.997 443.655 366.75 439.787 367.255 435.982C367.761 432.177 369.009 428.509 370.929 425.187L594.012 37.6137C594.072 37.4806 594.159 37.3617 594.267 37.2646C594.376 37.1674 594.504 37.0942 594.643 37.0497C594.781 37.0052 594.928 36.9903 595.072 37.0061C595.217 37.0219 595.357 37.0679 595.483 37.1413C595.609 37.2147 595.717 37.3138 595.803 37.4321C595.888 37.5504 595.948 37.6854 595.978 37.8283C596.008 37.9711 596.007 38.1187 595.977 38.2615C595.947 38.4043 595.887 38.539 595.801 38.6571L372.719 426.231C369.171 432.434 368.217 439.793 370.065 446.7C371.913 453.606 376.413 459.498 382.581 463.085L561.887 567.095C562.123 567.235 562.296 567.459 562.374 567.722C562.451 567.985 562.426 568.268 562.303 568.514C562.198 568.658 562.06 568.774 561.901 568.854C561.742 568.934 561.566 568.975 561.388 568.973Z" fill="white"/>
</g>
</svg>
