<svg width="100" height="100" viewBox="0 0 100 100" fill="none" xmlns="http://www.w3.org/2000/svg">
<g clip-path="url(#clip0)">
<path d="M50.0049 94.4014L69.8152 89.3986C81.1229 80.0092 88.3252 65.8467 88.3252 50.0004C88.3252 25.5582 71.1941 5.11738 48.2838 0.0292969C21.4643 0.933789 0 22.9604 0 50.0002C0 63.8893 5.66406 76.4545 14.807 85.515L50.0049 94.4014Z" fill="#2F80ED"/>
<path d="M87.288 50C87.288 66.3896 79.4011 80.9357 67.2167 90.0545L85.1915 85.5152C94.3351 76.4547 100 63.8895 100 50C100 22.3857 77.6144 0 50.0001 0C47.847 0 45.7255 0.136328 43.644 0.400391C68.2571 3.52305 87.288 24.5391 87.288 50Z" fill="#276DCB"/>
<path d="M62.426 18.9358C62.426 16.3821 60.3559 14.312 57.8021 14.312H41.8682C35.991 14.312 31.2266 19.0765 31.2266 24.9536V36.7687H68.7674V25.1212C68.7674 22.5675 66.6973 20.4974 64.1436 20.4974H63.9877C63.1252 20.4974 62.426 19.7983 62.426 18.9358Z" fill="#365E7D"/>
<path d="M64.1437 20.4976H63.9878C63.1253 20.4976 62.4261 19.7983 62.4261 18.9358C62.4261 16.3821 60.356 14.312 57.8022 14.312H56.0552V36.7687H68.7673V25.1212C68.7675 22.5679 66.6972 20.4976 64.1437 20.4976Z" fill="#2B4D66"/>
<path d="M83.0167 72.7258C81.7942 71.5184 80.2821 70.5846 78.5655 70.0412L64.9149 65.7193L50.0032 65.1953L35.0853 65.7193L21.4347 70.0412C16.8167 71.5033 13.6782 75.7889 13.6782 80.6328V84.3621C22.4261 93.6059 34.6647 99.5121 48.2843 99.9715C63.5437 96.5822 76.2392 86.3824 83.0167 72.7258Z" fill="#4A80AA"/>
<path d="M86.322 84.3617V80.6324C86.322 77.2074 84.7517 74.0631 82.1999 71.9971C74.9517 86.7678 60.6331 97.44 43.6558 99.598C45.705 99.8576 47.7921 99.9961 49.9108 99.9998C51.9466 99.9967 53.9554 99.8787 55.9312 99.6518C67.8513 98.2432 78.4868 92.6412 86.322 84.3617Z" fill="#407093"/>
<path d="M51.1323 99.2516C54.1575 93.2455 62.035 76.1916 59.7887 65.5389L50.0034 61.7305L40.2088 65.5391C37.8932 76.5205 46.3358 94.3041 49.1309 99.7754C49.8032 99.6141 50.4705 99.4393 51.1323 99.2516Z" fill="#E4F6FF"/>
<path d="M56.2886 94.4901L52.321 78.8813H47.679L43.7212 94.4476L48.6153 99.8962C49.8577 99.6116 51.0829 99.2817 52.2892 98.9085L56.2886 94.4901Z" fill="#E28086"/>
<path d="M48.6917 99.9813C49.097 99.9919 49.503 99.9991 49.9106 99.9999C50.3823 99.9991 50.8524 99.9909 51.3212 99.9778L53.8421 97.1929C51.8579 97.889 49.8167 98.4636 47.7271 98.9075L48.6917 99.9813Z" fill="#DD636E"/>
<path d="M58.3545 64.0983V55.2964H41.6396V64.0983C41.6396 68.714 49.9971 73.7558 49.9971 73.7558C49.9971 73.7558 58.3545 68.714 58.3545 64.0983Z" fill="#FFDDCE"/>
<path d="M68.7674 35.2185H65.5723C63.7953 35.2185 62.3549 33.7781 62.3549 32.0011V30.2404C62.3549 27.9257 60.0902 26.2892 57.8926 27.0156C52.767 28.7097 47.2326 28.7101 42.1068 27.0168L42.1008 27.0148C39.9031 26.2888 37.6389 27.9254 37.6389 30.2398V32.0013C37.6389 33.7783 36.1984 35.2187 34.4215 35.2187H31.2266V40.48C31.2266 41.8244 32.3164 42.9144 33.6609 42.9144C34.0852 42.9144 34.4303 43.2466 34.457 43.6701C34.9703 51.8084 41.7295 58.2509 49.9971 58.2509C58.2647 58.2509 65.0238 51.8084 65.5371 43.6701C65.5639 43.2468 65.909 42.9144 66.3332 42.9144C67.6775 42.9144 68.7676 41.8246 68.7676 40.48V35.2185H68.7674Z" fill="#FFDDCE"/>
<path d="M65.5722 35.2189C63.7952 35.2189 62.3548 33.7785 62.3548 32.0015V30.2408C62.3548 27.9261 60.0901 26.2896 57.8925 27.0159C57.2855 27.2165 56.6724 27.3915 56.0552 27.5447V44.922C55.9696 50.5759 52.8716 55.4966 48.2964 58.156C48.8552 58.2167 49.422 58.2509 49.9968 58.2509C58.2644 58.2509 65.0235 51.8083 65.5368 43.6701C65.5636 43.2468 65.9087 42.9144 66.3329 42.9144C67.6773 42.9144 68.7673 41.8245 68.7673 40.48V35.2187H65.5722V35.2189Z" fill="#FFCBBE"/>
<path d="M41.6397 61.7305L35.0854 67.0561L41.9589 75.5547C42.795 76.3687 44.111 76.4187 45.0067 75.6707L50.1757 71.3529L41.6397 61.7305Z" fill="#F4FBFF"/>
<path d="M58.3578 61.7305L50.1758 71.3529L55.034 75.5068C55.924 76.2678 57.2463 76.2295 58.0908 75.4184L64.915 67.0561L58.3578 61.7305Z" fill="#F4FBFF"/>
<path d="M41.6394 61.7305L32.0191 66.4568C31.2867 66.8166 30.9925 67.7076 31.3666 68.4328L33.2513 72.0871C33.7398 73.034 33.5595 74.1879 32.8056 74.9406C32.4175 75.3279 31.9972 75.7475 31.633 76.1111C30.981 76.7619 30.7468 77.7234 31.0339 78.5988C33.3095 85.5357 44.2615 96.1434 48.4062 99.9813C48.6849 99.9887 48.9642 99.9938 49.2441 99.9969C46.2384 94.1506 35.5875 71.9393 41.6394 61.7305Z" fill="#365E7D"/>
<path d="M67.1913 74.9404C66.4372 74.1877 66.2571 73.0338 66.7456 72.0869L68.6304 68.4326C69.0044 67.7074 68.7102 66.8164 67.9778 66.4566L58.3575 61.7305C64.4079 71.9365 53.7644 94.1385 50.7554 99.9922C51.0382 99.9873 51.3204 99.9803 51.602 99.9709C55.7554 96.1242 66.6895 85.5295 68.963 78.599C69.2501 77.7236 69.0159 76.7621 68.364 76.1113C67.9997 75.7475 67.5794 75.3277 67.1913 74.9404Z" fill="#365E7D"/>
<path d="M50.1753 71.353L45.0854 75.6038L47.6788 78.8813H52.3208L54.9144 75.4104L50.1753 71.353Z" fill="#DD636E"/>
</g>
<defs>
<clipPath id="clip0">
<rect width="100" height="100" fill="white"/>
</clipPath>
</defs>
</svg>
