<svg width="570" height="387" viewBox="0 0 570 387" fill="none" xmlns="http://www.w3.org/2000/svg">
<path d="M3.58118 174.151C20.7154 117.158 139.57 105.301 197.841 109.736C313.756 118.532 392.149 36.644 487.604 72.1897C583.059 107.735 636.052 254.858 414.055 347.976C282.452 403.186 -37.2903 309.948 3.58118 174.151Z" fill="#CBDBEC"/>
<path d="M343.543 29.7758C343.2 30.1204 342.793 30.3939 342.344 30.5806C341.895 30.7672 341.414 30.8633 340.928 30.8633C340.442 30.8633 339.961 30.7672 339.512 30.5806C339.063 30.3939 338.656 30.1204 338.313 29.7758C333.452 24.9254 326.865 22.2014 319.998 22.2014C313.131 22.2014 306.544 24.9254 301.683 29.7758C300.978 30.4145 300.055 30.7582 299.104 30.736C298.153 30.7137 297.247 30.3271 296.573 29.656C295.899 28.985 295.508 28.0807 295.481 27.1298C295.455 26.179 295.794 25.2542 296.43 24.5464C302.682 18.3083 311.154 14.805 319.986 14.805C328.818 14.805 337.29 18.3083 343.543 24.5464C343.887 24.889 344.161 25.2964 344.347 25.7451C344.534 26.1939 344.63 26.6751 344.63 27.1611C344.63 27.6471 344.534 28.1283 344.347 28.577C344.161 29.0257 343.887 29.4331 343.543 29.7758ZM333.084 35.0052C329.607 31.547 324.902 29.6057 319.998 29.6057C315.094 29.6057 310.39 31.547 306.913 35.0052C306.569 35.3486 306.297 35.7562 306.111 36.2049C305.925 36.6535 305.829 37.1343 305.829 37.6199C305.829 38.1055 305.925 38.5863 306.111 39.035C306.297 39.4836 306.569 39.8912 306.913 40.2346C307.256 40.578 307.664 40.8504 308.112 41.0362C308.561 41.2221 309.042 41.3177 309.527 41.3177C310.013 41.3177 310.494 41.2221 310.942 41.0362C311.391 40.8504 311.799 40.578 312.142 40.2346C314.232 38.1626 317.055 37 319.998 37C322.941 37 325.765 38.1626 327.854 40.2346C328.548 40.9281 329.488 41.3177 330.469 41.3177C331.45 41.3177 332.39 40.9281 333.084 40.2346C333.777 39.5411 334.167 38.6006 334.167 37.6199C334.167 36.6392 333.777 35.6987 333.084 35.0052ZM354.026 14.0634C344.991 5.05724 332.755 0 319.998 0C307.241 0 295.005 5.05724 285.971 14.0634C285.627 14.4068 285.355 14.8144 285.169 15.2631C284.983 15.7117 284.888 16.1925 284.888 16.6781C284.888 17.1637 284.983 17.6446 285.169 18.0932C285.355 18.5419 285.627 18.9495 285.971 19.2929C286.314 19.6363 286.722 19.9086 287.17 20.0944C287.619 20.2803 288.1 20.3759 288.585 20.3759C289.071 20.3759 289.552 20.2803 290.001 20.0944C290.449 19.9086 290.857 19.6363 291.2 19.2929C298.843 11.6744 309.195 7.39642 319.986 7.39642C330.778 7.39642 341.129 11.6744 348.772 19.2929C349.108 19.6675 349.517 19.9697 349.974 20.1812C350.431 20.3927 350.926 20.5091 351.429 20.5232C351.933 20.5373 352.434 20.4489 352.902 20.2633C353.37 20.0777 353.795 19.7988 354.152 19.4436C354.508 19.0885 354.789 18.6644 354.977 18.1973C355.165 17.7302 355.255 17.2298 355.244 16.7265C355.232 16.2232 355.118 15.7276 354.908 15.2698C354.699 14.8119 354.399 14.4015 354.026 14.0634Z" fill="#D8DEE7"/>
<path d="M188.563 16.4734C178.176 22.474 169.766 37.0297 169.79 48.9585C169.814 60.8874 178.297 65.683 188.683 59.6824C194.149 56.1382 198.697 51.348 201.952 45.705C205.207 40.0621 207.077 33.7274 207.408 27.2214C207.384 15.2926 198.95 10.4969 188.563 16.4734Z" fill="#CBDBEC"/>
<g style="mix-blend-mode:multiply">
<path d="M213.072 48.3322C211.11 49.6091 209.476 51.3307 208.303 53.3573C207.131 55.3838 206.453 57.6583 206.324 59.996C206.324 64.2855 209.385 66.0207 213.12 63.8759C215.083 62.5937 216.717 60.8676 217.889 58.8372C219.061 56.8068 219.739 54.529 219.868 52.188C219.795 47.802 216.759 46.1874 213.072 48.3322Z" fill="#CBDBEC"/>
</g>
<path d="M81.7339 94.577C81.4909 94.5761 81.2577 94.481 81.0833 94.3119L72.3836 85.5881C72.2984 85.5051 72.2306 85.4058 72.1844 85.2961C72.1381 85.1864 72.1143 85.0686 72.1143 84.9495C72.1143 84.8305 72.1381 84.7126 72.1844 84.6029C72.2306 84.4933 72.2984 84.394 72.3836 84.3109L81.0833 75.5872C81.261 75.4246 81.4931 75.3345 81.7339 75.3345C81.9748 75.3345 82.2069 75.4246 82.3846 75.5872L91.0843 84.3109C91.172 84.3892 91.2413 84.4861 91.2872 84.5944C91.333 84.7028 91.3543 84.8199 91.3493 84.9375C91.3545 85.0586 91.3335 85.1795 91.2878 85.2917C91.242 85.404 91.1726 85.5051 91.0843 85.5881L82.3846 94.3119C82.2102 94.481 81.9769 94.5761 81.7339 94.577ZM74.2874 84.9375L81.7339 92.384L89.1805 84.9375L81.7339 77.491L74.2874 84.9375Z" fill="#CBDBEC"/>
<path d="M439.599 31.2934C441.795 31.2934 443.576 29.5131 443.576 27.3171C443.576 25.1211 441.795 23.3408 439.599 23.3408C437.403 23.3408 435.623 25.1211 435.623 27.3171C435.623 29.5131 437.403 31.2934 439.599 31.2934Z" fill="#CBDBEC"/>
<path d="M397.017 42.9813C396.9 42.9816 396.784 42.9583 396.677 42.9127C396.569 42.8672 396.472 42.8004 396.391 42.7162L387.667 33.9924C387.582 33.9094 387.514 33.8101 387.468 33.7004C387.421 33.5907 387.397 33.4729 387.397 33.3539C387.397 33.2348 387.421 33.117 387.468 33.0073C387.514 32.8976 387.582 32.7983 387.667 32.7152L396.391 23.9915C396.564 23.8306 396.792 23.7412 397.029 23.7412C397.266 23.7412 397.494 23.8306 397.668 23.9915L406.392 32.7152C406.561 32.8897 406.656 33.1229 406.657 33.3659C406.657 33.4828 406.634 33.5986 406.588 33.7063C406.543 33.814 406.476 33.9112 406.392 33.9924L397.668 42.7162C397.493 42.8854 397.26 42.9804 397.017 42.9813ZM389.595 33.3418L397.017 40.7642L404.464 33.3418L397.017 25.8953L389.595 33.3418Z" fill="#CBDBEC"/>
<g style="mix-blend-mode:multiply">
<path d="M406.392 42.0648L397.668 33.3411C397.494 33.1802 397.266 33.0908 397.029 33.0908C396.792 33.0908 396.564 33.1802 396.391 33.3411L387.667 42.0648C387.582 42.1479 387.514 42.2472 387.468 42.3569C387.421 42.4665 387.397 42.5844 387.397 42.7035C387.397 42.8225 387.421 42.9403 387.468 43.05C387.514 43.1597 387.582 43.259 387.667 43.342L396.391 52.0658C396.472 52.1499 396.569 52.2168 396.677 52.2624C396.784 52.3079 396.9 52.3312 397.017 52.3309C397.26 52.33 397.493 52.2349 397.668 52.0658L406.392 43.342C406.561 43.1676 406.656 42.9344 406.657 42.6914C406.657 42.5745 406.634 42.4587 406.588 42.351C406.543 42.2434 406.476 42.146 406.392 42.0648Z" fill="#CBDBEC"/>
</g>
<path d="M330.152 192.115C329.445 191.958 328.729 191.846 328.007 191.778C327.205 191.729 326.4 191.729 325.598 191.778L324.971 190.428L322.561 190.597L323.164 191.995C321.972 192.098 320.831 192.523 319.862 193.224C319.563 193.445 319.35 193.762 319.258 194.122C319.165 194.482 319.2 194.862 319.356 195.2C319.538 195.622 319.829 195.988 320.199 196.26C320.392 196.387 320.593 196.5 320.802 196.597C321.495 196.943 322.247 197.156 323.019 197.224C323.838 197.345 324.802 197.417 326.007 197.489C326.815 197.506 327.62 197.578 328.417 197.706L329.381 198.212C329.574 198.67 328.875 198.983 327.285 199.104C326.403 199.188 325.515 199.188 324.634 199.104C323.779 199.025 322.932 198.871 322.103 198.646L321.525 200.574C322.373 200.824 323.246 200.977 324.128 201.032C325.154 201.117 326.186 201.117 327.212 201.032L327.815 202.381L330.225 202.188L329.646 200.815C330.795 200.683 331.886 200.241 332.803 199.538C333.084 199.319 333.283 199.012 333.366 198.666C333.449 198.32 333.412 197.956 333.261 197.634C333.087 197.207 332.794 196.839 332.418 196.573C332.234 196.433 332.031 196.319 331.815 196.236C331.121 195.915 330.381 195.704 329.622 195.61C328.779 195.489 327.791 195.417 326.634 195.344C325.828 195.339 325.023 195.282 324.224 195.176L323.332 194.694L323.67 194.067C324.197 193.841 324.76 193.71 325.333 193.682C326.789 193.617 328.248 193.746 329.67 194.067L330.152 192.115Z" fill="#00E57D"/>
<path d="M345.359 178.33C344.684 177.836 343.898 177.513 343.07 177.39C342.271 177.277 341.459 177.277 340.66 177.39C339.913 177.511 338.997 177.704 338.009 177.945C337.322 178.147 336.621 178.301 335.913 178.402L334.78 178.186L334.587 177.511C334.875 177.132 335.27 176.847 335.72 176.691C337.021 176.197 338.4 175.936 339.792 175.92L338.66 173.92C337.963 173.954 337.27 174.042 336.587 174.185C335.913 174.354 335.214 174.547 334.563 174.764L333.021 173.631L331.045 174.498L332.635 175.655C331.502 176.306 330.924 176.981 330.852 177.728C330.834 178.125 330.926 178.519 331.117 178.868C331.308 179.216 331.592 179.505 331.936 179.704C332.647 180.221 333.475 180.552 334.346 180.668C335.144 180.793 335.958 180.793 336.756 180.668C337.503 180.547 338.371 180.354 339.359 180.113C340.064 179.919 340.78 179.766 341.503 179.656C341.913 179.594 342.331 179.68 342.684 179.897C343.239 180.306 342.853 180.764 341.648 181.318C340.932 181.619 340.19 181.853 339.431 182.017C338.594 182.157 337.749 182.238 336.901 182.258L337.961 184.258C338.812 184.25 339.66 184.153 340.491 183.969C341.396 183.813 342.283 183.571 343.142 183.246L344.66 184.355L346.612 183.487L345.046 182.331C346.058 181.68 346.636 181.005 346.685 180.282C346.692 179.86 346.568 179.446 346.331 179.096C346.094 178.747 345.754 178.479 345.359 178.33Z" fill="#00E57D"/>
<path d="M470.841 172.186L228.938 312.729C224.234 315.134 219.027 316.389 213.744 316.389C208.461 316.389 203.253 315.134 198.549 312.729L85.6228 247.518C81.3814 245.108 79.2607 241.855 79.2607 238.65V259.76C79.2607 262.966 81.3573 266.171 85.6228 268.629L198.598 333.864C203.305 336.258 208.511 337.505 213.792 337.505C219.073 337.505 224.279 336.258 228.986 333.864L470.817 193.32C474.986 190.91 477.059 187.753 477.059 184.572V163.462C477.155 166.619 474.986 169.776 470.841 172.186Z" fill="#321288"/>
<path d="M198.598 312.729C203.301 315.134 208.509 316.389 213.792 316.389C219.075 316.389 224.282 315.134 228.986 312.729V333.864C224.279 336.258 219.073 337.505 213.792 337.505C208.511 337.505 203.305 336.258 198.598 333.864V312.729Z" fill="#5448C2"/>
<path d="M470.744 154.594C479.155 159.414 479.203 167.342 470.744 172.186L228.937 312.73C224.234 315.135 219.026 316.389 213.743 316.389C208.46 316.389 203.253 315.135 198.549 312.73L85.6223 247.519C77.1878 242.699 77.1396 234.771 85.6223 229.903L327.477 89.3588C332.18 86.9654 337.382 85.7178 342.659 85.7178C347.936 85.7178 353.139 86.9654 357.842 89.3588L470.744 154.594Z" fill="url(#paint0_linear)"/>
<path d="M213.827 316.971C208.424 317.086 203.081 315.817 198.308 313.283L85.3328 248.024C81.0432 245.614 78.6815 242.24 78.6574 238.674C78.6333 235.107 81.0673 231.854 85.2123 229.396L327.067 88.852C331.866 86.4041 337.176 85.1279 342.563 85.1279C347.949 85.1279 353.26 86.4041 358.058 88.852L471.033 154.063C475.323 156.473 477.684 159.871 477.684 163.413C477.684 166.956 475.274 170.258 471.129 172.716L229.299 313.283C224.544 315.823 219.216 317.093 213.827 316.971ZM342.539 86.3216C337.383 86.2265 332.288 87.4543 327.742 89.8882L85.8388 230.432C81.983 232.673 79.8623 235.589 79.8623 238.674C79.8623 241.758 82.0312 244.747 85.9352 246.988L198.91 312.223C203.525 314.564 208.628 315.785 213.803 315.785C218.978 315.785 224.081 314.564 228.696 312.223L470.527 171.679C474.359 169.438 476.479 166.522 476.479 163.438C476.479 160.353 474.334 157.365 470.43 155.123L357.456 89.8882C352.87 87.4444 347.734 86.2165 342.539 86.3216Z" fill="#321288"/>
<path d="M456.718 166.547C460.839 168.956 460.887 172.788 456.718 175.174L234.022 304.584C231.716 305.761 229.164 306.374 226.575 306.374C223.987 306.374 221.435 305.761 219.129 304.584L99.6234 235.565C95.4784 233.156 95.4784 229.324 99.6234 226.938L322.296 97.5279C324.602 96.3516 327.153 95.7383 329.742 95.7383C332.331 95.7383 334.883 96.3516 337.189 97.5279L456.718 166.547Z" fill="white"/>
<path d="M457.032 168.185L336.538 98.6115C334.425 97.5365 332.089 96.9761 329.718 96.9761C327.348 96.9761 325.011 97.5365 322.898 98.6115L99.3101 228.576C98.1557 229.19 97.1896 230.107 96.5146 231.227C96.5283 231.97 96.745 232.695 97.1412 233.323C97.2543 232.522 97.5675 231.762 98.0519 231.113C98.5362 230.464 99.1761 229.948 99.9126 229.612L323.501 99.6718C325.42 98.6539 327.57 98.1477 329.742 98.2018C331.895 98.157 334.025 98.6542 335.936 99.6478L456.429 169.221C457.169 169.559 457.811 170.079 458.295 170.732C458.78 171.385 459.091 172.15 459.201 172.956C459.597 172.336 459.814 171.619 459.827 170.884C459.175 169.734 458.204 168.796 457.032 168.185Z" fill="#CBDBEC"/>
<path d="M213.756 338.081C208.353 338.198 203.01 336.929 198.237 334.394L85.2618 269.159C80.9722 266.749 78.5864 263.327 78.6105 259.76V238.65H79.8155C79.8155 241.759 81.9603 244.723 85.8884 246.988L198.863 312.223C203.479 314.565 208.581 315.785 213.756 315.785C218.931 315.785 224.034 314.565 228.649 312.223L470.48 171.68C474.312 169.463 476.408 166.547 476.432 163.462H477.637V184.572C477.637 188.115 475.227 191.392 471.107 193.826L229.228 334.37C224.476 336.918 219.147 338.196 213.756 338.081ZM79.8637 242.94V259.809C79.8637 262.941 82.0085 265.906 85.9125 268.147L198.887 333.382C203.499 335.735 208.603 336.961 213.78 336.961C218.958 336.961 224.061 335.735 228.673 333.382L470.48 192.79C474.288 190.573 476.408 187.657 476.408 184.572V167.703C475.086 169.785 473.252 171.494 471.082 172.668L229.3 313.284C224.5 315.726 219.19 316.999 213.804 316.999C208.419 316.999 203.109 315.726 198.309 313.284L85.3341 248.024C83.0968 246.838 81.2104 245.084 79.8637 242.94Z" fill="#321288"/>
<path d="M297.402 179.295H331.888C332.787 179.275 333.676 179.492 334.466 179.922C334.763 180.052 335.02 180.26 335.21 180.522C335.401 180.785 335.518 181.093 335.551 181.416C335.551 182.573 333.936 183.512 331.912 183.512H293.788C292.89 183.539 292.001 183.332 291.209 182.91C290.912 182.779 290.655 182.572 290.465 182.31C290.274 182.047 290.157 181.739 290.125 181.416V168.234C290.125 167.077 291.739 166.137 293.763 166.137C294.668 166.114 295.564 166.321 296.366 166.74C296.657 166.876 296.908 167.085 297.094 167.347C297.279 167.609 297.394 167.914 297.426 168.234L297.402 179.295ZM335.261 160.016C319.188 150.738 293.233 150.738 277.256 160.016C261.278 169.294 261.399 184.308 277.473 193.586C293.547 202.864 319.477 202.84 335.31 193.586C351.143 184.332 351.311 169.318 335.261 160.064V160.016Z" fill="url(#paint1_linear)"/>
<path d="M334.466 179.922C333.676 179.491 332.787 179.275 331.888 179.295H297.402V168.234C297.37 167.914 297.255 167.608 297.07 167.347C296.884 167.085 296.633 166.876 296.342 166.74C295.54 166.321 294.644 166.113 293.739 166.137C291.715 166.137 290.101 167.077 290.101 168.234V181.416C290.133 181.738 290.25 182.047 290.441 182.309C290.631 182.572 290.888 182.779 291.185 182.91C291.977 183.332 292.866 183.539 293.764 183.512H331.888C333.912 183.512 335.527 182.572 335.527 181.416C335.497 181.095 335.383 180.789 335.197 180.527C335.011 180.264 334.759 180.056 334.466 179.922Z" fill="white"/>
<path d="M129.458 227.877L137.29 223.323L234.432 279.4L226.6 283.955L129.458 227.877Z" fill="#321288"/>
<path d="M30.3645 336.707C30.1595 336.708 29.9586 336.649 29.7862 336.539L23.6651 333.117C23.4794 333.009 23.3257 332.855 23.2198 332.668C23.1139 332.482 23.0596 332.271 23.0626 332.056V330.345C23.0644 330.132 23.1207 329.922 23.2262 329.737C23.3316 329.551 23.4827 329.396 23.6651 329.285L62.6568 306.825C72.9952 300.872 82.225 287.112 84.5867 274.147C84.6509 273.837 84.832 273.564 85.0923 273.385C85.3526 273.205 85.6721 273.133 85.9844 273.183C86.297 273.242 86.5738 273.421 86.7544 273.683C86.935 273.945 87.0047 274.268 86.9483 274.581C84.5385 288.413 74.899 302.535 63.8618 308.921L25.5689 331.02V331.357L31.0875 334.442C31.3605 334.603 31.5605 334.864 31.6458 335.169C31.7312 335.475 31.6952 335.801 31.5454 336.081C31.4349 336.292 31.2629 336.465 31.0522 336.577C30.8414 336.689 30.6016 336.734 30.3645 336.707Z" fill="#CBDBEC"/>
<path d="M225.805 283.497L134.495 230.793L134.374 184.885L225.684 237.95L225.805 283.497Z" fill="#C5D6FF"/>
<path d="M127.724 170.257L219.034 223.275C223.131 225.684 225.685 230.721 225.709 237.878L134.399 184.861C134.351 177.704 131.82 172.643 127.724 170.257Z" fill="#C5D6FF"/>
<path d="M86.2492 267.857C86.2492 282.509 75.9349 300.487 63.1385 307.861L24.2432 330.321L115.553 383.338L154.449 360.878C167.245 353.504 177.607 335.526 177.559 320.85L86.2492 267.857Z" fill="white"/>
<path d="M115.553 386.4L24.2673 333.335L24.2432 330.322L115.553 383.388V386.4Z" fill="#CBDBEC"/>
<path d="M177.559 320.899L86.2491 267.858L86.1045 212.744L177.39 265.81L177.559 320.899Z" fill="#E7EDFF"/>
<path d="M87.3094 214.841L176.21 266.508L176.354 318.803L87.454 267.159L87.3094 214.841ZM86.1045 212.744L86.2491 267.858L177.559 320.875L177.39 265.785L86.1045 212.744Z" fill="white"/>
<path d="M130.181 165.993L128.971 168.077L212.462 216.592L213.673 214.508L130.181 165.993Z" fill="#CBDBEC"/>
<path d="M202.767 221.876C216.816 213.779 228.263 220.31 228.311 236.335L228.432 282.798L226.6 283.858L225.805 283.4V237.83C225.805 223.37 215.467 217.538 202.911 224.792C190.356 232.046 180.114 249.758 180.138 264.194L180.307 319.307C180.307 335.646 168.812 355.624 154.569 363.842L115.674 386.398V383.386L154.569 360.926C167.366 353.552 177.728 335.574 177.68 320.898L177.511 265.808C177.367 249.71 188.741 229.973 202.767 221.876Z" fill="#A4C2FF"/>
<path d="M129.555 167.053C124.928 164.378 118.517 164.643 111.457 168.812C97.431 176.909 86.0564 196.646 86.1046 212.744L177.391 265.761C177.391 249.663 188.741 229.926 202.767 221.829C209.828 217.756 216.238 217.371 220.865 220.07L129.555 167.053Z" fill="white"/>
<defs>
<linearGradient id="paint0_linear" x1="44818.9" y1="72634.1" x2="49618.9" y2="86971.2" gradientUnits="userSpaceOnUse">
<stop stop-color="#90B4FF"/>
<stop offset="1" stop-color="#5D7AFF"/>
</linearGradient>
<linearGradient id="paint1_linear" x1="11165" y1="15342.5" x2="11563.4" y2="16532.4" gradientUnits="userSpaceOnUse">
<stop stop-color="#46C2AA"/>
<stop offset="1" stop-color="#5BF0A9"/>
</linearGradient>
</defs>
</svg>
