<svg width="532" height="424" viewBox="0 0 532 424" fill="none" xmlns="http://www.w3.org/2000/svg">
<path d="M246.998 84.7085C257.355 78.7695 274.148 78.7695 284.505 84.7085L431.033 168.73C436.59 171.916 439.166 176.165 438.759 180.337C438.408 183.939 435.833 187.484 431.033 190.236L284.505 274.258C274.148 280.197 257.355 280.197 246.998 274.258L100.47 190.236C95.4812 187.376 92.8953 183.659 92.7127 179.911C92.698 179.611 92.6988 179.311 92.715 179.011C92.916 175.278 95.501 171.579 100.47 168.73L246.998 84.7085Z" fill="#3080ED"/>
<path d="M253.73 117.619C260.074 113.981 270.36 113.981 276.705 117.619L371.01 171.695C374.414 173.647 375.992 176.249 375.743 178.805C375.528 181.012 373.951 183.183 371.01 184.869L276.705 238.945C270.36 242.583 260.074 242.583 253.73 238.945L159.424 184.869C156.368 183.116 154.784 180.84 154.672 178.544C154.664 178.36 154.664 178.176 154.674 177.992C154.797 175.705 156.38 173.44 159.424 171.695L253.73 117.619Z" stroke="#5396F1" stroke-width="1.34261"/>
<path d="M431.033 194.787L284.505 278.808C274.148 284.747 257.355 284.747 246.998 278.808L100.47 194.787C95.4812 191.926 92.8953 188.209 92.7127 184.461L92.5496 248.305C92.5343 254.323 96.6924 260.097 104.108 264.355L241.82 343.438C254.598 350.775 275.302 350.835 288.207 343.572L424.945 266.617C433.781 261.644 438.759 254.842 438.759 247.743L438.759 184.887C438.408 188.49 435.833 192.034 431.033 194.787Z" fill="url(#paint0_linear)"/>
<path fill-rule="evenodd" clip-rule="evenodd" d="M92.7127 184.461C92.698 184.161 92.6988 183.861 92.715 183.561L92.7127 184.461Z" fill="url(#paint1_linear)"/>
<path d="M108.088 225.374C108.088 222.286 111.421 220.347 114.107 221.873L236.453 291.412C239.392 293.082 241.207 296.202 241.207 299.582V315.61C241.207 318.704 237.863 320.643 235.178 319.105L112.816 249.035C109.892 247.361 108.088 244.249 108.088 240.879V225.374Z" fill="#CCE1FD" stroke="#3080ED" stroke-width="1.34261"/>
<path d="M131.982 232.105L109.226 245.189L108.088 242.345V228.123L108.657 222.434L111.502 220.727L131.982 232.105Z" fill="#3080ED"/>
<path d="M261.43 177.473C259.645 178.506 257.705 179.269 255.608 179.761C253.569 180.253 251.444 180.467 249.235 180.401C247.053 180.352 244.83 180.016 242.563 179.392C240.354 178.769 238.201 177.85 236.105 176.636L235.467 176.267L233.173 177.596L230.198 175.874L232.493 174.545L231.856 174.176C229.703 172.929 228.06 171.666 226.927 170.387C225.822 169.091 225.227 167.811 225.142 166.548C225.057 165.285 225.439 164.063 226.289 162.882C227.196 161.701 228.57 160.577 230.411 159.511L232.281 158.428C234.065 157.395 235.977 156.632 238.017 156.14C240.113 155.648 242.252 155.426 244.433 155.476C246.643 155.541 248.852 155.886 251.062 156.509C253.328 157.132 255.509 158.051 257.605 159.265L258.243 159.634L260.537 158.305L263.512 160.028L261.217 161.356L261.855 161.725C264.007 162.972 265.636 164.243 266.741 165.539C267.846 166.835 268.441 168.115 268.526 169.378C268.639 170.624 268.242 171.838 267.336 173.019C266.458 174.217 265.112 175.34 263.299 176.39L261.43 177.473ZM233.47 161.283C230.666 162.907 229.334 164.711 229.476 166.696C229.618 168.681 231.346 170.633 234.66 172.552L235.297 172.921L255.438 161.258L254.801 160.889C251.458 158.953 248.073 157.944 244.646 157.862C241.275 157.78 238.173 158.56 235.34 160.2L233.47 161.283ZM258.413 162.98L238.272 174.643L238.909 175.012C242.252 176.948 245.609 177.957 248.98 178.039C252.407 178.121 255.537 177.342 258.37 175.701L260.24 174.619C263.044 172.995 264.376 171.19 264.234 169.206C264.092 167.221 262.364 165.269 259.05 163.349L258.413 162.98Z" fill="white"/>
<path d="M287.13 192.355L270.559 182.759L256.621 190.83L253.647 189.107L283.391 171.884L286.365 173.606L273.278 181.185L289.85 190.781L302.937 183.202L305.912 184.925L276.168 202.148L273.193 200.426L287.13 192.355Z" fill="white"/>
<g style="mix-blend-mode:multiply">
<path d="M420.606 121.742H390.624C389.163 121.742 387.979 122.914 387.979 124.361V146.429C387.979 147.875 389.163 149.048 390.624 149.048H420.606C422.066 149.048 423.25 147.875 423.25 146.429V124.361C423.25 122.914 422.066 121.742 420.606 121.742Z" fill="#CBDBEC"/>
</g>
<g style="mix-blend-mode:multiply">
<path d="M44.1848 203.661H3.60154C1.61249 203.661 0 205.231 0 207.168V236.562C0 238.499 1.61249 240.069 3.60154 240.069H44.1848C46.1739 240.069 47.7864 238.499 47.7864 236.562V207.168C47.7864 205.231 46.1739 203.661 44.1848 203.661Z" fill="#CBDBEC"/>
</g>
<path d="M294.87 40.997C294.403 41.4715 293.849 41.8481 293.238 42.1051C292.627 42.362 291.972 42.4943 291.311 42.4943C290.65 42.4943 289.995 42.362 289.384 42.1051C288.773 41.8481 288.219 41.4715 287.752 40.997C281.14 34.3106 272.174 30.5544 262.825 30.5544C253.476 30.5544 244.51 34.3106 237.898 40.997C237.428 41.4719 236.871 41.8487 236.257 42.1057C235.644 42.3628 234.986 42.4951 234.322 42.4951C233.659 42.4951 233.001 42.3628 232.388 42.1057C231.774 41.8487 231.217 41.4719 230.747 40.997C230.278 40.522 229.906 39.9582 229.651 39.3377C229.397 38.7171 229.266 38.052 229.266 37.3803C229.266 36.7086 229.397 36.0435 229.651 35.423C229.906 34.8024 230.278 34.2386 230.747 33.7637C239.261 25.1828 250.79 20.3648 262.809 20.3648C274.827 20.3648 286.356 25.1828 294.87 33.7637C295.811 34.7265 296.339 36.0261 296.339 37.3803C296.339 38.7346 295.811 40.0342 294.87 40.997ZM280.635 48.1972C275.911 43.4194 269.505 40.7354 262.825 40.7354C256.145 40.7354 249.739 43.4194 245.015 48.1972C244.548 48.6699 244.177 49.2312 243.924 49.8489C243.671 50.4666 243.541 51.1286 243.541 51.7972C243.541 52.4658 243.671 53.1279 243.924 53.7456C244.177 54.3633 244.548 54.9245 245.015 55.3973C245.482 55.8701 246.037 56.2451 246.648 56.501C247.258 56.7568 247.913 56.8885 248.574 56.8885C249.235 56.8885 249.889 56.7568 250.5 56.501C251.11 56.2451 251.665 55.8701 252.132 55.3973C253.536 53.9767 255.203 52.8498 257.038 52.0809C258.873 51.3121 260.839 50.9164 262.825 50.9164C264.811 50.9164 266.777 51.3121 268.612 52.0809C270.446 52.8498 272.113 53.9767 273.517 55.3973C273.985 55.8701 274.54 56.2451 275.15 56.501C275.761 56.7568 276.415 56.8885 277.076 56.8885C277.737 56.8885 278.391 56.7568 279.002 56.501C279.613 56.2451 280.167 55.8701 280.635 55.3973C281.102 54.9245 281.473 54.3633 281.726 53.7456C281.979 53.1279 282.109 52.4658 282.109 51.7972C282.109 51.1286 281.979 50.4666 281.726 49.8489C281.473 49.2312 281.102 48.6699 280.635 48.1972ZM309.137 19.3633C296.841 6.96311 280.187 0 262.825 0C245.463 0 228.809 6.96311 216.513 19.3633C216.045 19.8361 215.674 20.3974 215.422 21.0151C215.169 21.6328 215.039 22.2948 215.039 22.9634C215.039 23.632 215.169 24.2941 215.422 24.9118C215.674 25.5295 216.045 26.0907 216.513 26.5635C216.98 27.0363 217.535 27.4113 218.145 27.6671C218.756 27.923 219.41 28.0547 220.071 28.0547C220.732 28.0547 221.387 27.923 221.997 27.6671C222.608 27.4113 223.163 27.0363 223.63 26.5635C234.042 16.08 248.135 10.1946 262.825 10.1946C277.515 10.1946 291.608 16.08 302.02 26.5635C302.487 27.0363 303.042 27.4113 303.653 27.6671C304.263 27.923 304.918 28.0547 305.578 28.0547C306.239 28.0547 306.894 27.923 307.505 27.6671C308.115 27.4113 308.67 27.0363 309.137 26.5635C309.605 26.0907 309.975 25.5295 310.228 24.9118C310.481 24.2941 310.611 23.632 310.611 22.9634C310.611 22.2948 310.481 21.6328 310.228 21.0151C309.975 20.3974 309.605 19.8361 309.137 19.3633Z" fill="#D8DEE7"/>
<path d="M449.975 120.602C449.816 120.602 449.659 120.571 449.512 120.509C449.366 120.447 449.234 120.356 449.123 120.242L437.27 108.377C437.154 108.264 437.062 108.129 436.999 107.98C436.936 107.831 436.904 107.67 436.904 107.509C436.904 107.347 436.936 107.186 436.999 107.037C437.062 106.888 437.154 106.753 437.27 106.64L449.123 94.7755C449.359 94.5566 449.669 94.4351 449.991 94.4351C450.313 94.4351 450.623 94.5566 450.859 94.7755L462.712 106.706C462.937 106.933 463.066 107.238 463.073 107.558C463.071 107.888 462.942 108.205 462.712 108.443L450.859 120.307C450.612 120.513 450.296 120.619 449.975 120.602ZM439.889 107.492L449.975 117.62L460.093 107.492L449.975 97.3975L439.889 107.492Z" fill="#CBDBEC"/>
<g style="mix-blend-mode:multiply">
<path d="M232.677 409.597C232.346 409.596 232.029 409.467 231.791 409.237L219.956 397.373C219.84 397.26 219.748 397.125 219.685 396.976C219.622 396.827 219.59 396.667 219.59 396.505C219.59 396.343 219.622 396.183 219.685 396.033C219.748 395.884 219.84 395.749 219.956 395.636L231.791 383.772C232.033 383.551 232.349 383.429 232.677 383.429C233.004 383.429 233.32 383.551 233.562 383.772L245.397 395.636C245.516 395.743 245.611 395.874 245.673 396.022C245.735 396.169 245.764 396.328 245.758 396.488C245.765 396.653 245.736 396.817 245.674 396.97C245.612 397.123 245.517 397.26 245.397 397.373L233.562 409.237C233.324 409.467 233.007 409.596 232.677 409.597ZM222.546 396.488L232.677 406.615L242.807 396.488L232.677 386.361L222.546 396.488Z" fill="#CBDBEC"/>
</g>
<path d="M35.8421 423.25C35.5115 423.249 35.1942 423.114 34.9569 422.874L23.1218 410.495C23.0058 410.377 22.9136 410.236 22.8506 410.08C22.7877 409.924 22.7554 409.757 22.7554 409.588C22.7554 409.419 22.7877 409.252 22.8506 409.097C22.9136 408.941 23.0058 408.8 23.1218 408.682L34.9569 396.302C35.1986 396.072 35.5145 395.944 35.8421 395.944C36.1698 395.944 36.4856 396.072 36.7273 396.302L48.5625 408.682C48.6819 408.793 48.7762 408.931 48.8386 409.084C48.901 409.238 48.9297 409.404 48.923 409.571C48.9301 409.743 48.9016 409.915 48.8394 410.074C48.7772 410.233 48.6827 410.377 48.5625 410.495L36.7273 422.874C36.49 423.114 36.1727 423.249 35.8421 423.25ZM25.7116 409.571L35.8421 420.138L45.9726 409.571L35.8421 399.004L25.7116 409.571Z" fill="white"/>
<path d="M528.543 191.914C528.016 192.39 527.39 192.769 526.7 193.027C526.011 193.286 525.271 193.42 524.524 193.421C523.777 193.423 523.037 193.292 522.346 193.036C521.655 192.78 521.028 192.404 520.498 191.929C519.969 191.455 519.548 190.891 519.261 190.271C518.974 189.65 518.825 188.984 518.823 188.312C518.822 187.64 518.967 186.974 519.252 186.352C519.536 185.73 519.954 185.165 520.481 184.689C521.546 183.726 522.991 183.184 524.5 183.181C526.009 183.178 527.457 183.715 528.526 184.673C529.595 185.631 530.198 186.932 530.201 188.29C530.204 189.648 529.608 190.951 528.543 191.914Z" fill="#CBDBEC"/>
<path d="M47.7077 168.38C47.365 168.379 47.036 168.249 46.79 168.019L34.4859 156.159C34.259 155.923 34.1328 155.613 34.1328 155.291C34.1328 154.969 34.259 154.659 34.4859 154.422L46.79 142.562C47.035 142.343 47.3567 142.222 47.6907 142.222C48.0247 142.222 48.3464 142.343 48.5915 142.562L61.0655 154.422C61.1841 154.533 61.2784 154.665 61.3426 154.812C61.4069 154.958 61.4397 155.115 61.4393 155.274C61.438 155.605 61.304 155.922 61.0655 156.159L48.7614 168.019C48.6281 168.156 48.4629 168.26 48.2797 168.322C48.0965 168.385 47.9004 168.405 47.7077 168.38ZM37.205 155.274L47.7077 165.398L58.2103 155.274L47.7077 145.183L37.205 155.274Z" fill="#CBDBEC"/>
<g style="mix-blend-mode:multiply">
<path d="M61.0792 166.939L49.2139 155.103C49.1009 154.987 48.9658 154.895 48.8166 154.832C48.6674 154.769 48.5072 154.737 48.3452 154.737C48.1833 154.737 48.0231 154.769 47.8739 154.832C47.7247 154.895 47.5896 154.987 47.4766 155.103L35.6113 166.939C35.3924 167.175 35.271 167.486 35.271 167.808C35.271 168.13 35.3924 168.44 35.6113 168.677L47.4766 180.545C47.7139 180.775 48.0311 180.904 48.3617 180.906C48.5207 180.906 48.6781 180.874 48.8246 180.812C48.971 180.75 49.1035 180.659 49.2139 180.545L61.0792 168.677C61.1936 168.566 61.2845 168.434 61.3465 168.287C61.4084 168.141 61.4401 167.983 61.4397 167.824C61.4385 167.493 61.3093 167.176 61.0792 166.939Z" fill="#CBDBEC"/>
</g>
<path d="M518.257 278.753C517.926 278.752 517.609 278.617 517.371 278.377L505.536 265.997C505.42 265.88 505.328 265.739 505.265 265.583C505.202 265.427 505.17 265.26 505.17 265.091C505.17 264.922 505.202 264.755 505.265 264.599C505.328 264.444 505.42 264.303 505.536 264.185L517.371 251.805C517.613 251.575 517.929 251.447 518.257 251.447C518.584 251.447 518.9 251.575 519.142 251.805L530.977 264.185C531.097 264.303 531.192 264.446 531.254 264.606C531.316 264.765 531.345 264.936 531.338 265.108C531.344 265.275 531.316 265.441 531.253 265.595C531.191 265.749 531.096 265.886 530.977 265.997L519.142 278.377C518.905 278.617 518.587 278.752 518.257 278.753ZM508.126 265.074L518.257 275.607L528.387 265.074L518.257 254.541L508.126 265.074Z" fill="#CBDBEC"/>
<g style="mix-blend-mode:multiply">
<path d="M530.977 277.31L519.142 265.444C518.9 265.223 518.584 265.1 518.257 265.1C517.929 265.1 517.613 265.223 517.371 265.444L505.536 277.31C505.42 277.423 505.328 277.558 505.265 277.707C505.202 277.856 505.17 278.016 505.17 278.178C505.17 278.34 505.202 278.501 505.265 278.65C505.328 278.799 505.42 278.934 505.536 279.047L517.371 290.913C517.609 291.141 517.927 291.269 518.257 291.269C518.587 291.269 518.904 291.141 519.142 290.913L530.977 279.047C531.097 278.934 531.192 278.797 531.254 278.644C531.316 278.491 531.345 278.327 531.338 278.162C531.344 278.002 531.316 277.843 531.253 277.695C531.191 277.548 531.096 277.416 530.977 277.31Z" fill="#CBDBEC"/>
</g>
<g style="mix-blend-mode:multiply">
<path d="M492.873 137.67H417.343C413.693 137.67 410.735 140.581 410.735 144.171V199.435C410.735 203.025 413.693 205.936 417.343 205.936H492.873C496.522 205.936 499.481 203.025 499.481 199.435V144.171C499.481 140.581 496.522 137.67 492.873 137.67Z" fill="#CBDBEC"/>
</g>
<path d="M482.514 160.425H428.839C427.96 160.425 427.118 160.066 426.496 159.426C425.875 158.785 425.526 157.917 425.526 157.012C425.526 156.107 425.875 155.238 426.496 154.598C427.118 153.958 427.96 153.599 428.839 153.599H482.514C483.393 153.599 484.236 153.958 484.857 154.598C485.479 155.238 485.828 156.107 485.828 157.012C485.828 157.917 485.479 158.785 484.857 159.426C484.236 160.066 483.393 160.425 482.514 160.425Z" fill="white"/>
<path d="M482.514 175.216H428.839C427.96 175.216 427.118 174.857 426.496 174.217C425.875 173.576 425.526 172.708 425.526 171.803C425.526 170.898 425.875 170.03 426.496 169.389C427.118 168.749 427.96 168.39 428.839 168.39H482.514C483.393 168.39 484.236 168.749 484.857 169.389C485.479 170.03 485.828 170.898 485.828 171.803C485.828 172.708 485.479 173.576 484.857 174.217C484.236 174.857 483.393 175.216 482.514 175.216Z" fill="white"/>
<path d="M482.113 189.922H428.438C427.952 190.036 427.449 190.036 426.963 189.922C426.478 189.808 426.024 189.582 425.635 189.263C425.246 188.943 424.932 188.537 424.716 188.075C424.5 187.613 424.388 187.107 424.388 186.594C424.388 186.082 424.5 185.576 424.716 185.114C424.932 184.652 425.246 184.246 425.635 183.926C426.024 183.606 426.478 183.381 426.963 183.267C427.449 183.153 427.952 183.153 428.438 183.266H482.113C482.845 183.438 483.499 183.861 483.967 184.466C484.435 185.07 484.69 185.821 484.69 186.594C484.69 187.368 484.435 188.118 483.967 188.723C483.499 189.328 482.845 189.751 482.113 189.922Z" fill="white"/>
<defs>
<linearGradient id="paint0_linear" x1="418.7" y1="267.944" x2="163.518" y2="379.177" gradientUnits="userSpaceOnUse">
<stop stop-color="#2F80ED"/>
<stop offset="1" stop-color="#E2EFFF"/>
</linearGradient>
<linearGradient id="paint1_linear" x1="418.7" y1="267.944" x2="163.518" y2="379.177" gradientUnits="userSpaceOnUse">
<stop stop-color="#2F80ED"/>
<stop offset="1" stop-color="#E2EFFF"/>
</linearGradient>
</defs>
</svg>
