<svg width="100" height="100" viewBox="0 0 100 100" fill="none" xmlns="http://www.w3.org/2000/svg">
<g clip-path="url(#clip0)">
<path d="M80.8388 92.794C80.7339 96.7997 77.465 99.9999 73.4574 99.9999H10.5847C6.57692 99.9999 3.31012 96.7997 3.20524 92.794C2.36539 60.8751 9.35114 36.4935 12.638 26.8948C13.5507 24.2298 16.0562 22.4429 18.8709 22.4429H65.1713C67.9879 22.4429 70.4933 24.2296 71.406 26.8948C73.2513 32.2856 76.2638 42.3384 78.4019 55.769C80.0697 66.2559 81.2064 78.8001 80.8388 92.794Z" fill="#2F80ED"/>
<path d="M80.8386 92.794C80.7338 96.7997 77.4648 99.9999 73.4572 99.9999H38.6248C36.3049 99.9999 34.1929 98.6733 33.1855 96.5856C30.3992 90.8132 25.4142 78.1378 25.6586 61.7352C25.707 58.4302 28.3924 55.769 31.6974 55.769H78.4015C80.0695 66.256 81.2062 78.8001 80.8386 92.794Z" fill="#276DCB"/>
<path d="M25.2631 22.4429C23.2238 22.4429 21.4107 24.2296 20.7506 26.8948C18.3701 36.4933 13.3144 60.8751 13.9222 92.794C13.9969 96.7997 16.3633 99.9999 19.2646 99.9999H10.5847C6.57693 99.9999 3.31014 96.7997 3.20525 92.794C2.36541 60.8751 9.3492 36.4935 12.6361 26.8948C13.5488 24.2298 16.0543 22.4429 18.8709 22.4429H25.2631Z" fill="#276DCB"/>
<path d="M57.8572 41.2969C56.0553 41.2969 54.5945 39.8361 54.5945 38.0342V19.098C54.5945 12.1654 48.9545 6.52539 42.0219 6.52539C35.0893 6.52539 29.4492 12.1654 29.4492 19.098V38.034C29.4492 39.8359 27.9885 41.2967 26.1865 41.2967C24.3846 41.2967 22.9238 39.8359 22.9238 38.034V19.098C22.9238 8.56738 31.491 0 42.0219 0C52.5527 0 61.1199 8.56738 61.1199 19.098V38.034C61.1199 39.8359 59.6592 41.2969 57.8572 41.2969Z" fill="#407093"/>
<path d="M57.9242 38.034V19.098C57.9242 12.1654 52.2842 6.52539 45.3516 6.52539C44.7869 6.52539 44.2318 6.5666 43.6865 6.63906C49.8344 7.45664 54.5941 12.7303 54.5941 19.098V38.034C54.5941 39.8359 56.0549 41.2967 57.8568 41.2967C58.4658 41.2967 59.034 41.1268 59.5219 40.8361C58.5666 40.2672 57.9242 39.2269 57.9242 38.034Z" fill="#365E7D"/>
<path d="M26.2537 38.034V19.098C26.2537 9.12832 33.933 0.919922 43.6867 0.0732422C43.1379 0.0257813 42.5828 0 42.0219 0C31.4912 0 22.9238 8.56738 22.9238 19.098V38.034C22.9238 39.8359 24.3846 41.2967 26.1865 41.2967C26.7957 41.2967 27.3637 41.1268 27.8516 40.8361C26.8961 40.2672 26.2537 39.227 26.2537 38.034Z" fill="#365E7D"/>
<path d="M39.1933 96.5854C36.4084 90.8138 31.4238 78.1374 31.6668 61.7353C31.7158 58.4294 34.4004 55.77 37.7066 55.77H64.2615H90.8164C94.1226 55.77 96.8072 58.4294 96.8562 61.7353C97.0992 78.1374 92.1144 90.8138 89.3297 96.5854C88.3217 98.6739 86.2088 100 83.89 100H44.6328C42.3138 100 40.2011 98.6739 39.1933 96.5854Z" fill="#5D5D5D"/>
<path d="M50.7481 99.9994H44.6324C42.3147 99.9994 40.2006 98.6729 39.1932 96.5852C36.409 90.8127 31.424 78.1373 31.6662 61.7348C31.7147 58.4297 34.4 55.7686 37.7072 55.7686H45.9813C43.7059 55.7686 41.8565 58.4297 41.824 61.7348C41.6565 78.1373 45.0867 90.8129 47.0049 96.5852C47.6973 98.6729 49.1531 99.9994 50.7481 99.9994Z" fill="black"/>
<path d="M65.2707 84.8245C57.8977 84.8245 51.8994 78.8261 51.8994 71.4532V64.6925C51.8994 63.2452 53.0729 62.0718 54.5201 62.0718C55.9674 62.0718 57.1408 63.2452 57.1408 64.6925V71.4532C57.1408 75.9362 60.7879 79.5831 65.2707 79.5831C69.7535 79.5831 73.4006 75.936 73.4006 71.4532V64.6925C73.4006 63.2452 74.574 62.0718 76.0213 62.0718C77.4686 62.0718 78.642 63.2452 78.642 64.6925V71.4532C78.642 78.8263 72.6436 84.8245 65.2707 84.8245Z" fill="#407093"/>
<path d="M67.7219 79.5834C72.2047 79.5834 75.8518 75.9363 75.8518 71.4535V64.6928C75.8518 63.6885 76.4174 62.817 77.2467 62.3771C76.8809 62.183 76.4641 62.0723 76.0211 62.0723C74.5738 62.0723 73.4004 63.2457 73.4004 64.693V71.4537C73.4004 75.5201 70.3996 78.8984 66.4961 79.4912C66.8959 79.5518 67.3053 79.5834 67.7219 79.5834Z" fill="#365E7D"/>
<path d="M54.3506 71.4535V64.6928C54.3506 63.6885 54.9162 62.817 55.7457 62.3771C55.3799 62.183 54.9631 62.0723 54.5201 62.0723C53.0729 62.0723 51.8994 63.2457 51.8994 64.693V71.4537C51.8994 78.8268 57.8977 84.825 65.2707 84.825C65.6842 84.825 66.0924 84.8033 66.4963 84.7664C59.6959 84.1451 54.3506 78.4131 54.3506 71.4535Z" fill="#365E7D"/>
</g>
<defs>
<clipPath id="clip0">
<rect width="100" height="100" fill="white"/>
</clipPath>
</defs>
</svg>
