<svg width="183" height="183" viewBox="0 0 183 183" fill="none" xmlns="http://www.w3.org/2000/svg">
<g clip-path="url(#clip0)">
<path d="M46.0899 14.3012L54.4457 14.0467C56.1585 13.9945 56.933 11.8807 55.6595 10.7341L50.3386 5.94357C48.0168 3.85301 49.4954 0 52.62 0H73.8645H109.853C124.027 0 135.517 11.49 135.517 25.664V61.9033H48.2005V32.1151C48.2005 29.824 47.6608 27.5651 46.6246 25.5214L43.311 18.9848C42.2419 16.8767 43.7277 14.3734 46.0899 14.3012Z" fill="#365E7D"/>
<path d="M109.853 0H101.879C116.053 0 127.543 11.49 127.543 25.664V61.9033H135.517V25.664C135.517 11.49 124.027 0 109.853 0V0Z" fill="#2B4D66"/>
<path d="M142.718 182.952H40.2821C38.7902 182.952 37.5811 181.743 37.5811 180.251V128.491C37.5811 108.722 53.6071 92.6958 73.3761 92.6958H109.624C129.393 92.6958 145.419 108.722 145.419 128.491V180.251C145.419 181.743 144.21 182.952 142.718 182.952Z" fill="#61A2F9"/>
<path d="M109.624 92.6958H99.4912C119.26 92.6958 135.286 108.722 135.286 128.491V182.952H142.718C144.21 182.952 145.419 181.743 145.419 180.251V128.491C145.419 108.722 129.393 92.6958 109.624 92.6958Z" fill="#5490F9"/>
<path d="M91.5 120.343L81.5301 127.618C80.599 128.298 79.2765 127.886 78.8955 126.798L66.7625 92.1705L74.0335 85.0557L78.9541 98.6127L91.5 120.343Z" fill="#F6F1F1"/>
<path d="M91.5 120.343L101.47 127.618C102.401 128.298 103.723 127.886 104.104 126.798L116.238 92.1705L108.966 85.0557L104.046 98.6127L91.5 120.343Z" fill="#F6F1F1"/>
<path d="M91.5001 120.343L104.046 98.6133H78.9546L91.5001 120.343Z" fill="#E2A770"/>
<path d="M91.5 105.085C72.2524 105.085 56.6492 89.4816 56.6492 70.2341V40.0562C56.6492 37.57 57.3226 35.2643 58.486 33.2935C62.1127 27.1501 70.3999 25.7676 76.0665 30.1017C86.4653 38.055 97.827 40.6163 110.396 36.413C117.919 33.8975 125.981 39.0508 126.337 46.9748C126.346 47.1754 126.35 47.3769 126.35 47.5792V70.2341C126.351 89.4816 110.747 105.085 91.5 105.085Z" fill="#F1D0A5"/>
<path d="M126.337 46.9749C125.981 39.0504 117.919 33.8971 110.397 36.413C110.331 36.4348 110.267 36.4538 110.201 36.4752C114.55 38.0086 117.904 41.9277 118.131 46.9749C118.14 47.1754 118.145 47.3769 118.145 47.5793V70.2341C118.145 88.0934 104.711 102.812 87.3967 104.843C88.7428 105.001 90.1113 105.085 91.4996 105.085C110.747 105.085 126.35 89.4816 126.35 70.2341V47.5793C126.351 47.3766 126.346 47.1754 126.337 46.9749Z" fill="#F1B986"/>
<path d="M75.5154 62.0099C73.9906 62.0099 72.7546 60.774 72.7546 59.2492V55.4048C72.7546 53.88 73.9906 52.644 75.5154 52.644C77.0401 52.644 78.2761 53.88 78.2761 55.4048V59.2492C78.2761 60.774 77.0401 62.0099 75.5154 62.0099Z" fill="#2B4D66"/>
<path d="M107.484 62.0099C105.959 62.0099 104.723 60.774 104.723 59.2492V55.4048C104.723 53.88 105.959 52.644 107.484 52.644C109.009 52.644 110.245 53.88 110.245 55.4048V59.2492C110.245 60.774 109.009 62.0099 107.484 62.0099Z" fill="#2B4D66"/>
<path d="M91.4999 88.642C88.9643 88.642 86.4291 87.8789 83.9636 86.3527C82.6672 85.55 82.2669 83.8486 83.0697 82.5519C83.8725 81.2552 85.5742 80.8556 86.8705 81.658C90.0291 83.6135 92.9714 83.6127 96.1299 81.658C97.4259 80.8567 99.1283 81.2555 99.9307 82.5519C100.733 83.8486 100.333 85.55 99.0368 86.3527C96.571 87.8786 94.0354 88.642 91.4999 88.642Z" fill="#DD636E"/>
<path d="M56.6493 66.9822H51.0614C47.1848 66.9822 44.042 63.8394 44.042 59.9628C44.042 56.0862 47.1848 52.9434 51.0614 52.9434H56.6493V66.9822Z" fill="#E2A770"/>
<path d="M128.191 86.9452H104.48C102.955 86.9452 101.719 85.7092 101.719 84.1845C101.719 82.6597 102.955 81.4237 104.48 81.4237H128.191C129.288 81.4237 130.18 80.5316 130.18 79.435V66.2104C130.18 64.6857 131.416 63.4497 132.94 63.4497C134.465 63.4497 135.701 64.6857 135.701 66.2104V79.435C135.701 83.5761 132.332 86.9452 128.191 86.9452Z" fill="#2B4D66"/>
<path d="M104.887 88.4193H97.6592C95.7916 88.4193 94.2776 86.9053 94.2776 85.0378V83.4973C94.2776 81.6298 95.7916 80.1157 97.6592 80.1157H104.887C106.754 80.1157 108.268 81.6298 108.268 83.4973V85.0378C108.268 86.9057 106.754 88.4193 104.887 88.4193Z" fill="#365E7D"/>
<path d="M129.41 183H53.59L46.8686 146.943C46.2156 143.439 48.9045 140.203 52.4687 140.203H130.531C134.095 140.203 136.784 143.439 136.131 146.943L129.41 183Z" fill="#365E7D"/>
<path d="M130.531 140.202H123.055C126.619 140.202 129.308 143.439 128.655 146.942L121.934 183H129.41L136.131 146.942C136.784 143.439 134.095 140.202 130.531 140.202Z" fill="#2B4D66"/>
<path d="M91.4999 176.436C95.8322 176.436 99.3442 172.924 99.3442 168.592C99.3442 164.26 95.8322 160.748 91.4999 160.748C87.1676 160.748 83.6555 164.26 83.6555 168.592C83.6555 172.924 87.1676 176.436 91.4999 176.436Z" fill="#F6F1F1"/>
<path d="M91.4998 160.748C90.4569 160.748 89.4636 160.955 88.5532 161.325C91.4244 162.49 93.451 165.303 93.451 168.592C93.451 171.881 91.424 174.693 88.5532 175.859C89.4636 176.229 90.4569 176.436 91.4998 176.436C95.8321 176.436 99.3442 172.924 99.3442 168.592C99.3442 164.26 95.8321 160.748 91.4998 160.748Z" fill="#DAE4EA"/>
<path d="M127.455 140.202H108.589V134.204C108.589 132.421 110.034 130.975 111.818 130.975H124.226C126.009 130.975 127.455 132.421 127.455 134.204V140.202H127.455Z" fill="#F6F1F1"/>
<path d="M126.351 69.8915H132.94C138.133 69.8915 142.343 65.6821 142.343 60.4891V59.4365C142.343 54.2439 138.133 50.0342 132.94 50.0342H126.351V69.8915Z" fill="#61A2F9"/>
<path d="M132.94 50.0342H126.351V50.036C131.509 50.0767 135.678 54.2689 135.678 59.4362V60.4888C135.678 65.656 131.509 69.8486 126.351 69.889V69.8908H132.94C138.133 69.8908 142.343 65.6814 142.343 60.4884V59.4358C142.343 54.2435 138.133 50.0342 132.94 50.0342Z" fill="#5490F9"/>
</g>
<defs>
<clipPath id="clip0">
<rect width="183" height="183" fill="white"/>
</clipPath>
</defs>
</svg>
