<svg width="82" height="82" viewBox="0 0 82 82" fill="none" xmlns="http://www.w3.org/2000/svg">
<path d="M79.4375 33.3125V65.3438H33.3125V49.9688H48.6875V33.3125H79.4375Z" fill="#57A4FF"/>
<path d="M79.4375 32.0312H49.9688V29.4688H79.4375C79.7773 29.4688 80.1032 29.3338 80.3435 29.0935C80.5838 28.8532 80.7188 28.5273 80.7188 28.1875C80.7188 27.8477 80.5838 27.5218 80.3435 27.2815C80.1032 27.0412 79.7773 26.9062 79.4375 26.9062H49.9688V24.3438H66.625C66.9648 24.3438 67.2907 24.2088 67.531 23.9685C67.7713 23.7282 67.9062 23.4023 67.9062 23.0625C67.9062 22.7227 67.7713 22.3968 67.531 22.1565C67.2907 21.9162 66.9648 21.7812 66.625 21.7812H49.9688V17.9375C49.9688 17.5977 49.8338 17.2718 49.5935 17.0315C49.3532 16.7912 49.0273 16.6562 48.6875 16.6562H2.5625C2.22269 16.6562 1.8968 16.7912 1.65652 17.0315C1.41624 17.2718 1.28125 17.5977 1.28125 17.9375V49.9688C1.28125 50.3086 1.41624 50.6344 1.65652 50.8747C1.8968 51.115 2.22269 51.25 2.5625 51.25H32.0312V61.5H16.6562C16.3164 61.5 15.9906 61.635 15.7503 61.8753C15.51 62.1156 15.375 62.4414 15.375 62.7812C15.375 63.1211 15.51 63.4469 15.7503 63.6872C15.9906 63.9275 16.3164 64.0625 16.6562 64.0625H32.0312V65.3438C32.0312 65.6836 32.1662 66.0094 32.4065 66.2497C32.6468 66.49 32.9727 66.625 33.3125 66.625H79.4375C79.7773 66.625 80.1032 66.49 80.3435 66.2497C80.5838 66.0094 80.7188 65.6836 80.7188 65.3438V33.3125C80.7188 32.9727 80.5838 32.6468 80.3435 32.4065C80.1032 32.1662 79.7773 32.0312 79.4375 32.0312ZM3.84375 19.2188H47.4062V22.3434L25.625 35.654L3.84375 22.3434V19.2188ZM47.4062 25.3463V48.6875H44.3537L36.1296 32.2379L47.4062 25.3463ZM6.89633 48.6875H3.84375V25.3463L15.1204 32.2379L6.89633 48.6875ZM9.75992 48.6875L17.3145 33.58L24.9571 38.2501C25.1584 38.3727 25.3894 38.4375 25.625 38.4375C25.8606 38.4375 26.0916 38.3727 26.2929 38.2501L33.9355 33.58L41.4901 48.6875H9.75992ZM78.1562 64.0625H34.5938V51.25H48.6875C49.0273 51.25 49.3532 51.115 49.5935 50.8747C49.8338 50.6344 49.9688 50.3086 49.9688 49.9688V34.5938H78.1562V64.0625Z" fill="#2F80ED"/>
<path d="M52.5312 19.2188H70.4688C70.8086 19.2188 71.1345 19.0838 71.3747 18.8435C71.615 18.6032 71.75 18.2773 71.75 17.9375C71.75 17.5977 71.615 17.2718 71.3747 17.0315C71.1345 16.7912 70.8086 16.6562 70.4688 16.6562H52.5312C52.1914 16.6562 51.8655 16.7912 51.6253 17.0315C51.385 17.2718 51.25 17.5977 51.25 17.9375C51.25 18.2773 51.385 18.6032 51.6253 18.8435C51.8655 19.0838 52.1914 19.2188 52.5312 19.2188Z" fill="#2F80ED"/>
<path d="M74.3125 19.2188H75.5938C75.9336 19.2188 76.2595 19.0838 76.4997 18.8435C76.74 18.6032 76.875 18.2773 76.875 17.9375C76.875 17.5977 76.74 17.2718 76.4997 17.0315C76.2595 16.7912 75.9336 16.6562 75.5938 16.6562H74.3125C73.9727 16.6562 73.6468 16.7912 73.4065 17.0315C73.1662 17.2718 73.0312 17.5977 73.0312 17.9375C73.0312 18.2773 73.1662 18.6032 73.4065 18.8435C73.6468 19.0838 73.9727 19.2188 74.3125 19.2188Z" fill="#2F80ED"/>
<path d="M12.8125 61.5H11.5312C11.1914 61.5 10.8656 61.635 10.6253 61.8753C10.385 62.1155 10.25 62.4414 10.25 62.7812C10.25 63.1211 10.385 63.447 10.6253 63.6872C10.8656 63.9275 11.1914 64.0625 11.5312 64.0625H12.8125C13.1523 64.0625 13.4782 63.9275 13.7185 63.6872C13.9588 63.447 14.0938 63.1211 14.0938 62.7812C14.0938 62.4414 13.9588 62.1155 13.7185 61.8753C13.4782 61.635 13.1523 61.5 12.8125 61.5Z" fill="#2F80ED"/>
<path d="M30.75 57.6562C30.75 57.3164 30.615 56.9905 30.3747 56.7503C30.1345 56.51 29.8086 56.375 29.4688 56.375H5.125C4.78519 56.375 4.4593 56.51 4.21902 56.7503C3.97874 56.9905 3.84375 57.3164 3.84375 57.6562C3.84375 57.9961 3.97874 58.322 4.21902 58.5622C4.4593 58.8025 4.78519 58.9375 5.125 58.9375H29.4688C29.8086 58.9375 30.1345 58.8025 30.3747 58.5622C30.615 58.322 30.75 57.9961 30.75 57.6562Z" fill="#2F80ED"/>
</svg>
