<svg width="82" height="82" viewBox="0 0 82 82" fill="none" xmlns="http://www.w3.org/2000/svg">
<path d="M79.4375 25.625V64.0625H7.6875V56.375H74.3125V25.625H79.4375Z" fill="#57A4FF"/>
<path d="M56.6953 37.7969V39.0781C56.6955 39.4988 56.5817 39.9154 56.3604 40.3041C56.1391 40.6927 55.8147 41.0459 55.4057 41.3434C54.9967 41.6408 54.5111 41.8768 53.9767 42.0377C53.4422 42.1986 52.8694 42.2814 52.291 42.2812H22.3418C21.7634 42.2814 21.1906 42.1986 20.6561 42.0377C20.1217 41.8768 19.6361 41.6408 19.2271 41.3434C18.8181 41.0459 18.4937 40.6927 18.2724 40.3041C18.0511 39.9154 17.9373 39.4988 17.9375 39.0781V37.7969C17.9373 37.3762 18.0511 36.9596 18.2724 36.5709C18.4937 36.1823 18.8181 35.8291 19.2271 35.5316C19.6361 35.2342 20.1217 34.9982 20.6561 34.8373C21.1906 34.6764 21.7634 34.5936 22.3418 34.5938H52.291C53.4588 34.5946 54.5784 34.9323 55.4041 35.5328C56.2298 36.1333 56.6942 36.9476 56.6953 37.7969Z" fill="#57A4FF"/>
<path d="M79.4375 24.3438H75.5938V17.9375C75.5938 17.5977 75.4588 17.2718 75.2185 17.0315C74.9782 16.7912 74.6523 16.6562 74.3125 16.6562H2.5625C2.22269 16.6562 1.8968 16.7912 1.65652 17.0315C1.41624 17.2718 1.28125 17.5977 1.28125 17.9375V56.375C1.28125 56.7148 1.41624 57.0407 1.65652 57.281C1.8968 57.5213 2.22269 57.6562 2.5625 57.6562H6.40625V64.0625C6.40625 64.4023 6.54124 64.7282 6.78152 64.9685C7.0218 65.2088 7.34769 65.3438 7.6875 65.3438H79.4375C79.7773 65.3438 80.1032 65.2088 80.3435 64.9685C80.5838 64.7282 80.7188 64.4023 80.7188 64.0625V25.625C80.7188 25.2852 80.5838 24.9593 80.3435 24.719C80.1032 24.4787 79.7773 24.3438 79.4375 24.3438ZM3.84375 55.0938V19.2188H73.0312V55.0938H3.84375ZM78.1562 62.7812H8.96875V57.6562H74.3125C74.6523 57.6562 74.9782 57.5213 75.2185 57.281C75.4588 57.0407 75.5938 56.7148 75.5938 56.375V26.9062H78.1562V62.7812Z" fill="#2F80ED"/>
<path d="M20.5 43.5625H54.4531C55.642 43.5611 56.7819 43.0882 57.6226 42.2476C58.4632 41.4069 58.9361 40.267 58.9375 39.0781V37.7969C58.9361 36.608 58.4632 35.4681 57.6226 34.6274C56.7819 33.7868 55.642 33.3139 54.4531 33.3125H20.5C19.3111 33.3139 18.1713 33.7868 17.3306 34.6274C16.4899 35.4681 16.017 36.608 16.0156 37.7969V39.0781C16.017 40.267 16.4899 41.4069 17.3306 42.2476C18.1713 43.0882 19.3111 43.5611 20.5 43.5625ZM18.5781 37.7969C18.5787 37.2873 18.7813 36.7988 19.1416 36.4385C19.5019 36.0782 19.9905 35.8756 20.5 35.875H54.4531C54.9627 35.8756 55.4512 36.0782 55.8115 36.4385C56.1718 36.7988 56.3745 37.2873 56.375 37.7969V39.0781C56.3745 39.5877 56.1718 40.0762 55.8115 40.4365C55.4512 40.7968 54.9627 40.9994 54.4531 41H20.5C19.9905 40.9994 19.5019 40.7968 19.1416 40.4365C18.7813 40.0762 18.5787 39.5877 18.5781 39.0781V37.7969Z" fill="#2F80ED"/>
</svg>
