<svg width="82" height="82" viewBox="0 0 82 82" fill="none" xmlns="http://www.w3.org/2000/svg">
<path d="M55.4557 40.3098C54.0675 42.7329 52.0923 44.7682 49.7119 46.2285C47.3315 47.6888 44.6222 48.5272 41.8331 48.6667C39.0439 48.8063 36.2645 48.2424 33.7502 47.027C31.2359 45.8116 29.0675 43.9836 27.4444 41.7112L34.2366 41.3717C36.3634 42.9117 38.9522 43.6795 41.5747 43.5482C44.1973 43.4168 46.6964 42.3942 48.6587 40.6493L55.4557 40.3098Z" fill="#57A4FF"/>
<path d="M41 15.375C37.7047 15.3743 34.4833 16.3509 31.7431 18.1812C29.003 20.0116 26.8671 22.6134 25.6058 25.6577C24.3444 28.702 24.0143 32.052 24.657 35.2839C25.2997 38.5159 26.8864 41.4846 29.2165 43.8147C31.5466 46.1448 34.5154 47.7316 37.7473 48.3743C40.9793 49.017 44.3293 48.6868 47.3735 47.4254C50.4178 46.1641 53.0197 44.0283 54.85 41.2881C56.6803 38.5479 57.6569 35.3265 57.6562 32.0312C57.6562 27.6137 55.9014 23.3772 52.7777 20.2535C49.6541 17.1298 45.4175 15.375 41 15.375ZM41 43.5625C38.3018 43.5636 35.6885 42.6188 33.6148 40.8925C31.5411 39.1662 30.1381 36.7676 29.6498 34.1139C29.1616 31.4602 29.6191 28.7194 30.9426 26.368C32.2661 24.0167 34.372 22.2037 36.8939 21.2444C39.4159 20.2851 42.1943 20.2402 44.746 21.1174C47.2976 21.9947 49.461 23.7387 50.8599 26.046C52.2587 28.3533 52.8045 31.0779 52.4024 33.746C52.0002 36.4141 50.6755 38.8568 48.6587 40.6492C46.551 42.5292 43.8243 43.5664 41 43.5625Z" fill="#57A4FF"/>
<path d="M38.4375 34.5938C38.0977 34.5938 37.7718 34.7287 37.5315 34.969C37.2912 35.2093 37.1562 35.5352 37.1562 35.875C37.1562 36.2148 37.2912 36.5407 37.5315 36.781C37.7718 37.0213 38.0977 37.1562 38.4375 37.1562H39.7188C39.7188 37.4961 39.8537 37.822 40.094 38.0622C40.3343 38.3025 40.6602 38.4375 41 38.4375C41.3398 38.4375 41.6657 38.3025 41.906 38.0622C42.1463 37.822 42.2813 37.4961 42.2813 37.1562H43.5625C43.9023 37.1562 44.2282 37.0213 44.4685 36.781C44.7088 36.5407 44.8438 36.2148 44.8438 35.875V32.0312C44.8438 31.6914 44.7088 31.3655 44.4685 31.1253C44.2282 30.885 43.9023 30.75 43.5625 30.75H39.7188V29.4688H43.5625C43.9023 29.4688 44.2282 29.3338 44.4685 29.0935C44.7088 28.8532 44.8438 28.5273 44.8438 28.1875C44.8438 27.8477 44.7088 27.5218 44.4685 27.2815C44.2282 27.0412 43.9023 26.9062 43.5625 26.9062H42.2813C42.2813 26.5664 42.1463 26.2405 41.906 26.0003C41.6657 25.76 41.3398 25.625 41 25.625C40.6602 25.625 40.3343 25.76 40.094 26.0003C39.8537 26.2405 39.7188 26.5664 39.7188 26.9062H38.4375C38.0977 26.9062 37.7718 27.0412 37.5315 27.2815C37.2912 27.5218 37.1562 27.8477 37.1562 28.1875V32.0312C37.1562 32.3711 37.2912 32.697 37.5315 32.9372C37.7718 33.1775 38.0977 33.3125 38.4375 33.3125H42.2813V34.5938H38.4375Z" fill="#2F80ED"/>
<path d="M41 12.8125C41.3398 12.8125 41.6657 12.6775 41.906 12.4372C42.1463 12.1969 42.2813 11.8711 42.2813 11.5312V2.5625C42.2813 2.22269 42.1463 1.8968 41.906 1.65652C41.6657 1.41624 41.3398 1.28125 41 1.28125C40.6602 1.28125 40.3343 1.41624 40.094 1.65652C39.8537 1.8968 39.7188 2.22269 39.7188 2.5625V11.5312C39.7188 11.8711 39.8537 12.1969 40.094 12.4372C40.3343 12.6775 40.6602 12.8125 41 12.8125Z" fill="#2F80ED"/>
<path d="M35.875 12.8125C36.2148 12.8125 36.5407 12.6775 36.781 12.4372C37.0213 12.1969 37.1562 11.8711 37.1562 11.5312V5.125C37.1562 4.78519 37.0213 4.4593 36.781 4.21902C36.5407 3.97874 36.2148 3.84375 35.875 3.84375C35.5352 3.84375 35.2093 3.97874 34.969 4.21902C34.7287 4.4593 34.5938 4.78519 34.5938 5.125V11.5312C34.5938 11.8711 34.7287 12.1969 34.969 12.4372C35.2093 12.6775 35.5352 12.8125 35.875 12.8125Z" fill="#2F80ED"/>
<path d="M67.9062 55.0938C67.0073 55.0935 66.1108 55.188 65.2316 55.3756C64.6474 49.3682 61.719 43.8331 57.0813 39.9702C58.1876 37.7321 58.8142 35.2875 58.9211 32.7932C59.0279 30.2989 58.6127 27.8097 57.7019 25.4852C56.7911 23.1606 55.4048 21.0519 53.6319 19.2941C51.859 17.5363 49.7385 16.1682 47.4062 15.2773V8.96875C47.4062 8.62894 47.2712 8.30305 47.031 8.06277C46.7907 7.82249 46.4648 7.6875 46.125 7.6875C45.7852 7.6875 45.4593 7.82249 45.219 8.06277C44.9787 8.30305 44.8437 8.62894 44.8437 8.96875V14.5102C41.3946 13.7515 37.7983 14.0284 34.506 15.3059C31.2136 16.5835 28.3719 18.8049 26.3373 21.6914C24.3026 24.5779 23.1658 28.001 23.0692 31.5312C22.9727 35.0614 23.9209 38.5415 25.7948 41.5349C23.4489 43.9307 21.653 46.8086 20.532 49.9688H20.5C18.9059 49.9724 17.3521 50.47 16.0523 51.3929C14.7525 52.3158 13.7706 53.6188 13.2417 55.1226C9.92611 55.3454 6.82676 56.8476 4.59782 59.3123C2.36888 61.777 1.18472 65.0113 1.29528 68.3325C1.40583 71.6537 2.80245 74.8021 5.19036 77.1131C7.57828 79.4241 10.7707 80.7169 14.0937 80.7188H67.9062C71.3043 80.7188 74.5632 79.3689 76.966 76.9661C79.3689 74.5632 80.7187 71.3043 80.7187 67.9062C80.7187 64.5082 79.3689 61.2493 76.966 58.8464C74.5632 56.4436 71.3043 55.0938 67.9062 55.0938ZM25.625 32.0312C25.625 28.9904 26.5267 26.0178 28.2161 23.4894C29.9056 20.961 32.3068 18.9903 35.1162 17.8266C37.9256 16.6629 41.017 16.3584 43.9995 16.9517C46.982 17.5449 49.7215 19.0093 51.8718 21.1595C54.022 23.3097 55.4863 26.0493 56.0796 29.0317C56.6728 32.0142 56.3683 35.1056 55.2046 37.915C54.0409 40.7244 52.0703 43.1257 49.5419 44.8151C47.0135 46.5045 44.0409 47.4062 41 47.4062C36.9238 47.4014 33.0159 45.7799 30.1336 42.8976C27.2513 40.0153 25.6299 36.1075 25.625 32.0312ZM67.9062 78.1562H14.0937C12.7477 78.1566 11.4148 77.8918 10.1711 77.3769C8.92734 76.8621 7.79721 76.1074 6.84519 75.1558C4.92249 73.234 3.84197 70.6271 3.84134 67.9087C3.8407 65.1902 4.92 62.5828 6.84179 60.6601C8.76359 58.7374 11.3705 57.6569 14.0889 57.6562H14.1098C14.1466 57.6579 14.1834 57.6595 14.2219 57.6595C14.5175 57.6594 14.804 57.5572 15.0328 57.3701C15.2616 57.183 15.4187 56.9225 15.4775 56.6329C15.7385 55.3473 16.4829 54.211 17.5572 53.4582C18.6315 52.7055 19.9537 52.3937 21.2511 52.5873C21.5547 52.6313 21.864 52.565 22.1229 52.4004C22.3817 52.2359 22.5731 51.984 22.6621 51.6904C23.5798 48.6821 25.1772 45.9252 27.3307 43.633C29.1103 45.7336 31.3501 47.3959 33.8761 48.4909C36.4022 49.5858 39.1466 50.0839 41.8963 49.9465C44.646 49.8091 47.3271 49.0399 49.7314 47.6986C52.1357 46.3573 54.1986 44.48 55.76 42.2124C57.8954 44.0675 59.6215 46.3465 60.8286 48.9046C62.0357 51.4627 62.6974 54.244 62.7716 57.0717C62.777 57.2738 62.8302 57.4717 62.9268 57.6493C63.0233 57.8268 63.1606 57.979 63.3273 58.0934C63.4939 58.2078 63.6853 58.281 63.8858 58.3072C64.0862 58.3334 64.29 58.3117 64.4805 58.244C65.8876 57.7458 67.3867 57.5609 68.8727 57.7024C70.3587 57.8438 71.796 58.3081 73.0839 59.0628C74.3718 59.8175 75.4793 60.8444 76.329 62.0718C77.1787 63.2991 77.7501 64.6972 78.0032 66.1684C78.2563 67.6395 78.185 69.1482 77.7943 70.5889C77.4036 72.0296 76.703 73.3676 75.7413 74.5094C74.7797 75.6511 73.5803 76.569 72.2269 77.1989C70.8736 77.8289 69.399 78.1556 67.9062 78.1562Z" fill="#2F80ED"/>
<path d="M41 19.2188C38.4659 19.2188 35.9887 19.9702 33.8817 21.378C31.7747 22.7859 30.1325 24.7869 29.1628 27.1281C28.193 29.4693 27.9393 32.0455 28.4337 34.5308C28.928 37.0162 30.1483 39.2992 31.9402 41.091C33.732 42.8829 36.015 44.1032 38.5004 44.5976C40.9858 45.0919 43.5619 44.8382 45.9031 43.8684C48.2443 42.8987 50.2453 41.2565 51.6532 39.1495C53.0611 37.0425 53.8125 34.5653 53.8125 32.0312C53.8085 28.6344 52.4574 25.3778 50.0554 22.9758C47.6535 20.5738 44.3969 19.2227 41 19.2188ZM41 42.2812C38.9727 42.2812 36.991 41.6801 35.3054 40.5538C33.6198 39.4275 32.306 37.8267 31.5302 35.9537C30.7544 34.0808 30.5514 32.0199 30.9469 30.0316C31.3424 28.0433 32.3186 26.2169 33.7521 24.7834C35.1856 23.3499 37.012 22.3737 39.0003 21.9782C40.9886 21.5827 43.0495 21.7857 44.9225 22.5615C46.7954 23.3373 48.3963 24.651 49.5226 26.3367C50.6488 28.0223 51.25 30.004 51.25 32.0312C51.2469 34.7488 50.166 37.3541 48.2445 39.2757C46.3229 41.1973 43.7175 42.2782 41 42.2812Z" fill="#2F80ED"/>
<path d="M46.125 6.40625C46.4648 6.40625 46.7907 6.27126 47.031 6.03098C47.2713 5.7907 47.4062 5.46481 47.4062 5.125V3.84375C47.4062 3.50394 47.2713 3.17805 47.031 2.93777C46.7907 2.69749 46.4648 2.5625 46.125 2.5625C45.7852 2.5625 45.4593 2.69749 45.219 2.93777C44.9787 3.17805 44.8438 3.50394 44.8438 3.84375V5.125C44.8438 5.46481 44.9787 5.7907 45.219 6.03098C45.4593 6.27126 45.7852 6.40625 46.125 6.40625Z" fill="#2F80ED"/>
</svg>
