<svg width="22" height="22" viewBox="0 0 22 22" fill="none" xmlns="http://www.w3.org/2000/svg">
<path d="M20.0937 21.0811L18.755 6.17249C18.7185 5.76535 18.3772 5.45349 17.9685 5.45349H15.2078V4.20838C15.2078 1.88788 13.32 0 10.9996 0C8.67934 0 6.79178 1.88788 6.79178 4.20838V5.45349H4.02918C3.62047 5.45349 3.27923 5.76535 3.2427 6.17249L1.89873 21.1397C1.87893 21.3606 1.95284 21.5795 2.10245 21.7431C2.25207 21.9067 2.46358 21.9999 2.68521 21.9999H19.3126C19.3132 21.9999 19.3141 21.9999 19.3147 21.9999C19.7509 21.9999 20.1043 21.6463 20.1043 21.2102C20.1042 21.1663 20.1006 21.1231 20.0937 21.0811ZM8.37107 4.20838C8.37107 2.7587 9.55027 1.57929 10.9997 1.57929C12.4493 1.57929 13.6286 2.7587 13.6286 4.20838V5.45349H8.37107V4.20838ZM3.54898 20.4207L4.75113 7.03278H6.79178V8.44487C6.79178 8.88096 7.14522 9.23451 7.58142 9.23451C8.01762 9.23451 8.37107 8.88096 8.37107 8.44487V7.03278H13.6286V8.44487C13.6286 8.88096 13.9821 9.23451 14.4183 9.23451C14.8545 9.23451 15.2079 8.88096 15.2079 8.44487V7.03278H17.2467L18.4488 20.4207H3.54898Z" fill="#2F80ED"/>
</svg>
