<svg width="38" height="38" viewBox="0 0 38 38" fill="none" xmlns="http://www.w3.org/2000/svg">
<path d="M19 38C8.52327 38 0 29.4767 0 19C0 8.52327 8.52327 0 19 0C29.4767 0 38 8.52327 38 19C38 29.4767 29.4767 38 19 38ZM19 2.7142C10.0201 2.7142 2.7142 10.0201 2.7142 19C2.7142 27.9799 10.0201 35.2858 19 35.2858C27.9799 35.2858 35.2858 27.9799 35.2858 19C35.2858 10.0201 27.9799 2.7142 19 2.7142Z" fill="#2F80ED"/>
<path d="M25.786 27.143C25.4387 27.143 25.0914 27.0105 24.8264 26.7453L11.2551 13.174C10.7249 12.6437 10.7249 11.785 11.2551 11.255C11.7851 10.725 12.6441 10.7247 13.1741 11.255L26.7454 24.8263C27.2756 25.3566 27.2756 26.2153 26.7454 26.7453C26.4804 27.0105 26.1334 27.143 25.786 27.143Z" fill="#2F80ED"/>
<path d="M12.2145 27.1427C11.8671 27.1427 11.5201 27.0102 11.2551 26.7449C10.7249 26.2149 10.7249 25.3559 11.2551 24.8259L24.8264 11.2546C25.3567 10.7244 26.2154 10.7244 26.7454 11.2546C27.2753 11.7846 27.2756 12.6436 26.7454 13.1736L13.1741 26.7449C12.9091 27.0102 12.5618 27.1427 12.2145 27.1427Z" fill="#2F80ED"/>
</svg>
