<svg width="16" height="16" viewBox="0 0 16 16" fill="none" xmlns="http://www.w3.org/2000/svg">
<path fill-rule="evenodd" clip-rule="evenodd" d="M7.95001 6.1C9.10981 6.1 10.05 5.1598 10.05 4C10.05 2.8402 9.10981 1.9 7.95001 1.9C6.79021 1.9 5.85001 2.8402 5.85001 4C5.85001 5.1598 6.79021 6.1 7.95001 6.1ZM7.95001 8C10.1592 8 11.95 6.20914 11.95 4C11.95 1.79086 10.1592 0 7.95001 0C5.74087 0 3.95001 1.79086 3.95001 4C3.95001 6.20914 5.74087 8 7.95001 8Z" fill="#2F80ED"/>
<path fill-rule="evenodd" clip-rule="evenodd" d="M3.03593 8.74753C2.24794 9.36495 1.9 10.0439 1.9 10.6752C1.9 11.4183 2.39077 12.2399 3.49956 12.9249C4.5935 13.6007 6.16455 14.0497 7.95 14.0497C9.73545 14.0497 11.3065 13.6007 12.4004 12.9249C13.5092 12.2399 14 11.4183 14 10.6752C14 10.0439 13.6521 9.36495 12.8641 8.74753L14.0359 7.25195C15.1268 8.1067 15.9 9.28621 15.9 10.6752C15.9 12.3205 14.8238 13.6611 13.3991 14.5413C11.9595 15.4307 10.0305 15.9497 7.95 15.9497C5.86946 15.9497 3.94051 15.4307 2.50095 14.5413C1.07624 13.6611 0 12.3205 0 10.6752C0 9.28621 0.773196 8.1067 1.86407 7.25195L3.03593 8.74753Z" fill="#2F80ED"/>
</svg>
